<svg width="199" height="152" viewBox="0 0 199 152" fill="none" xmlns="http://www.w3.org/2000/svg">
<path d="M198.194 133.575H0V133.677H198.194V133.575Z" fill="#EBEBEB"/>
<path d="M178.335 140.14H165.207V140.242H178.335V140.14Z" fill="#EBEBEB"/>
<path d="M131.292 141.25H127.848V141.352H131.292V141.25Z" fill="#EBEBEB"/>
<path d="M164.811 136.354H157.204V136.456H164.811V136.354Z" fill="#EBEBEB"/>
<path d="M37.9149 137.039H20.7949V137.141H37.9149V137.039Z" fill="#EBEBEB"/>
<path d="M43.9554 137.039H41.4463V137.141H43.9554V137.039Z" fill="#EBEBEB"/>
<path d="M89.247 138.761H52.1133V138.863H89.247V138.761Z" fill="#EBEBEB"/>
<path d="M93.9436 115.379H17.4049C16.8053 115.378 16.2306 115.132 15.807 114.695C15.3834 114.258 15.1455 113.667 15.1455 113.049V2.30921C15.1507 1.69561 15.3909 1.1089 15.814 0.676533C16.237 0.244164 16.8087 0.00105114 17.4049 0H93.9436C94.5439 0 95.1196 0.245441 95.5441 0.682327C95.9685 1.11921 96.207 1.71176 96.207 2.32961V113.049C96.207 113.667 95.9685 114.26 95.5441 114.697C95.1196 115.134 94.5439 115.379 93.9436 115.379ZM17.4049 0.0815979C16.8316 0.0826787 16.2821 0.317849 15.8771 0.735491C15.4721 1.15313 15.2446 1.71912 15.2446 2.30921V113.049C15.2446 113.639 15.4721 114.205 15.8771 114.623C16.2821 115.041 16.8316 115.276 17.4049 115.277H93.9436C94.5173 115.276 95.0672 115.041 95.4728 114.623C95.8785 114.206 96.1068 113.64 96.1079 113.049V2.30921C96.1068 1.71874 95.8785 1.15277 95.4728 0.735242C95.0672 0.317717 94.5173 0.0826764 93.9436 0.0815979H17.4049Z" fill="#EBEBEB"/>
<path d="M179.687 115.379H103.144C102.544 115.378 101.969 115.132 101.545 114.695C101.121 114.259 100.882 113.667 100.881 113.049V2.30921C100.887 1.69524 101.128 1.10853 101.552 0.676278C101.976 0.244021 102.548 0.00103967 103.144 0H179.687C180.282 0.00212337 180.853 0.24571 181.275 0.677965C181.697 1.11022 181.937 1.69631 181.942 2.30921V113.049C181.942 113.666 181.705 114.257 181.282 114.694C180.859 115.13 180.286 115.377 179.687 115.379ZM103.144 0.0815979C102.571 0.0826764 102.021 0.317717 101.615 0.735242C101.209 1.15277 100.981 1.71874 100.98 2.30921V113.049C100.981 113.64 101.209 114.206 101.615 114.623C102.021 115.041 102.571 115.276 103.144 115.277H179.687C180.261 115.276 180.81 115.041 181.216 114.623C181.622 114.206 181.85 113.64 181.851 113.049V2.30921C181.85 1.71874 181.622 1.15277 181.216 0.735242C180.81 0.317717 180.261 0.0826764 179.687 0.0815979H103.144Z" fill="#EBEBEB"/>
<path d="M107.327 133.135H160.958V52.198H107.327V133.135Z" fill="#F0F0F0"/>
<path d="M109.221 69.6966H159.062V54.7479L109.221 54.7479V69.6966Z" fill="#E0E0E0"/>
<path d="M156.232 69.6966H159.062V57.1673H156.232V69.6966Z" fill="#EBEBEB"/>
<path d="M142.542 69.6966H145.372V57.1673H142.542V69.6966Z" fill="#EBEBEB"/>
<path d="M124.935 69.1971L127.724 69.692L129.791 57.3447L127.002 56.8499L124.935 69.1971Z" fill="#EBEBEB"/>
<path d="M152.724 69.6966H155.555V58.8196H152.724V69.6966Z" fill="#EBEBEB"/>
<path d="M146.216 69.6966H149.046V58.8196H146.216V69.6966Z" fill="#EBEBEB"/>
<path d="M129.79 69.6966H132.62V58.8196H129.79V69.6966Z" fill="#EBEBEB"/>
<path d="M136.536 69.06L139.299 69.692L141.592 59.0741L138.829 58.4421L136.536 69.06Z" fill="#EBEBEB"/>
<path d="M150.275 69.6966H151.69V56.5471H150.275V69.6966Z" fill="#EBEBEB"/>
<path d="M133.436 69.6966H134.852V56.5471H133.436V69.6966Z" fill="#EBEBEB"/>
<path d="M159.063 72.0629H109.221V87.0116H159.063V72.0629Z" fill="#E0E0E0"/>
<path d="M112.051 74.4823H109.221V87.0116H112.051V74.4823Z" fill="#EBEBEB"/>
<path d="M125.742 74.4823H122.912V87.0116H125.742V74.4823Z" fill="#EBEBEB"/>
<path d="M141.289 74.1624L138.5 74.6573L140.568 87.0045L143.357 86.5097L141.289 74.1624Z" fill="#EBEBEB"/>
<path d="M115.559 76.1346H112.729V87.0116H115.559V76.1346Z" fill="#EBEBEB"/>
<path d="M122.068 76.1346H119.237V87.0116H122.068V76.1346Z" fill="#EBEBEB"/>
<path d="M138.494 76.1346H135.664V87.0116H138.494V76.1346Z" fill="#EBEBEB"/>
<path d="M129.468 75.7526L126.705 76.3846L128.998 87.0025L131.761 86.3705L129.468 75.7526Z" fill="#EBEBEB"/>
<path d="M118.009 73.8621H116.594V87.0116H118.009V73.8621Z" fill="#EBEBEB"/>
<path d="M134.848 73.8621H133.433V87.0116H134.848V73.8621Z" fill="#EBEBEB"/>
<path d="M156.232 87.0116H159.062V74.4823H156.232V87.0116Z" fill="#EBEBEB"/>
<path d="M152.724 87.0116H155.555V76.1346H152.724V87.0116Z" fill="#EBEBEB"/>
<path d="M146.216 87.0116H149.046V76.1346H146.216V87.0116Z" fill="#EBEBEB"/>
<path d="M150.275 87.0116H151.69V73.8621H150.275V87.0116Z" fill="#EBEBEB"/>
<path d="M109.221 104.327H159.062V89.3779H109.221V104.327Z" fill="#E0E0E0"/>
<path d="M127.625 104.327H130.455V91.7973H127.625V104.327Z" fill="#EBEBEB"/>
<path d="M110.019 103.825L112.808 104.32L114.875 91.973L112.086 91.4781L110.019 103.825Z" fill="#EBEBEB"/>
<path d="M137.808 104.327H140.639V93.4496H137.808V104.327Z" fill="#EBEBEB"/>
<path d="M131.3 104.327H134.13V93.4496H131.3V104.327Z" fill="#EBEBEB"/>
<path d="M114.874 104.327H117.704V93.4496H114.874V104.327Z" fill="#EBEBEB"/>
<path d="M121.619 103.688L124.382 104.32L126.675 93.7023L123.912 93.0703L121.619 103.688Z" fill="#EBEBEB"/>
<path d="M135.358 104.327H136.773V91.1772H135.358V104.327Z" fill="#EBEBEB"/>
<path d="M118.52 104.327H119.936V91.1772H118.52V104.327Z" fill="#EBEBEB"/>
<path d="M142.596 103.826L145.385 104.321L147.453 91.9738L144.663 91.479L142.596 103.826Z" fill="#EBEBEB"/>
<path d="M147.449 104.327H150.279V93.4496H147.449V104.327Z" fill="#EBEBEB"/>
<path d="M154.198 103.689L156.961 104.321L159.254 93.7036L156.491 93.0716L154.198 103.689Z" fill="#EBEBEB"/>
<path d="M151.092 104.327H152.507V91.1772H151.092V104.327Z" fill="#EBEBEB"/>
<path d="M170.21 52.2021H160.958V133.347H170.21V52.2021Z" fill="#E0E0E0"/>
<path d="M41.3904 34.7769C41.3904 34.7769 40.9266 31.6272 43.1583 29.6036C45.39 27.58 45.1957 26.3805 44.5576 26.2255C43.9194 26.0704 43.3327 28.09 42.3497 28.6448C42.3497 28.6448 42.318 25.7644 43.3169 24.7037C44.3158 23.6429 44.835 20.9094 43.8877 20.8604C42.9403 20.8115 42.8412 22.4924 42.643 23.6674C42.4448 24.8424 41.3904 26.5233 41.3904 26.5233C41.3904 26.5233 41.1843 23.9448 40.5382 22.884C39.8921 21.8233 41.6124 19.3957 40.9346 18.335C40.2567 17.2742 39.0953 19.2978 39.1905 21.5703C39.2856 23.8428 40.776 26.2703 40.4193 28.6448C40.4193 28.6448 39.7692 26.9762 39.1865 26.8252C38.6038 26.6742 37.9973 25.5686 37.6009 25.1606C37.2045 24.7526 36.717 26.1683 37.6009 27.4821C38.4849 28.7958 40.7443 32.3086 40.3994 35.1522L41.3904 34.7769Z" fill="#E6E6E6"/>
<path d="M42.7272 33.3448L43.4565 38.0693C43.5099 38.4122 43.4903 38.763 43.3991 39.0973C43.3079 39.4317 43.1472 39.7416 42.9282 40.0058C42.7093 40.27 42.4372 40.4821 42.1307 40.6275C41.8243 40.7728 41.4909 40.848 41.1535 40.8477H40.3607C40.023 40.8486 39.6891 40.7739 39.3822 40.6287C39.0753 40.4836 38.8027 40.2716 38.5833 40.0074C38.3639 39.7431 38.2029 39.4329 38.1115 39.0983C38.02 38.7637 38.0003 38.4126 38.0538 38.0693L38.7831 33.3448H42.7272Z" fill="#E6E6E6"/>
<path d="M31.6603 41.8392L83.3652 41.8392V39.1057L31.6603 39.1057V41.8392Z" fill="#E0E0E0"/>
<path d="M78.7071 39.1057H80.9863V29.0284H78.7071V39.1057Z" fill="#EBEBEB"/>
<path d="M67.6954 39.1057H69.9746V29.0284H67.6954V39.1057Z" fill="#EBEBEB"/>
<path d="M53.5244 38.7072L55.7705 39.1057L57.4336 29.1748L55.1875 28.7763L53.5244 38.7072Z" fill="#EBEBEB"/>
<path d="M75.8848 39.1057H78.1641V30.3543H75.8848V39.1057Z" fill="#EBEBEB"/>
<path d="M70.6485 39.1057H72.9277V30.3543H70.6485V39.1057Z" fill="#EBEBEB"/>
<path d="M57.4327 39.1057H59.7119V30.3543H57.4327V39.1057Z" fill="#EBEBEB"/>
<path d="M62.86 38.5921L65.085 39.1011L66.9296 30.5582L64.7046 30.0492L62.86 38.5921Z" fill="#EBEBEB"/>
<path d="M73.918 39.1016H75.0557V28.5224H73.918V39.1016Z" fill="#EBEBEB"/>
<path d="M60.3702 39.1016H61.5078V28.5224H60.3702V39.1016Z" fill="#EBEBEB"/>
<path d="M83.369 59.5173H31.6641V62.2508H83.369V59.5173Z" fill="#E0E0E0"/>
<path d="M36.3212 49.44H34.042V59.5173H36.3212V49.44Z" fill="#EBEBEB"/>
<path d="M47.3369 49.44H45.0576V59.5173H47.3369V49.44Z" fill="#EBEBEB"/>
<path d="M59.8428 49.1861L57.5967 49.5846L59.2598 59.5154L61.5059 59.1169L59.8428 49.1861Z" fill="#EBEBEB"/>
<path d="M39.1435 50.7659H36.8643V59.5173H39.1435V50.7659Z" fill="#EBEBEB"/>
<path d="M44.3798 50.7659H42.1006V59.5173H44.3798V50.7659Z" fill="#EBEBEB"/>
<path d="M57.5956 50.7659H55.3164V59.5173H57.5956V50.7659Z" fill="#EBEBEB"/>
<path d="M50.3324 50.4601L48.1074 50.9691L49.9521 59.512L52.177 59.003L50.3324 50.4601Z" fill="#EBEBEB"/>
<path d="M41.1093 48.9382H39.9717V59.5173H41.1093V48.9382Z" fill="#EBEBEB"/>
<path d="M54.6581 48.9382H53.5205V59.5173H54.6581V48.9382Z" fill="#EBEBEB"/>
<path d="M78.4055 51.5411H67.3066V59.4275H78.4055V51.5411Z" fill="#EBEBEB"/>
<path d="M137.02 34.7035C141.295 34.7035 144.761 31.1361 144.761 26.7355C144.761 22.3349 141.295 18.7675 137.02 18.7675C132.744 18.7675 129.278 22.3349 129.278 26.7355C129.278 31.1361 132.744 34.7035 137.02 34.7035Z" fill="#E0E0E0"/>
<path d="M137.02 33.5121C140.656 33.5121 143.604 30.4781 143.604 26.7354C143.604 22.9928 140.656 19.9588 137.02 19.9588C133.383 19.9588 130.436 22.9928 130.436 26.7354C130.436 30.4781 133.383 33.5121 137.02 33.5121Z" fill="#F0F0F0"/>
<path d="M136.71 22.0884V26.8252L133.658 25.0464" fill="#F0F0F0"/>
<path d="M136.71 27.2332C136.642 27.2321 136.576 27.2139 136.516 27.1801L133.464 25.4013C133.373 25.3482 133.306 25.2599 133.277 25.1559C133.249 25.0519 133.262 24.9406 133.313 24.8464C133.339 24.7993 133.373 24.7579 133.415 24.7246C133.456 24.6913 133.503 24.6667 133.554 24.6523C133.604 24.6379 133.657 24.6339 133.709 24.6406C133.761 24.6473 133.811 24.6646 133.856 24.6914L136.314 26.1234V22.0884C136.314 21.9802 136.356 21.8765 136.43 21.7999C136.505 21.7234 136.605 21.6805 136.71 21.6805C136.816 21.6805 136.916 21.7234 136.991 21.7999C137.065 21.8765 137.107 21.9802 137.107 22.0884V26.8252C137.107 26.9334 137.065 27.0372 136.991 27.1137C136.916 27.1902 136.816 27.2332 136.71 27.2332Z" fill="#E0E0E0"/>
<path d="M99.098 152C141.544 152 175.954 149.932 175.954 147.382C175.954 144.831 141.544 142.763 99.098 142.763C56.6517 142.763 22.2422 144.831 22.2422 147.382C22.2422 149.932 56.6517 152 99.098 152Z" fill="#F5F5F5"/>
<path d="M167.478 29.6526H88.5889V106.534H167.478V29.6526Z" fill="#CA6035"/>
<path opacity="0.7" d="M167.478 29.6526H88.5889V106.534H167.478V29.6526Z" fill="white"/>
<path d="M167.478 29.6526H88.5889V33.5652H167.478V29.6526Z" fill="#CA6035"/>
<path opacity="0.2" d="M167.478 33.5692H164.87V106.607H167.478V33.5692Z" fill="black"/>
<path opacity="0.6" d="M166.32 35.2991H166.082C165.714 35.2991 165.416 35.6059 165.416 35.9845V44.7889C165.416 45.1674 165.714 45.4743 166.082 45.4743H166.32C166.688 45.4743 166.986 45.1674 166.986 44.7889V35.9845C166.986 35.6059 166.688 35.2991 166.32 35.2991Z" fill="white"/>
<path opacity="0.2" d="M163.145 84.0455H90.2099C90.1577 84.0444 90.1078 84.0226 90.0709 83.9846C90.0339 83.9465 90.0127 83.8953 90.0117 83.8415C90.0117 83.7874 90.0326 83.7355 90.0698 83.6972C90.1069 83.659 90.1573 83.6375 90.2099 83.6375H163.145C163.198 83.6375 163.248 83.659 163.286 83.6972C163.323 83.7355 163.344 83.7874 163.344 83.8415C163.344 83.8956 163.323 83.9475 163.286 83.9857C163.248 84.024 163.198 84.0455 163.145 84.0455Z" fill="black"/>
<path opacity="0.2" d="M163.145 66.502H90.2099C90.1577 66.501 90.1078 66.4791 90.0709 66.4411C90.0339 66.4031 90.0127 66.3518 90.0117 66.298C90.0117 66.2439 90.0326 66.192 90.0698 66.1538C90.1069 66.1155 90.1573 66.094 90.2099 66.094H163.145C163.198 66.094 163.248 66.1155 163.286 66.1538C163.323 66.192 163.344 66.2439 163.344 66.298C163.344 66.3521 163.323 66.404 163.286 66.4423C163.248 66.4805 163.198 66.502 163.145 66.502Z" fill="black"/>
<path d="M163.149 35.295H90.2295V46.7717H163.149V35.295Z" fill="#CA6035"/>
<path opacity="0.6" d="M166.57 31.6109C166.57 31.8053 166.514 31.9954 166.409 32.1571C166.304 32.3188 166.155 32.4448 165.98 32.5193C165.805 32.5937 165.613 32.6132 165.428 32.5752C165.243 32.5373 165.073 32.4436 164.939 32.3061C164.805 32.1686 164.714 31.9934 164.678 31.8027C164.641 31.6119 164.66 31.4143 164.732 31.2346C164.804 31.0549 164.927 30.9014 165.084 30.7933C165.241 30.6853 165.426 30.6276 165.614 30.6276C165.868 30.6276 166.111 30.7312 166.29 30.9156C166.469 31.1 166.57 31.3501 166.57 31.6109Z" fill="white"/>
<path opacity="0.6" d="M163.201 31.6109C163.201 31.8053 163.145 31.9954 163.04 32.1571C162.935 32.3188 162.785 32.4448 162.611 32.5193C162.436 32.5937 162.244 32.6132 162.059 32.5752C161.874 32.5373 161.703 32.4436 161.57 32.3061C161.436 32.1686 161.345 31.9934 161.308 31.8027C161.272 31.6119 161.29 31.4143 161.363 31.2346C161.435 31.0549 161.557 30.9014 161.715 30.7933C161.872 30.6853 162.056 30.6276 162.245 30.6276C162.499 30.6276 162.742 30.7312 162.921 30.9156C163.1 31.1 163.201 31.3501 163.201 31.6109Z" fill="white"/>
<path opacity="0.6" d="M159.831 31.6109C159.831 31.8053 159.775 31.9954 159.67 32.1571C159.566 32.3188 159.416 32.4448 159.242 32.5193C159.067 32.5937 158.875 32.6132 158.69 32.5752C158.505 32.5373 158.334 32.4436 158.201 32.3061C158.067 32.1686 157.976 31.9934 157.939 31.8027C157.902 31.6119 157.921 31.4143 157.994 31.2346C158.066 31.0549 158.188 30.9014 158.345 30.7933C158.503 30.6853 158.687 30.6276 158.876 30.6276C159.13 30.6276 159.373 30.7312 159.552 30.9156C159.731 31.1 159.831 31.3501 159.831 31.6109Z" fill="white"/>
<path opacity="0.4" d="M93.3533 54.4582C92.8915 54.4582 92.4401 54.3173 92.0562 54.0532C91.6722 53.7892 91.373 53.4139 91.1963 52.9748C91.0196 52.5357 90.9733 52.0525 91.0634 51.5863C91.1535 51.1202 91.3759 50.692 91.7024 50.3559C92.0289 50.0199 92.4449 49.791 92.8978 49.6983C93.3507 49.6056 93.8201 49.6531 94.2467 49.835C94.6734 50.0169 95.038 50.3249 95.2945 50.7201C95.5511 51.1153 95.688 51.5799 95.688 52.0551C95.687 52.6921 95.4407 53.3027 95.003 53.7532C94.5654 54.2036 93.9722 54.4571 93.3533 54.4582Z" fill="black"/>
<path d="M93.6388 51.1412V52.9649H93.2424V51.4799H92.8896V51.1412H93.6388Z" fill="white"/>
<path opacity="0.4" d="M159.994 49.7256H97.8835C97.634 49.7256 97.4316 49.9338 97.4316 50.1907V50.4803C97.4316 50.7372 97.634 50.9454 97.8835 50.9454H159.994C160.243 50.9454 160.446 50.7372 160.446 50.4803V50.1907C160.446 49.9338 160.243 49.7256 159.994 49.7256Z" fill="black"/>
<path opacity="0.4" d="M159.994 52.8956H97.8835C97.634 52.8956 97.4316 53.1038 97.4316 53.3607V53.6504C97.4316 53.9073 97.634 54.1155 97.8835 54.1155H159.994C160.243 54.1155 160.446 53.9073 160.446 53.6504V53.3607C160.446 53.1038 160.243 52.8956 159.994 52.8956Z" fill="black"/>
<path opacity="0.4" d="M138.509 56.0616H97.8835C97.634 56.0616 97.4316 56.2698 97.4316 56.5267V56.8164C97.4316 57.0732 97.634 57.2815 97.8835 57.2815H138.509C138.759 57.2815 138.961 57.0732 138.961 56.8164V56.5267C138.961 56.2698 138.759 56.0616 138.509 56.0616Z" fill="black"/>
<path opacity="0.2" d="M98.5187 63.2544C99.1163 63.2544 99.6008 62.7558 99.6008 62.1406C99.6008 61.5255 99.1163 61.0268 98.5187 61.0268C97.921 61.0268 97.4365 61.5255 97.4365 62.1406C97.4365 62.7558 97.921 63.2544 98.5187 63.2544Z" fill="black"/>
<path d="M99.263 62.1406C99.2638 62.2934 99.2204 62.4431 99.1384 62.5705C99.0564 62.6979 98.9394 62.7974 98.8023 62.8563C98.6653 62.9151 98.5143 62.9308 98.3686 62.9011C98.2229 62.8715 98.0891 62.798 97.9841 62.6899C97.8791 62.5818 97.8076 62.444 97.7789 62.2941C97.7501 62.1441 97.7652 61.9888 97.8224 61.8477C97.8796 61.7066 97.9763 61.5862 98.1001 61.5018C98.2239 61.4174 98.3693 61.3728 98.5178 61.3736C98.7154 61.3736 98.905 61.4544 99.0447 61.5982C99.1845 61.7421 99.263 61.9372 99.263 62.1406Z" fill="white"/>
<path opacity="0.4" d="M112.543 61.5327H102.054C101.805 61.5327 101.603 61.7409 101.603 61.9978V62.2875C101.603 62.5443 101.805 62.7526 102.054 62.7526H112.543C112.792 62.7526 112.995 62.5443 112.995 62.2875V61.9978C112.995 61.7409 112.792 61.5327 112.543 61.5327Z" fill="black"/>
<path opacity="0.2" d="M121.588 62.1161C121.588 62.3364 121.525 62.5518 121.406 62.7349C121.287 62.9181 121.118 63.0608 120.92 63.1451C120.722 63.2294 120.505 63.2515 120.295 63.2085C120.085 63.1656 119.892 63.0595 119.741 62.9037C119.589 62.7479 119.486 62.5495 119.445 62.3334C119.403 62.1174 119.424 61.8934 119.506 61.6899C119.588 61.4864 119.727 61.3124 119.905 61.19C120.083 61.0676 120.292 61.0023 120.506 61.0023C120.793 61.0023 121.068 61.1197 121.271 61.3285C121.474 61.5374 121.588 61.8207 121.588 62.1161Z" fill="black"/>
<path d="M121.255 62.1161C121.256 62.2688 121.213 62.4183 121.131 62.5456C121.049 62.673 120.932 62.7725 120.795 62.8314C120.659 62.8904 120.508 62.9063 120.362 62.877C120.217 62.8477 120.083 62.7746 119.978 62.6669C119.873 62.5592 119.801 62.4218 119.772 62.2722C119.742 62.1225 119.757 61.9672 119.813 61.8261C119.87 61.6849 119.966 61.5643 120.089 61.4794C120.213 61.3945 120.358 61.3491 120.506 61.3491C120.704 61.3491 120.894 61.4298 121.034 61.5735C121.175 61.7173 121.254 61.9123 121.255 62.1161Z" fill="#CA6035"/>
<path opacity="0.4" d="M134.538 61.5082H124.046C123.796 61.5082 123.594 61.7164 123.594 61.9733V62.263C123.594 62.5199 123.796 62.7281 124.046 62.7281H134.538C134.788 62.7281 134.99 62.5199 134.99 62.263V61.9733C134.99 61.7164 134.788 61.5082 134.538 61.5082Z" fill="black"/>
<path opacity="0.2" d="M143.579 62.0916C143.579 62.3119 143.516 62.5273 143.397 62.7104C143.278 62.8936 143.109 63.0364 142.911 63.1207C142.714 63.205 142.496 63.227 142.286 63.1841C142.076 63.1411 141.883 63.035 141.732 62.8792C141.581 62.7235 141.478 62.525 141.436 62.3089C141.394 62.0929 141.416 61.8689 141.497 61.6654C141.579 61.4619 141.718 61.2879 141.896 61.1656C142.074 61.0432 142.283 60.9778 142.497 60.9778C142.784 60.9778 143.059 61.0952 143.262 61.3041C143.465 61.5129 143.579 61.7962 143.579 62.0916Z" fill="black"/>
<path d="M143.246 62.0916C143.246 62.2441 143.202 62.3932 143.12 62.52C143.038 62.6468 142.921 62.7457 142.784 62.804C142.647 62.8624 142.496 62.8777 142.351 62.8479C142.206 62.8182 142.072 62.7447 141.967 62.6369C141.863 62.529 141.791 62.3916 141.762 62.2421C141.734 62.0925 141.748 61.9374 141.805 61.7965C141.862 61.6556 141.958 61.5352 142.081 61.4505C142.204 61.3657 142.349 61.3205 142.497 61.3205C142.696 61.3205 142.886 61.4018 143.027 61.5464C143.167 61.691 143.246 61.8871 143.246 62.0916Z" fill="white"/>
<path opacity="0.4" d="M156.525 61.4797H146.037C145.787 61.4797 145.585 61.6879 145.585 61.9448V62.2344C145.585 62.4913 145.787 62.6995 146.037 62.6995H156.525C156.775 62.6995 156.977 62.4913 156.977 62.2344V61.9448C156.977 61.6879 156.775 61.4797 156.525 61.4797Z" fill="black"/>
<path opacity="0.4" d="M93.3533 74.7842C94.6427 74.7842 95.688 73.7083 95.688 72.3811C95.688 71.0539 94.6427 69.9781 93.3533 69.9781C92.0638 69.9781 91.0186 71.0539 91.0186 72.3811C91.0186 73.7083 92.0638 74.7842 93.3533 74.7842Z" fill="black"/>
<path d="M94.0264 72.9645V73.3072H92.6906V73.0298L93.3724 72.3648C93.5309 72.2098 93.5587 72.1159 93.5587 72.0302C93.5587 71.9446 93.4636 71.8018 93.2733 71.8018C93.2025 71.7993 93.1323 71.8147 93.0687 71.8467C93.0051 71.8787 92.9501 71.9264 92.9086 71.9854L92.6113 71.7854C92.6924 71.6741 92.7987 71.5851 92.9211 71.526C93.0434 71.467 93.178 71.4398 93.3129 71.4468C93.7093 71.4468 93.9709 71.6549 93.9709 71.9854C93.9687 72.0985 93.9406 72.2095 93.8889 72.3095C93.8373 72.4094 93.7635 72.4954 93.6737 72.5606L93.2773 72.9686L94.0264 72.9645Z" fill="white"/>
<path opacity="0.4" d="M159.994 70.0637H97.8835C97.634 70.0637 97.4316 70.272 97.4316 70.5288V70.8185C97.4316 71.0754 97.634 71.2836 97.8835 71.2836H159.994C160.243 71.2836 160.446 71.0754 160.446 70.8185V70.5288C160.446 70.272 160.243 70.0637 159.994 70.0637Z" fill="black"/>
<path opacity="0.4" d="M109.688 73.2297H97.8835C97.634 73.2297 97.4316 73.438 97.4316 73.6948V73.9845C97.4316 74.2414 97.634 74.4496 97.8835 74.4496H109.688C109.938 74.4496 110.14 74.2414 110.14 73.9845V73.6948C110.14 73.438 109.938 73.2297 109.688 73.2297Z" fill="black"/>
<path opacity="0.2" d="M98.5187 80.3736C99.1163 80.3736 99.6008 79.8749 99.6008 79.2598C99.6008 78.6446 99.1163 78.146 98.5187 78.146C97.921 78.146 97.4365 78.6446 97.4365 79.2598C97.4365 79.8749 97.921 80.3736 98.5187 80.3736Z" fill="black"/>
<path d="M98.5177 80.0309C98.9315 80.0309 99.2669 79.6856 99.2669 79.2598C99.2669 78.8339 98.9315 78.4887 98.5177 78.4887C98.104 78.4887 97.7686 78.8339 97.7686 79.2598C97.7686 79.6856 98.104 80.0309 98.5177 80.0309Z" fill="white"/>
<path opacity="0.4" d="M112.543 78.6519H102.054C101.805 78.6519 101.603 78.8601 101.603 79.117V79.4067C101.603 79.6636 101.805 79.8718 102.054 79.8718H112.543C112.792 79.8718 112.995 79.6636 112.995 79.4067V79.117C112.995 78.8601 112.792 78.6519 112.543 78.6519Z" fill="black"/>
<path opacity="0.2" d="M120.506 80.3491C121.104 80.3491 121.588 79.8504 121.588 79.2353C121.588 78.6201 121.104 78.1215 120.506 78.1215C119.908 78.1215 119.424 78.6201 119.424 79.2353C119.424 79.8504 119.908 80.3491 120.506 80.3491Z" fill="black"/>
<path d="M120.506 80.0064C120.92 80.0064 121.255 79.6611 121.255 79.2353C121.255 78.8094 120.92 78.4642 120.506 78.4642C120.092 78.4642 119.757 78.8094 119.757 79.2353C119.757 79.6611 120.092 80.0064 120.506 80.0064Z" fill="white"/>
<path opacity="0.4" d="M134.538 78.6233H124.046C123.796 78.6233 123.594 78.8315 123.594 79.0884V79.3781C123.594 79.6349 123.796 79.8432 124.046 79.8432H134.538C134.788 79.8432 134.99 79.6349 134.99 79.3781V79.0884C134.99 78.8315 134.788 78.6233 134.538 78.6233Z" fill="black"/>
<path opacity="0.2" d="M143.579 79.2108C143.579 79.4311 143.516 79.6464 143.397 79.8296C143.278 80.0128 143.109 80.1555 142.911 80.2398C142.714 80.3241 142.496 80.3462 142.286 80.3032C142.076 80.2602 141.883 80.1541 141.732 79.9984C141.581 79.8426 141.478 79.6441 141.436 79.4281C141.394 79.212 141.416 78.9881 141.497 78.7846C141.579 78.581 141.718 78.4071 141.896 78.2847C142.074 78.1623 142.283 78.097 142.497 78.097C142.784 78.097 143.059 78.2143 143.262 78.4232C143.465 78.6321 143.579 78.9154 143.579 79.2108Z" fill="black"/>
<path d="M143.246 79.2108C143.246 79.3633 143.202 79.5124 143.12 79.6392C143.038 79.766 142.921 79.8648 142.784 79.9232C142.647 79.9816 142.496 79.9968 142.351 79.9671C142.206 79.9373 142.072 79.8639 141.967 79.756C141.863 79.6482 141.791 79.5108 141.762 79.3612C141.734 79.2117 141.748 79.0566 141.805 78.9157C141.862 78.7748 141.958 78.6544 142.081 78.5697C142.204 78.4849 142.349 78.4397 142.497 78.4397C142.696 78.4397 142.886 78.5209 143.027 78.6655C143.167 78.8102 143.246 79.0063 143.246 79.2108Z" fill="#CA6035"/>
<path opacity="0.4" d="M156.525 78.5988H146.037C145.787 78.5988 145.585 78.8071 145.585 79.0639V79.3536C145.585 79.6105 145.787 79.8187 146.037 79.8187H156.525C156.775 79.8187 156.977 79.6105 156.977 79.3536V79.0639C156.977 78.8071 156.775 78.5988 156.525 78.5988Z" fill="black"/>
<path opacity="0.4" d="M93.3533 92.4337C92.8915 92.4337 92.4401 92.2928 92.0562 92.0287C91.6722 91.7647 91.373 91.3894 91.1963 90.9503C91.0196 90.5112 90.9733 90.028 91.0634 89.5619C91.1535 89.0957 91.3759 88.6675 91.7024 88.3315C92.0289 87.9954 92.4449 87.7665 92.8978 87.6738C93.3507 87.5811 93.8201 87.6287 94.2467 87.8105C94.6734 87.9924 95.038 88.3004 95.2945 88.6956C95.5511 89.0908 95.688 89.5554 95.688 90.0307C95.688 90.668 95.442 91.2792 95.0042 91.7299C94.5663 92.1805 93.9725 92.4337 93.3533 92.4337Z" fill="black"/>
<path d="M94.0107 90.3693C94.0107 90.6753 93.7808 90.9568 93.2774 90.9568C93.0388 90.9626 92.8039 90.8943 92.6035 90.7609L92.7621 90.4386C92.9095 90.5453 93.0853 90.6023 93.2655 90.6018C93.4716 90.6018 93.5985 90.5162 93.5985 90.3693C93.5985 90.2224 93.4994 90.1449 93.2655 90.1449H93.0792V89.8674L93.4439 89.4595H92.6907V89.1208H93.9433V89.3942L93.5469 89.8634C93.6717 89.8726 93.7887 89.9296 93.8746 90.0233C93.9604 90.117 94.009 90.2405 94.0107 90.3693Z" fill="white"/>
<path opacity="0.4" d="M159.994 87.697H97.8835C97.634 87.697 97.4316 87.9052 97.4316 88.1621V88.4517C97.4316 88.7086 97.634 88.9168 97.8835 88.9168H159.994C160.243 88.9168 160.446 88.7086 160.446 88.4517V88.1621C160.446 87.9052 160.243 87.697 159.994 87.697Z" fill="black"/>
<path opacity="0.4" d="M159.994 90.8629H97.8835C97.634 90.8629 97.4316 91.0712 97.4316 91.3281V91.6177C97.4316 91.8746 97.634 92.0828 97.8835 92.0828H159.994C160.243 92.0828 160.446 91.8746 160.446 91.6177V91.3281C160.446 91.0712 160.243 90.8629 159.994 90.8629Z" fill="black"/>
<path opacity="0.4" d="M128.996 94.033H97.8835C97.634 94.033 97.4316 94.2412 97.4316 94.4981V94.7878C97.4316 95.0447 97.634 95.2529 97.8835 95.2529H128.996C129.246 95.2529 129.448 95.0447 129.448 94.7878V94.4981C129.448 94.2412 129.246 94.033 128.996 94.033Z" fill="black"/>
<path opacity="0.4" d="M121.43 99.0757H119.582C119.495 99.0757 119.424 99.1488 119.424 99.2389V101.14C119.424 101.23 119.495 101.303 119.582 101.303H121.43C121.517 101.303 121.588 101.23 121.588 101.14V99.2389C121.588 99.1488 121.517 99.0757 121.43 99.0757Z" fill="black"/>
<path d="M121.33 101.038V99.3451H119.685V101.038H121.33Z" fill="white"/>
<path opacity="0.4" d="M134.538 99.5816H124.046C123.796 99.5816 123.594 99.7899 123.594 100.047V100.336C123.594 100.593 123.796 100.802 124.046 100.802H134.538C134.788 100.802 134.99 100.593 134.99 100.336V100.047C134.99 99.7899 134.788 99.5816 134.538 99.5816Z" fill="black"/>
<path d="M120.418 100.679C120.406 100.679 120.393 100.677 120.382 100.672C120.37 100.667 120.36 100.66 120.351 100.651L119.954 100.267C119.936 100.247 119.926 100.221 119.926 100.194C119.926 100.166 119.936 100.14 119.954 100.12C119.964 100.11 119.975 100.102 119.987 100.097C119.999 100.092 120.013 100.089 120.026 100.089C120.039 100.089 120.052 100.092 120.065 100.097C120.077 100.102 120.088 100.11 120.097 100.12L120.434 100.434L121.009 99.7326C121.026 99.7115 121.05 99.6982 121.076 99.6955C121.103 99.6928 121.129 99.701 121.15 99.7183C121.17 99.7356 121.183 99.7606 121.186 99.7878C121.188 99.815 121.18 99.8421 121.163 99.8632L120.501 100.642C120.484 100.662 120.46 100.675 120.434 100.679H120.418Z" fill="#CA6035"/>
<path opacity="0.4" d="M143.421 99.0512H141.574C141.486 99.0512 141.415 99.1243 141.415 99.2144V101.116C141.415 101.206 141.486 101.279 141.574 101.279H143.421C143.508 101.279 143.579 101.206 143.579 101.116V99.2144C143.579 99.1243 143.508 99.0512 143.421 99.0512Z" fill="black"/>
<path d="M143.317 101.014V99.3206H141.672V101.014H143.317Z" fill="white"/>
<path opacity="0.4" d="M156.525 99.5531H146.037C145.787 99.5531 145.585 99.7613 145.585 100.018V100.308C145.585 100.565 145.787 100.773 146.037 100.773H156.525C156.775 100.773 156.977 100.565 156.977 100.308V100.018C156.977 99.7613 156.775 99.5531 156.525 99.5531Z" fill="black"/>
<path d="M142.41 100.655C142.385 100.653 142.361 100.643 142.342 100.626L141.946 100.238C141.934 100.23 141.925 100.219 141.918 100.207C141.911 100.194 141.906 100.18 141.905 100.165C141.903 100.151 141.905 100.136 141.91 100.122C141.914 100.109 141.922 100.096 141.931 100.085C141.941 100.075 141.953 100.066 141.966 100.061C141.979 100.055 141.993 100.053 142.007 100.053C142.022 100.054 142.035 100.058 142.048 100.064C142.061 100.071 142.072 100.08 142.081 100.092L142.414 100.406L142.992 99.704C143 99.6921 143.01 99.6819 143.022 99.6742C143.034 99.6666 143.047 99.6615 143.061 99.6595C143.075 99.6575 143.089 99.6585 143.102 99.6624C143.116 99.6664 143.128 99.6732 143.139 99.6825C143.15 99.6917 143.158 99.7032 143.164 99.7161C143.17 99.7291 143.174 99.7432 143.174 99.7575C143.174 99.7719 143.172 99.7862 143.167 99.7995C143.161 99.8127 143.153 99.8247 143.143 99.8346L142.501 100.618C142.482 100.638 142.457 100.651 142.43 100.655H142.41Z" fill="#CA6035"/>
<path opacity="0.4" d="M99.4374 99.1002H97.5902C97.5026 99.1002 97.4316 99.1733 97.4316 99.2634V101.165C97.4316 101.255 97.5026 101.328 97.5902 101.328H99.4374C99.5249 101.328 99.5959 101.255 99.5959 101.165V99.2634C99.5959 99.1733 99.5249 99.1002 99.4374 99.1002Z" fill="black"/>
<path d="M99.3389 101.063V99.3695H97.6939V101.063H99.3389Z" fill="white"/>
<path opacity="0.4" d="M112.543 99.6062H102.054C101.805 99.6062 101.603 99.8144 101.603 100.071V100.361C101.603 100.618 101.805 100.826 102.054 100.826H112.543C112.792 100.826 112.995 100.618 112.995 100.361V100.071C112.995 99.8144 112.792 99.6062 112.543 99.6062Z" fill="black"/>
<path d="M93.7252 40.6682C93.7077 40.3558 93.7818 40.0451 93.9378 39.7765C94.0938 39.5079 94.3246 39.2938 94.6003 39.1617C94.8759 39.0297 95.1838 38.9859 95.4839 39.036C95.784 39.0861 96.0626 39.2278 96.2836 39.4427C96.5046 39.6577 96.6577 39.936 96.7233 40.2415C96.7888 40.5471 96.7637 40.8659 96.6512 41.1566C96.5387 41.4474 96.344 41.6966 96.0923 41.8721C95.8405 42.0476 95.5434 42.1413 95.2394 42.141C95.0446 42.1527 94.8495 42.1233 94.6662 42.0545C94.4828 41.9857 94.3151 41.8791 94.1733 41.7411C94.0315 41.6032 93.9185 41.4368 93.8415 41.2523C93.7644 41.0678 93.7248 40.869 93.7252 40.6682ZM96.1035 40.6682C96.1004 40.4922 96.0468 40.3211 95.9496 40.1763C95.8523 40.0315 95.7156 39.9196 95.5568 39.8544C95.3979 39.7893 95.2239 39.7739 95.0565 39.8102C94.8892 39.8465 94.736 39.9329 94.6162 40.0584C94.4964 40.184 94.4152 40.3432 94.383 40.5161C94.3508 40.689 94.3689 40.8678 94.435 41.0301C94.5012 41.1924 94.6124 41.331 94.7548 41.4285C94.8972 41.5259 95.0644 41.578 95.2354 41.578C95.3519 41.5815 95.4678 41.5602 95.5759 41.5156C95.684 41.4709 95.782 41.4038 95.8638 41.3184C95.9456 41.2331 96.0095 41.1313 96.0514 41.0194C96.0933 40.9075 96.1124 40.788 96.1075 40.6682H96.1035Z" fill="white"/>
<path d="M99.3665 40.8396V42.0921H98.7521V40.9375C98.7521 40.5825 98.5936 40.4193 98.3201 40.4193C98.0466 40.4193 97.8087 40.607 97.8087 41.0109V42.0921H97.1943V39.9012H97.781V40.1582C97.8724 40.0618 97.9824 39.9863 98.1039 39.9364C98.2255 39.8865 98.3558 39.8634 98.4866 39.8686C98.6098 39.8601 98.7333 39.88 98.8482 39.9268C98.963 39.9736 99.0663 40.0461 99.1505 40.139C99.2348 40.232 99.2979 40.3431 99.3352 40.4642C99.3726 40.5854 99.3833 40.7136 99.3665 40.8396Z" fill="white"/>
<path d="M99.9248 39.0729H100.539V42.092H99.9248V39.0729Z" fill="white"/>
<path d="M101.039 39.2443C101.04 39.1933 101.051 39.143 101.072 39.0967C101.093 39.0505 101.123 39.0092 101.16 38.9757C101.198 38.9423 101.241 38.9173 101.289 38.9024C101.336 38.8875 101.386 38.8831 101.435 38.8894C101.484 38.8818 101.533 38.885 101.58 38.8986C101.628 38.9123 101.671 38.9361 101.709 38.9685C101.746 39.001 101.777 39.0412 101.798 39.0867C101.819 39.1321 101.831 39.1817 101.832 39.2321C101.809 39.3185 101.759 39.3948 101.69 39.4492C101.621 39.5036 101.536 39.5331 101.449 39.5331C101.362 39.5331 101.278 39.5036 101.209 39.4492C101.139 39.3948 101.09 39.3185 101.067 39.2321L101.039 39.2443ZM101.114 39.9012H101.733V42.0921H101.114V39.9012Z" fill="white"/>
<path d="M104.48 40.8395V42.092H103.854V40.9374C103.854 40.5825 103.695 40.4193 103.422 40.4193C103.148 40.4193 102.914 40.607 102.914 41.0109V42.092H102.296V39.9011H102.887V40.1582C102.977 40.0617 103.086 39.986 103.207 39.9361C103.328 39.8862 103.458 39.8631 103.588 39.8685C103.712 39.8589 103.837 39.8779 103.953 39.9241C104.069 39.9703 104.173 40.0425 104.259 40.1356C104.344 40.2286 104.408 40.34 104.447 40.4618C104.485 40.5836 104.496 40.7126 104.48 40.8395Z" fill="white"/>
<path d="M107.131 41.1782H105.522C105.555 41.3141 105.634 41.4332 105.746 41.5135C105.857 41.5937 105.993 41.6297 106.128 41.6147C106.226 41.6185 106.324 41.602 106.416 41.5663C106.508 41.5306 106.592 41.4763 106.663 41.4067L106.992 41.7698C106.88 41.8915 106.743 41.9864 106.591 42.0477C106.439 42.109 106.275 42.1353 106.112 42.1247C105.959 42.14 105.805 42.1224 105.659 42.0728C105.513 42.0233 105.379 41.943 105.265 41.837C105.151 41.7311 105.059 41.6018 104.996 41.4575C104.933 41.3131 104.9 41.1569 104.899 40.9987C104.898 40.8463 104.926 40.6951 104.983 40.5545C105.04 40.4138 105.125 40.2867 105.231 40.1808C105.338 40.075 105.464 39.9927 105.603 39.939C105.741 39.8853 105.889 39.8613 106.037 39.8686C106.184 39.8609 106.331 39.8852 106.469 39.9397C106.606 39.9942 106.731 40.0778 106.836 40.1851C106.94 40.2923 107.021 40.4209 107.074 40.5624C107.127 40.7039 107.15 40.8553 107.143 41.0068C107.143 41.0558 107.135 41.1252 107.131 41.1782ZM105.514 40.8069H106.56C106.539 40.6802 106.475 40.5653 106.379 40.4825C106.283 40.3997 106.162 40.3543 106.037 40.3543C105.912 40.3543 105.791 40.3997 105.695 40.4825C105.6 40.5653 105.535 40.6802 105.514 40.8069Z" fill="white"/>
<path d="M109.288 39.7788H108.404V39.2443H110.814V39.7788H109.93V42.0921H109.288V39.7788Z" fill="white"/>
<path d="M112.97 41.1782H111.361C111.393 41.3141 111.473 41.4332 111.584 41.5134C111.696 41.5937 111.832 41.6297 111.967 41.6147C112.065 41.6185 112.163 41.602 112.255 41.5663C112.347 41.5305 112.431 41.4763 112.502 41.4066L112.831 41.7697C112.719 41.8915 112.582 41.9863 112.43 42.0477C112.278 42.109 112.114 42.1353 111.951 42.1247C111.798 42.14 111.644 42.1223 111.498 42.0728C111.352 42.0233 111.218 41.943 111.104 41.837C110.989 41.7311 110.898 41.6018 110.835 41.4574C110.772 41.3131 110.739 41.1568 110.738 40.9986C110.737 40.8466 110.765 40.6958 110.822 40.5554C110.879 40.4151 110.963 40.2881 111.069 40.1823C111.175 40.0765 111.301 39.9942 111.439 39.9402C111.577 39.8862 111.724 39.8619 111.872 39.8685C112.02 39.8603 112.167 39.8841 112.305 39.9384C112.443 39.9926 112.568 40.0761 112.673 40.1834C112.778 40.2908 112.859 40.4195 112.913 40.5613C112.966 40.7032 112.989 40.855 112.982 41.0068C112.97 41.0558 112.97 41.1251 112.97 41.1782ZM111.353 40.8069H112.399C112.378 40.6801 112.313 40.5653 112.218 40.4825C112.122 40.3997 112.001 40.3543 111.876 40.3543C111.751 40.3543 111.63 40.3997 111.534 40.4825C111.439 40.5653 111.374 40.6801 111.353 40.8069Z" fill="white"/>
<path d="M113.185 41.8881L113.391 41.4352C113.616 41.5697 113.871 41.6414 114.132 41.6433C114.417 41.6433 114.528 41.5658 114.528 41.4475C114.528 41.0884 113.24 41.4475 113.24 40.5784C113.24 40.1705 113.605 39.8685 114.227 39.8685C114.51 39.8629 114.791 39.9288 115.044 40.0603L114.838 40.5132C114.652 40.4032 114.441 40.3468 114.227 40.35C113.95 40.35 113.831 40.4397 113.831 40.554C113.831 40.9293 115.115 40.554 115.115 41.4311C115.115 41.8391 114.746 42.1247 114.112 42.1247C113.788 42.1317 113.468 42.0501 113.185 41.8881Z" fill="white"/>
<path d="M116.863 41.986C116.712 42.0833 116.537 42.1316 116.359 42.1247C116.254 42.1402 116.147 42.1308 116.047 42.0974C115.946 42.064 115.854 42.0074 115.777 41.9319C115.701 41.8564 115.642 41.764 115.606 41.6617C115.569 41.5594 115.556 41.4499 115.566 41.3414V40.4398H115.237V39.9502H115.566V39.4198H116.181V39.9502H116.712V40.4398H116.181V41.3332C116.176 41.3709 116.179 41.4092 116.191 41.4453C116.202 41.4814 116.221 41.5144 116.247 41.5418C116.272 41.5692 116.303 41.5904 116.338 41.6037C116.373 41.6171 116.41 41.6222 116.446 41.6188C116.536 41.62 116.623 41.5914 116.696 41.5372L116.863 41.986Z" fill="white"/>
<path d="M158.905 43.3669C160.133 42.1034 160.133 40.0549 158.905 38.7914C157.678 37.5279 155.688 37.5279 154.46 38.7914C153.232 40.0549 153.232 42.1034 154.46 43.3669C155.688 44.6304 157.678 44.6304 158.905 43.3669Z" fill="white"/>
<path opacity="0.2" d="M159.467 39.5748L156.692 41.0843V37.849C157.264 37.85 157.824 38.0112 158.313 38.3153C158.801 38.6194 159.201 39.0548 159.467 39.5748Z" fill="black"/>
<path d="M150.783 140.666C150.783 140.666 152.495 132.331 149.375 127.819C146.256 123.306 152.194 127.765 152.88 131.992C152.88 131.992 153.902 124.436 150.874 119.124C147.845 113.812 153.51 118.17 153.993 123.649C153.993 123.649 154.921 116.909 153.53 113.119C152.138 109.329 154.556 111.768 155.488 114.143C156.419 116.517 155.198 122.396 155.198 122.396C155.198 122.396 157.624 111.523 159.923 112.388C162.222 113.253 156.487 120.377 155.694 124.081C155.694 124.081 158.401 119.096 160.451 120.136C162.5 121.176 157.279 121.691 154.869 129.112L154.033 132.596C154.033 132.596 156.526 127.676 158.155 129.23C159.785 130.785 153.324 133.461 151.813 140.919L150.783 140.666Z" fill="#263238"/>
<path d="M151.119 141.164C151.119 141.164 151.476 130.658 156.522 126.211C161.568 121.764 153.161 125.285 151.119 130.136C151.119 130.136 152.079 120.773 157.24 115.334C162.401 109.896 154.358 113.388 152.198 119.797C152.198 119.797 153.038 111.442 155.801 107.333C158.564 103.225 154.96 105.396 153.161 107.954C151.361 110.512 151.119 117.908 151.119 117.908C151.119 117.908 151.357 104.143 148.345 104.478C145.332 104.812 150.144 115.085 150.025 119.777C150.025 119.777 148.222 112.976 145.463 113.588C142.704 114.2 148.824 116.444 149.546 126.064V130.499C149.546 130.499 147.984 123.841 145.582 125.195C143.18 126.55 150.144 131.747 149.784 141.139L151.119 141.164Z" fill="#263238"/>
<path opacity="0.2" d="M151.119 141.164C151.119 141.164 151.476 130.658 156.522 126.211C161.568 121.764 153.161 125.285 151.119 130.136C151.119 130.136 152.079 120.773 157.24 115.334C162.401 109.896 154.358 113.388 152.198 119.797C152.198 119.797 153.038 111.442 155.801 107.333C158.564 103.225 154.96 105.396 153.161 107.954C151.361 110.512 151.119 117.908 151.119 117.908C151.119 117.908 151.357 104.143 148.345 104.478C145.332 104.812 150.144 115.085 150.025 119.777C150.025 119.777 148.222 112.976 145.463 113.588C142.704 114.2 148.824 116.444 149.546 126.064V130.499C149.546 130.499 147.984 123.841 145.582 125.195C143.18 126.55 150.144 131.747 149.784 141.139L151.119 141.164Z" fill="white"/>
<path d="M153.609 148.544H147.496C146.34 148.544 145.231 148.071 144.413 147.23C143.595 146.388 143.136 145.247 143.136 144.056V143.212H157.965V144.056C157.965 145.246 157.506 146.387 156.689 147.228C155.872 148.07 154.764 148.543 153.609 148.544Z" fill="#CA6035"/>
<path d="M142.867 144.905H158.239C159.161 144.905 159.908 144.136 159.908 143.187V141.849C159.908 140.901 159.161 140.132 158.239 140.132H142.867C141.946 140.132 141.199 140.901 141.199 141.849V143.187C141.199 144.136 141.946 144.905 142.867 144.905Z" fill="#CA6035"/>
<path opacity="0.2" d="M142.867 144.905H158.239C159.161 144.905 159.908 144.136 159.908 143.187V141.849C159.908 140.901 159.161 140.132 158.239 140.132H142.867C141.946 140.132 141.199 140.901 141.199 141.849V143.187C141.199 144.136 141.946 144.905 142.867 144.905Z" fill="white"/>
<path d="M68.0647 91.1731C68.0093 91.291 67.9854 91.422 67.9954 91.5525C68.0053 91.6831 68.0489 91.8086 68.1215 91.9161C68.1941 92.0236 68.2932 92.1094 68.4086 92.1645C68.524 92.2196 68.6516 92.2422 68.7782 92.2298H87.5512C87.8633 92.2143 88.1644 92.1064 88.4182 91.9189C88.6721 91.7314 88.8679 91.4725 88.9822 91.1731L92.946 79.3823C92.9855 79.2726 93.0057 79.1565 93.0055 79.0396C93.0049 78.9389 92.9839 78.8395 92.9438 78.7477C92.9036 78.6559 92.8453 78.5738 92.7725 78.5065C92.6997 78.4393 92.6141 78.3885 92.5211 78.3573C92.4281 78.3262 92.3298 78.3154 92.2325 78.3256H73.4715C73.1594 78.3411 72.8583 78.449 72.6044 78.6365C72.3506 78.824 72.1547 79.083 72.0405 79.3823L68.0647 91.1731Z" fill="#263238"/>
<path d="M87.6936 91.6382C87.8467 91.6309 87.9945 91.578 88.119 91.4861C88.2435 91.3941 88.3395 91.267 88.3952 91.1201L92.3591 79.3292C92.3757 79.2822 92.3838 79.2324 92.3829 79.1823C92.3829 79.0191 92.2679 78.9171 92.0856 78.9171H73.3325C73.1794 78.9245 73.0316 78.9773 72.9071 79.0693C72.7826 79.1612 72.6866 79.2884 72.6309 79.4353L68.667 91.2261C68.6467 91.2737 68.6379 91.3257 68.6414 91.3775C68.6448 91.4294 68.6604 91.4796 68.6868 91.524C68.7164 91.5633 68.7552 91.5944 68.7995 91.6143C68.8438 91.6343 68.8923 91.6425 68.9405 91.6382H87.6936Z" fill="#CA6035"/>
<path opacity="0.8" d="M87.6936 91.6382C87.8467 91.6309 87.9945 91.578 88.119 91.4861C88.2435 91.3941 88.3395 91.267 88.3952 91.1201L92.3591 79.3292C92.3757 79.2822 92.3838 79.2324 92.3829 79.1823C92.3829 79.0191 92.2679 78.9171 92.0856 78.9171H73.3325C73.1794 78.9245 73.0316 78.9773 72.9071 79.0693C72.7826 79.1612 72.6866 79.2884 72.6309 79.4353L68.667 91.2261C68.6467 91.2737 68.6379 91.3257 68.6414 91.3775C68.6448 91.4294 68.6604 91.4796 68.6868 91.524C68.7164 91.5633 68.7552 91.5944 68.7995 91.6143C68.8438 91.6343 68.8923 91.6425 68.9405 91.6382H87.6936Z" fill="white"/>
<path d="M60.0293 91.3567V91.8993L63.7474 92.8826H87.4634C87.6389 92.8826 87.8073 92.8108 87.9314 92.683C88.0556 92.5552 88.1253 92.3819 88.1253 92.2012V91.3567H60.0293Z" fill="#263238"/>
<path opacity="0.2" d="M79.8725 91.3567V91.8993L83.5946 92.8826H63.7474L60.0293 91.8993V91.3567H79.8725Z" fill="white"/>
<g opacity="0.2">
<path d="M91.1773 81.6874H72.2021L72.9394 79.5577H91.9146L91.1773 81.6874Z" fill="#CA6035"/>
</g>
<g opacity="0.1">
<path d="M90.2266 84.4291H71.2514C71.196 84.4291 71.1682 84.3842 71.188 84.323C71.1988 84.2942 71.2171 84.2691 71.2409 84.2504C71.2647 84.2317 71.293 84.2201 71.3228 84.2169H90.3019C90.3534 84.2169 90.3812 84.2659 90.3613 84.323C90.3518 84.3526 90.3339 84.3785 90.3099 84.3974C90.2858 84.4163 90.2568 84.4274 90.2266 84.4291Z" fill="black"/>
</g>
<g opacity="0.1">
<path d="M89.1885 87.4196H70.2134C70.1579 87.4196 70.1301 87.3707 70.1499 87.3136C70.161 87.2842 70.1799 87.2587 70.2045 87.24C70.229 87.2212 70.2582 87.21 70.2887 87.2075H89.2638C89.3193 87.2075 89.347 87.2524 89.3272 87.3136C89.3161 87.3429 89.2972 87.3684 89.2727 87.3872C89.2481 87.4059 89.219 87.4172 89.1885 87.4196Z" fill="black"/>
</g>
<g opacity="0.1">
<path d="M88.1533 90.4102H69.1782C69.1227 90.4102 69.095 90.3612 69.1148 90.3041C69.1241 90.2741 69.1419 90.2476 69.1659 90.2279C69.1899 90.2083 69.219 90.1965 69.2496 90.194H88.2247C88.2802 90.194 88.3079 90.2429 88.2881 90.3041C88.2777 90.3331 88.2595 90.3585 88.2357 90.3773C88.2118 90.396 88.1833 90.4075 88.1533 90.4102Z" fill="black"/>
</g>
<path d="M81.8428 148.495H83.908L87.6221 95.2775H84.8791L81.8428 148.495Z" fill="#263238"/>
<path opacity="0.2" d="M81.8389 148.495H83.908L87.4398 97.9213L87.6222 95.3632H84.8792L84.7325 97.9213L81.8389 148.495Z" fill="white"/>
<path opacity="0.2" d="M84.7324 97.7948H87.4398L87.6221 95.3632H84.8791L84.7324 97.7948Z" fill="black"/>
<path d="M66.6729 148.495H68.7381L69.075 95.2775H66.3359L66.6729 148.495Z" fill="#263238"/>
<path opacity="0.3" d="M66.332 95.3632L66.3875 103.947L66.669 148.495H68.7381L69.0235 103.947L69.075 95.3632H66.332Z" fill="white"/>
<path opacity="0.2" d="M66.332 95.3632L66.3875 104.045H69.0235L69.075 95.3632H66.332Z" fill="black"/>
<path d="M44.7285 148.495H46.7937L50.5079 95.2775H47.7649L44.7285 148.495Z" fill="#263238"/>
<path opacity="0.3" d="M44.7285 148.495H46.7937L50.3295 97.9213L50.5079 95.3632H47.7649L47.6182 97.9213L44.7285 148.495Z" fill="white"/>
<path opacity="0.2" d="M47.6191 97.7948H50.3304L50.5088 95.3632H47.7658L47.6191 97.7948Z" fill="black"/>
<path d="M105.488 148.495H107.553L104.516 95.2775H101.773L105.488 148.495Z" fill="#263238"/>
<path opacity="0.3" d="M101.773 95.3632L101.956 97.9213L105.488 148.495H107.553L104.663 97.9213L104.516 95.3632H101.773Z" fill="white"/>
<path opacity="0.2" d="M104.516 95.3632H101.773L101.956 97.7948H104.663L104.516 95.3632Z" fill="black"/>
<path d="M105.832 96.6116L46.4452 96.6116C46.3328 96.6116 46.2214 96.5888 46.1176 96.5445C46.0137 96.5002 45.9193 96.4353 45.8398 96.3535C45.7603 96.2716 45.6972 96.1745 45.6542 96.0676C45.6112 95.9606 45.589 95.8461 45.589 95.7303V93.9474L106.696 93.9474V95.7303C106.696 95.8467 106.674 95.962 106.63 96.0695C106.587 96.1769 106.523 96.2744 106.443 96.3564C106.362 96.4383 106.267 96.5031 106.162 96.5469C106.057 96.5907 105.945 96.6127 105.832 96.6116Z" fill="#CA6035"/>
<path opacity="0.2" d="M45.5931 95.2775L106.688 95.2775V93.9433L45.5931 93.9433V95.2775Z" fill="black"/>
<path d="M44.3124 94.2901H107.968C108.162 94.2901 108.347 94.211 108.484 94.0703C108.621 93.9295 108.698 93.7385 108.698 93.5394C108.698 93.3403 108.621 93.1494 108.484 93.0086C108.347 92.8678 108.162 92.7887 107.968 92.7887H44.3124C44.1189 92.7887 43.9334 92.8678 43.7966 93.0086C43.6599 93.1494 43.583 93.3403 43.583 93.5394C43.583 93.7385 43.6599 93.9295 43.7966 94.0703C43.9334 94.211 44.1189 94.2901 44.3124 94.2901Z" fill="#CA6035"/>
<path d="M105.936 90.8997C105.963 91.5475 105.848 92.1934 105.599 92.7887H91.0947V92.4338H91.3881V89.3494H91.0947V88.9944H105.599C105.847 89.596 105.962 90.2468 105.936 90.8997Z" fill="#263238"/>
<path opacity="0.2" d="M105.936 90.8997C105.963 91.5475 105.848 92.1934 105.599 92.7887H91.0947V92.4338H91.3881V89.3494H91.0947V88.9944H105.599C105.847 89.596 105.962 90.2468 105.936 90.8997Z" fill="white"/>
<path opacity="0.2" d="M98.1742 90.8997C98.2021 91.5475 98.0869 92.1934 97.8372 92.7887H91.0986V92.4338H91.392V89.3494H91.0986V88.9944H97.8372C98.0854 89.596 98.2005 90.2468 98.1742 90.8997Z" fill="black"/>
<path opacity="0.8" d="M97.4604 90.8997C97.4833 91.4258 97.3897 91.9503 97.1869 92.4338H91.3877V89.3494H97.1869C97.3882 89.839 97.4816 90.3685 97.4604 90.8997Z" fill="white"/>
<path opacity="0.6" d="M103.573 90.8998C103.601 91.5475 103.486 92.1934 103.237 92.7887H100.537C100.787 92.1934 100.902 91.5475 100.874 90.8998C100.899 90.2509 100.784 89.6045 100.537 89.0067H103.237C103.483 89.6045 103.598 90.2509 103.573 90.8998Z" fill="white"/>
<path d="M107.228 87.1177C107.255 87.7655 107.14 88.4113 106.891 89.0067H92.3867V88.6517H92.68V85.5796H92.3867V85.2246H106.891C107.136 85.8226 107.251 86.4689 107.228 87.1177Z" fill="#CA6035"/>
<path opacity="0.2" d="M99.4662 87.1177C99.4941 87.7655 99.3789 88.4113 99.1292 89.0067H92.3906V88.6517H92.684V85.5796H92.3906V85.2246H99.1292C99.3749 85.8226 99.49 86.4689 99.4662 87.1177Z" fill="black"/>
<path opacity="0.8" d="M98.7533 87.1177C98.7762 87.6438 98.6827 88.1683 98.4798 88.6517H92.6807V85.5796H98.4798C98.6794 86.0655 98.7728 86.5906 98.7533 87.1177Z" fill="white"/>
<path opacity="0.2" d="M104.864 87.1177C104.892 87.7655 104.777 88.4113 104.528 89.0067H101.828C102.078 88.4113 102.193 87.7655 102.165 87.1177C102.189 86.4689 102.074 85.8226 101.828 85.2246H104.528C104.773 85.8226 104.888 86.4689 104.864 87.1177Z" fill="black"/>
<path d="M58.5664 139.397L57.2901 145.476L54.2656 145.423L55.5301 139.397H58.5664Z" fill="#EBB376"/>
<path opacity="0.2" d="M58.5704 139.397L57.9362 142.404L54.9395 142.196L55.5301 139.397H58.5704Z" fill="black"/>
<path d="M57.7463 145.321H57.8097C57.8097 145.321 57.8771 145.346 57.885 145.354C57.885 145.354 57.8929 145.362 57.885 145.354C57.8887 145.356 57.8928 145.357 57.8969 145.357C57.901 145.357 57.9051 145.356 57.9088 145.354C58.1662 145.439 58.4322 145.494 58.7016 145.517C58.9008 145.555 59.1065 145.512 59.2763 145.399C59.3322 145.35 59.3725 145.285 59.3923 145.212C59.4121 145.14 59.4103 145.062 59.3873 144.991C59.3818 144.944 59.3651 144.9 59.3388 144.861C59.3126 144.823 59.2775 144.792 59.2367 144.77C58.9471 144.721 58.6499 144.777 58.3963 144.93C58.5758 144.738 58.6815 144.486 58.6936 144.22C58.6825 144.157 58.6516 144.1 58.6058 144.057C58.5599 144.014 58.5016 143.988 58.4399 143.983C58.3813 143.972 58.3212 143.974 58.2633 143.988C58.2053 144.002 58.1508 144.028 58.103 144.065C57.7859 144.346 57.7344 145.227 57.7344 145.289L57.7463 145.321ZM58.0713 145.142L58.0119 145.178C57.9928 144.842 58.0819 144.507 58.2655 144.228C58.286 144.208 58.3103 144.192 58.3369 144.182C58.3636 144.173 58.3919 144.169 58.4201 144.171H58.4558C58.5549 144.171 58.5787 144.24 58.5787 144.285C58.5138 144.624 58.3339 144.927 58.0713 145.142ZM58.1149 145.297C58.4796 145.089 58.9989 144.864 59.1931 144.954C59.2127 144.964 59.2294 144.979 59.2419 144.998C59.2544 145.016 59.2621 145.038 59.2644 145.06C59.2754 145.105 59.275 145.153 59.2632 145.198C59.2514 145.243 59.2286 145.284 59.1971 145.317C59.0623 145.448 58.6659 145.44 58.1149 145.297Z" fill="#CA6035"/>
<path d="M57.6746 144.942L54.2855 144.726C54.2573 144.722 54.2288 144.725 54.2016 144.733C54.1744 144.741 54.1489 144.754 54.1268 144.772C54.1047 144.791 54.0863 144.813 54.0727 144.839C54.0591 144.864 54.0506 144.892 54.0476 144.921L53.7147 147.675C53.707 147.82 53.7545 147.962 53.8471 148.071C53.9397 148.18 54.0699 148.247 54.2102 148.259C55.3993 148.312 55.9622 148.279 57.4526 148.361C58.7769 148.506 60.1094 148.555 61.4403 148.508C62.7048 148.381 62.5502 147.096 62.0032 147.035C60.7109 146.884 58.9985 145.905 58.1859 145.162C58.0438 145.033 57.864 144.955 57.6746 144.942Z" fill="#263238"/>
<path d="M76.2726 139.397L74.9962 145.476L71.9678 145.423L73.2362 139.397H76.2726Z" fill="#EBB376"/>
<path opacity="0.2" d="M76.2725 139.397L75.6383 142.404L72.6416 142.196L73.2322 139.397H76.2725Z" fill="black"/>
<path d="M75.4484 145.321H75.5118C75.5118 145.321 75.5792 145.346 75.5911 145.354C75.5911 145.354 75.6029 145.362 75.5911 145.354C75.5948 145.356 75.5988 145.357 75.6029 145.357C75.6071 145.357 75.6111 145.356 75.6148 145.354C75.8723 145.439 76.1383 145.493 76.4076 145.517C76.6081 145.556 76.8154 145.513 76.9863 145.399C77.0415 145.349 77.0811 145.284 77.1001 145.212C77.1192 145.139 77.1168 145.062 77.0934 144.991C77.0889 144.944 77.0726 144.899 77.0463 144.86C77.0199 144.822 76.9842 144.791 76.9427 144.77C76.6532 144.721 76.356 144.777 76.1024 144.93C76.2812 144.737 76.388 144.486 76.4037 144.22C76.3911 144.157 76.3593 144.1 76.3129 144.057C76.2665 144.015 76.208 143.989 76.146 143.983C76.0874 143.973 76.0273 143.974 75.9694 143.988C75.9115 144.002 75.857 144.028 75.8091 144.065C75.492 144.346 75.4404 145.227 75.4404 145.289L75.4484 145.321ZM75.7734 145.142L75.7139 145.178C75.6969 144.842 75.7859 144.508 75.9676 144.228C75.9882 144.208 76.0126 144.193 76.0392 144.183C76.0657 144.173 76.094 144.169 76.1222 144.171H76.1579C76.257 144.171 76.2808 144.24 76.2847 144.285C76.2163 144.623 76.0354 144.926 75.7734 145.142ZM75.817 145.297C76.1817 145.089 76.7009 144.864 76.8952 144.954C76.9147 144.964 76.9315 144.979 76.944 144.998C76.9565 145.016 76.9642 145.038 76.9665 145.06C76.978 145.105 76.9782 145.152 76.9671 145.197C76.956 145.242 76.934 145.283 76.9031 145.317C76.7485 145.448 76.3521 145.44 75.817 145.297Z" fill="#CA6035"/>
<path d="M75.3767 144.942L71.9876 144.726C71.9595 144.722 71.931 144.725 71.9037 144.733C71.8765 144.741 71.8511 144.754 71.829 144.772C71.8068 144.791 71.7884 144.813 71.7749 144.839C71.7613 144.864 71.7527 144.892 71.7498 144.921L71.4168 147.675C71.4091 147.82 71.4567 147.962 71.5492 148.071C71.6418 148.18 71.7721 148.247 71.9123 148.259C73.1015 148.312 73.6643 148.279 75.1548 148.361C76.478 148.501 77.8091 148.546 79.1385 148.495C80.4029 148.369 80.2484 147.084 79.7053 147.023C78.4091 146.872 76.6967 145.892 75.8881 145.15C75.7443 145.025 75.5647 144.952 75.3767 144.942Z" fill="#263238"/>
<path d="M63.9931 127.827C62.8411 132.4 61.368 136.88 59.5852 141.233L54.0596 140.801C54.0596 140.801 56.3269 131.686 57.1474 123.339C57.6548 118.186 57.6112 113.923 56.1446 113.592C55.221 113.38 53.0646 113.388 50.2979 113.453V102.846C58.0591 104.478 65.7808 107.578 66.3674 110.059C67.188 113.555 65.753 120.948 63.9931 127.827Z" fill="#CA6035"/>
<path opacity="0.4" d="M63.9931 127.827C62.8411 132.4 61.368 136.88 59.5852 141.233L54.0596 140.801C54.0596 140.801 56.3269 131.686 57.1474 123.339C57.6548 118.186 57.6112 113.923 56.1446 113.592C55.221 113.38 53.0646 113.388 50.2979 113.453V102.846C58.0591 104.478 65.7808 107.578 66.3674 110.059C67.188 113.555 65.753 120.948 63.9931 127.827Z" fill="white"/>
<path opacity="0.2" d="M63.9931 127.827C61.9319 126.48 59.5179 124.901 57.1474 123.339C57.6548 118.186 57.6112 113.923 56.1446 113.592C55.221 113.38 53.0646 113.388 50.2979 113.453V102.846C58.0591 104.478 65.7808 107.578 66.3674 110.059C67.188 113.555 65.753 120.948 63.9931 127.827Z" fill="black"/>
<path d="M60.9722 101.805L61.4598 97.7784L45.6439 95.098C45.6439 95.098 40.471 105.669 43.0039 110.818C45.3228 115.559 70.0416 112.735 73.8469 113.588C77.6523 114.441 71.7461 140.797 71.7461 140.797L77.2955 141.233C77.2955 141.233 85.8337 117.521 84.0777 110.063C83.3048 106.811 70.2715 102.503 60.9722 101.805Z" fill="#CA6035"/>
<path opacity="0.6" d="M60.9722 101.805L61.4598 97.7784L45.6439 95.098C45.6439 95.098 40.471 105.669 43.0039 110.818C45.3228 115.559 70.0416 112.735 73.8469 113.588C77.6523 114.441 71.7461 140.797 71.7461 140.797L77.2955 141.233C77.2955 141.233 85.8337 117.521 84.0777 110.063C83.3048 106.811 70.2715 102.503 60.9722 101.805Z" fill="white"/>
<path d="M69.6726 69.0479C69.5378 69.2886 69.5537 69.562 69.7083 69.6518C69.8629 69.7415 70.1046 69.6191 70.2275 69.3743C70.3504 69.1295 70.3464 68.8643 70.1958 68.7705C70.0452 68.6767 69.8193 68.8154 69.6726 69.0479Z" fill="#263238"/>
<path d="M69.4235 67.7464C69.3909 67.73 69.3634 67.7046 69.3442 67.673C69.3291 67.6328 69.3293 67.5882 69.3447 67.5481C69.3601 67.508 69.3897 67.4754 69.4274 67.4567C69.658 67.3484 69.9104 67.2986 70.1635 67.3113C70.4166 67.3241 70.6631 67.3992 70.8822 67.5302C70.9168 67.5529 70.9415 67.5885 70.9512 67.6296C70.9608 67.6707 70.9545 67.714 70.9337 67.7505C70.9096 67.7862 70.873 67.8108 70.8316 67.8192C70.7901 67.8276 70.7472 67.819 70.7117 67.7954C70.5379 67.6949 70.3434 67.6384 70.1442 67.6306C69.945 67.6228 69.7469 67.6639 69.5662 67.7505C69.5437 67.7613 69.5191 67.7666 69.4944 67.7659C69.4696 67.7652 69.4453 67.7585 69.4235 67.7464Z" fill="#263238"/>
<path d="M69.8945 68.7379C69.7644 69.6449 69.7551 70.5659 69.8668 71.4755C69.6395 71.4976 69.4103 71.4689 69.1948 71.3915C68.9793 71.314 68.7826 71.1896 68.6182 71.0267L69.8945 68.7379Z" fill="#DE5753"/>
<path d="M68.4761 72.1486C68.3809 72.2669 68.2858 72.3812 68.1827 72.4873C67.6048 73.1114 66.8551 73.5386 66.0343 73.7112C65.8266 73.7558 65.6159 73.7844 65.404 73.7969C64.8475 73.8351 64.2898 73.7451 63.7714 73.5333C63.253 73.3216 62.787 72.9935 62.4073 72.5729C62.0667 72.1897 61.804 71.7403 61.6344 71.251C60.8971 69.2111 61.6344 67.5792 62.7086 64.76C62.9456 64.0936 63.3443 63.5008 63.8669 63.0379C64.3894 62.575 65.0184 62.2575 65.6939 62.1156C66.3694 61.9737 67.0689 62.0121 67.7259 62.2272C68.3829 62.4422 68.9755 62.8268 69.4472 63.3442C71.5956 65.6535 70.1607 69.9332 68.4761 72.1486Z" fill="#E4897B"/>
<path opacity="0.2" d="M66.0342 73.7031C65.8264 73.7476 65.6158 73.7763 65.4039 73.7888C64.8474 73.827 64.2897 73.7369 63.7713 73.5252C63.2528 73.3134 62.7869 72.9853 62.4072 72.5648C62.6739 72.2888 62.9736 72.0489 63.2991 71.8508C64.3638 72.1871 65.3128 72.8298 66.0342 73.7031Z" fill="black"/>
<path d="M57.1035 73.8091C57.3731 75.8083 61.6144 76.5549 61.6144 76.5549C61.6144 76.5549 63.7074 77.534 63.7946 76.6813C62.9265 75.6491 62.8313 74.7475 63.1326 73.9601C63.3314 73.4827 63.6212 73.0513 63.9848 72.6912C64.1805 72.484 64.3869 72.2879 64.6032 72.1037L63.307 66.6367C62.3755 68.7133 59.1885 73.5154 57.1035 73.8091Z" fill="#E4897B"/>
<path d="M69.2055 61.7776C69.2055 61.7776 70.1133 61.6592 70.7911 63.4095C71.3777 64.8742 69.9983 65.1924 70.0578 66.7509C70.1172 68.3094 68.7378 69.1703 68.7378 69.1703C68.7378 69.1703 67.5724 70.2025 66.5854 69.6436C66.5854 69.6436 65.2932 70.2963 64.9523 71.4346C64.6114 72.5729 62.6096 70.5167 60.8061 70.8308C60.8061 70.8308 59.5891 69.6558 59.6763 66.8081C59.746 65.5713 60.0404 64.359 60.5444 63.2341C60.7838 62.6387 61.136 62.0982 61.5804 61.6443C62.0248 61.1904 62.5525 60.8321 63.1329 60.5903C65.2099 59.6356 68.821 60.3537 69.2055 61.7776Z" fill="#263238"/>
<path d="M66.3515 68.795C66.2902 69.0772 66.2904 69.3699 66.3521 69.6521C66.4138 69.9343 66.5354 70.1989 66.7082 70.4269C67.1482 70.9206 67.8538 70.2923 68.1432 69.4273C68.3889 68.6562 68.4761 67.4486 67.83 67.314C67.1839 67.1793 66.4902 67.9627 66.3515 68.795Z" fill="#E4897B"/>
<path d="M63.3071 74.5394C62.1395 73.4773 60.6981 72.7858 59.1569 72.5485C58.4835 72.4631 57.8018 72.6129 57.221 72.9739C56.6403 73.335 56.1941 73.8863 55.9541 74.5394L63.0653 76.0204L63.3071 74.5394Z" fill="#CA6035"/>
<path d="M62.0977 89.9859L64.9953 90.4306C65.6545 90.219 66.3312 90.0701 67.0168 89.9859C67.762 89.9209 68.5112 89.9209 69.2564 89.9859C69.2564 89.9859 70.5566 90.4918 70.5566 91.7973C70.5566 91.7973 67.4965 92.6419 66.3232 92.136L62.0977 91.7973V89.9859Z" fill="#E4897B"/>
<path opacity="0.2" d="M62.0977 89.9859L64.9953 90.4306C65.6545 90.219 66.3312 90.0701 67.0168 89.9859C67.762 89.9209 68.5112 89.9209 69.2564 89.9859C69.2564 89.9859 70.5566 90.4918 70.5566 91.7973C70.5566 91.7973 67.4965 92.6419 66.3232 92.136L62.0977 91.7973V89.9859Z" fill="black"/>
<path d="M66.8076 75.4778C66.2183 77.175 65.6898 78.807 65.2221 80.3737C64.9208 81.3447 64.6473 82.2953 64.3976 83.2296C64.1835 84.0007 64.0012 84.7473 63.807 85.4735C63.7198 85.8203 63.6326 86.1671 63.5493 86.5098C63.0935 88.3865 62.7248 90.1042 62.4355 91.6137C61.9535 93.9898 61.5963 96.3909 61.3652 98.8066L45.1133 96.7136C45.6762 93.8373 46.1161 91.3281 46.7305 88.6191C47.0675 87.134 47.4559 85.5918 47.9514 83.8987C48.3002 82.6747 48.7046 81.3896 49.1882 79.9861C50.8173 75.1677 52.3236 73.8336 52.3236 73.8336C58.5627 72.7769 66.8076 75.4778 66.8076 75.4778Z" fill="#CA6035"/>
<path d="M72.2139 90.2959L75.1115 90.7447C75.7703 90.5307 76.4471 90.3804 77.1331 90.2959C77.8783 90.2333 78.6274 90.2333 79.3727 90.2959C79.3727 90.2959 80.6847 90.8018 80.6847 92.0952C80.6847 92.0952 77.6246 92.9397 76.4473 92.4338L72.2139 92.0952V90.2959Z" fill="#E4897B"/>
<path d="M53.4727 141.066L60.0527 141.515L61.0199 138.589L53.7699 138.239L53.4727 141.066Z" fill="#CA6035"/>
<path opacity="0.2" d="M53.4727 141.066L60.0527 141.515L61.0199 138.589L53.7699 138.239L53.4727 141.066Z" fill="white"/>
<path d="M71.1758 141.066L77.7558 141.515L78.723 138.589L71.4731 138.239L71.1758 141.066Z" fill="#CA6035"/>
<path opacity="0.2" d="M71.1758 141.066L77.7558 141.515L78.723 138.589L71.4731 138.239L71.1758 141.066Z" fill="white"/>
<path d="M45.0615 96.9298L52.3907 97.9212L52.6286 96.8074L45.2875 95.7099L45.0615 96.9298Z" fill="black"/>
<path d="M53.2396 96.8156L53.1484 97.9212L59.9227 98.88V97.7866L53.2396 96.8156Z" fill="black"/>
<path d="M60.3428 97.8477V98.88L61.3258 99.0146V98.015L60.3428 97.8477Z" fill="black"/>
<path opacity="0.2" d="M65.2182 80.3737C64.9169 81.3447 64.6434 82.2953 64.3937 83.2296C64.1796 84.0007 63.9973 84.7473 63.8031 85.4735C63.2957 82.6176 64.1994 79.2027 64.1994 79.2027L65.2182 80.3737Z" fill="black"/>
<path d="M66.316 76.4407C67.6399 76.714 68.3257 86.1793 68.619 87.4318C68.8767 88.5253 75.1119 90.7447 75.1119 90.7447V92.2828C75.1119 92.2828 68.2147 91.7973 66.5935 91.1119C64.9722 90.4265 63.9932 81.0795 63.9932 81.0795L66.316 76.4407Z" fill="#E4897B"/>
<g opacity="0.2">
<path d="M66.8076 75.4778C66.2183 77.175 65.6898 78.807 65.2221 80.3737C64.9208 81.3447 64.6473 82.2953 64.3976 83.2296C64.1835 84.0007 64.0012 84.7473 63.807 85.4735C63.7198 85.8203 63.6326 86.1671 63.5493 86.5098C63.0935 88.3865 62.7248 90.1042 62.4355 91.6137C61.9535 93.9898 61.5963 96.3909 61.3652 98.8066L45.1133 96.7136C45.6762 93.8373 46.1161 91.3281 46.7305 88.6191C47.0675 87.134 47.4559 85.5918 47.9514 83.8987C48.3002 82.6747 48.7046 81.3896 49.1882 79.9861C50.8173 75.1677 52.3236 73.8336 52.3236 73.8336C58.5627 72.7769 66.8076 75.4778 66.8076 75.4778Z" fill="white"/>
</g>
<path d="M66.8068 75.4778C68.0198 75.8858 68.6183 84.0456 68.6183 84.0456L64.2144 84.6453L63.3027 81.2916C63.3027 81.2916 63.6674 79.7086 64.1906 78.0481C64.9517 75.641 66.8068 75.4778 66.8068 75.4778Z" fill="#CA6035"/>
<path d="M38.397 147.104C38.397 146.82 38.3151 146.542 38.1616 146.306C38.0081 146.07 37.79 145.886 37.5348 145.777C37.2796 145.668 36.9988 145.64 36.7281 145.696C36.4573 145.752 36.2087 145.889 36.0137 146.09C35.8187 146.291 35.6862 146.548 35.6328 146.826C35.5794 147.105 35.6076 147.394 35.7138 147.657C35.82 147.919 35.9995 148.143 36.2294 148.3C36.4594 148.457 36.7296 148.541 37.0057 148.54C37.1887 148.54 37.37 148.503 37.5391 148.431C37.7081 148.359 37.8617 148.253 37.9909 148.119C38.1202 147.986 38.2226 147.828 38.2923 147.653C38.3619 147.479 38.3975 147.293 38.397 147.104Z" fill="#263238"/>
<path opacity="0.2" d="M38.397 147.104C38.397 146.82 38.3151 146.542 38.1616 146.306C38.0081 146.07 37.79 145.886 37.5348 145.777C37.2796 145.668 36.9988 145.64 36.7281 145.696C36.4573 145.752 36.2087 145.889 36.0137 146.09C35.8187 146.291 35.6862 146.548 35.6328 146.826C35.5794 147.105 35.6076 147.394 35.7138 147.657C35.82 147.919 35.9995 148.143 36.2294 148.3C36.4594 148.457 36.7296 148.541 37.0057 148.54C37.1887 148.54 37.37 148.503 37.5391 148.431C37.7081 148.359 37.8617 148.253 37.9909 148.119C38.1202 147.986 38.2226 147.828 38.2923 147.653C38.3619 147.479 38.3975 147.293 38.397 147.104Z" fill="white"/>
<path d="M71.9361 147.104C71.9361 146.82 71.8543 146.542 71.7009 146.306C71.5476 146.07 71.3297 145.886 71.0748 145.777C70.8198 145.669 70.5393 145.64 70.2686 145.696C69.9979 145.751 69.7493 145.888 69.5542 146.089C69.359 146.289 69.2262 146.545 69.1723 146.824C69.1185 147.103 69.1461 147.391 69.2517 147.654C69.3573 147.916 69.5362 148.14 69.7656 148.298C69.9951 148.456 70.2648 148.54 70.5408 148.54C70.7242 148.541 70.9059 148.504 71.0754 148.432C71.2449 148.36 71.3989 148.254 71.5286 148.121C71.6583 147.987 71.761 147.829 71.8309 147.654C71.9009 147.48 71.9366 147.293 71.9361 147.104Z" fill="#263238"/>
<path opacity="0.2" d="M71.9361 147.104C71.9361 146.82 71.8543 146.542 71.7009 146.306C71.5476 146.07 71.3297 145.886 71.0748 145.777C70.8198 145.669 70.5393 145.64 70.2686 145.696C69.9979 145.751 69.7493 145.888 69.5542 146.089C69.359 146.289 69.2262 146.545 69.1723 146.824C69.1185 147.103 69.1461 147.391 69.2517 147.654C69.3573 147.916 69.5362 148.14 69.7656 148.298C69.9951 148.456 70.2648 148.54 70.5408 148.54C70.7242 148.541 70.9059 148.504 71.0754 148.432C71.2449 148.36 71.3989 148.254 71.5286 148.121C71.6583 147.987 71.761 147.829 71.8309 147.654C71.9009 147.48 71.9366 147.293 71.9361 147.104Z" fill="white"/>
<path opacity="0.2" d="M37.7 147.104C37.7 146.962 37.659 146.823 37.5821 146.705C37.5053 146.587 37.3961 146.495 37.2684 146.44C37.1407 146.386 37.0002 146.372 36.8648 146.4C36.7293 146.428 36.605 146.497 36.5076 146.598C36.4102 146.699 36.3441 146.827 36.3176 146.967C36.2911 147.106 36.3055 147.251 36.3589 147.382C36.4123 147.513 36.5024 147.625 36.6176 147.703C36.7329 147.782 36.8681 147.823 37.0063 147.822C37.0977 147.822 37.1883 147.804 37.2727 147.767C37.3571 147.731 37.4337 147.678 37.4982 147.612C37.5627 147.545 37.6137 147.466 37.6483 147.379C37.6829 147.291 37.7005 147.198 37.7 147.104Z" fill="white"/>
<path opacity="0.2" d="M70.5404 147.822C70.9257 147.822 71.2381 147.501 71.2381 147.104C71.2381 146.708 70.9257 146.386 70.5404 146.386C70.1551 146.386 69.8428 146.708 69.8428 147.104C69.8428 147.501 70.1551 147.822 70.5404 147.822Z" fill="white"/>
<path d="M54.9272 140.813V125.387H52.6202V140.813C43.646 141.05 38.1917 144.281 37.0977 144.987C37.0353 145.028 36.9841 145.085 36.9488 145.152C36.9134 145.219 36.8951 145.294 36.8955 145.37V146.651C36.8955 146.771 36.9419 146.887 37.0244 146.971C37.1069 147.056 37.2188 147.104 37.3355 147.104C37.4155 147.107 37.4947 147.087 37.5646 147.047C37.6344 147.006 37.6923 146.947 37.7319 146.876L38.2631 145.913C42.9128 144.387 47.7527 143.563 52.6321 143.465V146.003C52.6332 146.158 52.6938 146.306 52.8007 146.415C52.9077 146.525 53.0522 146.586 53.2029 146.586H54.3683C54.519 146.586 54.6636 146.525 54.7705 146.415C54.8775 146.306 54.9381 146.158 54.9391 146.003V143.465C59.8185 143.563 64.6585 144.387 69.3082 145.913L69.8394 146.876C69.879 146.947 69.9369 147.006 70.0067 147.047C70.0765 147.087 70.1557 147.107 70.2358 147.104C70.3525 147.104 70.4644 147.056 70.5469 146.971C70.6294 146.887 70.6758 146.771 70.6758 146.651V145.37C70.6762 145.294 70.6578 145.219 70.6225 145.152C70.5872 145.085 70.5359 145.028 70.4736 144.987C69.3677 144.281 63.9015 141.05 54.9272 140.813Z" fill="#263238"/>
<path opacity="0.2" d="M54.9272 140.813V125.387H52.6202V140.813C43.646 141.05 38.1917 144.281 37.0977 144.987C37.0353 145.028 36.9841 145.085 36.9488 145.152C36.9134 145.219 36.8951 145.294 36.8955 145.37V146.651C36.8955 146.771 36.9419 146.887 37.0244 146.971C37.1069 147.056 37.2188 147.104 37.3355 147.104C37.4155 147.107 37.4947 147.087 37.5646 147.047C37.6344 147.006 37.6923 146.947 37.7319 146.876L38.2631 145.913C42.9128 144.387 47.7527 143.563 52.6321 143.465V146.003C52.6332 146.158 52.6938 146.306 52.8007 146.415C52.9077 146.525 53.0522 146.586 53.2029 146.586H54.3683C54.519 146.586 54.6636 146.525 54.7705 146.415C54.8775 146.306 54.9381 146.158 54.9391 146.003V143.465C59.8185 143.563 64.6585 144.387 69.3082 145.913L69.8394 146.876C69.879 146.947 69.9369 147.006 70.0067 147.047C70.0765 147.087 70.1557 147.107 70.2358 147.104C70.3525 147.104 70.4644 147.056 70.5469 146.971C70.6294 146.887 70.6758 146.771 70.6758 146.651V145.37C70.6762 145.294 70.6578 145.219 70.6225 145.152C70.5872 145.085 70.5359 145.028 70.4736 144.987C69.3677 144.281 63.9015 141.05 54.9272 140.813Z" fill="black"/>
<path d="M54.2246 145.672H53.3208C53.1523 145.672 53.0156 145.813 53.0156 145.986V148.226C53.0156 148.4 53.1523 148.54 53.3208 148.54H54.2246C54.3932 148.54 54.5298 148.4 54.5298 148.226V145.986C54.5298 145.813 54.3932 145.672 54.2246 145.672Z" fill="#263238"/>
<path opacity="0.2" d="M54.2246 145.672H53.3208C53.1523 145.672 53.0156 145.813 53.0156 145.986V148.226C53.0156 148.4 53.1523 148.54 53.3208 148.54H54.2246C54.3932 148.54 54.5298 148.4 54.5298 148.226V145.986C54.5298 145.813 54.3932 145.672 54.2246 145.672Z" fill="white"/>
<path d="M38.6667 110.202H68.8834C69.715 110.202 70.5125 110.542 71.1005 111.147C71.6885 111.752 72.0189 112.573 72.0189 113.429V115.379H35.5273V113.421C35.5294 112.565 35.8613 111.746 36.4499 111.142C37.0385 110.539 37.8359 110.201 38.6667 110.202Z" fill="#CA6035"/>
<path d="M48.541 97.3826H68.63C68.8762 97.3745 69.1208 97.4256 69.3445 97.5318C69.5682 97.6379 69.7648 97.7963 69.9187 97.9943C70.0725 98.1922 70.1795 98.4244 70.231 98.6723C70.2826 98.9202 70.2773 99.1771 70.2155 99.4225L66.5926 115.383H65.7641L68.8242 101.381C68.8775 101.137 68.8766 100.885 68.8214 100.642C68.7662 100.399 68.6583 100.172 68.5058 99.9779C68.3532 99.7839 68.1599 99.6281 67.9405 99.522C67.721 99.4159 67.4811 99.3624 67.2387 99.3654H48.9533L48.541 97.3826Z" fill="#263238"/>
<path d="M56.1441 115.942V129.438C56.143 129.646 56.0625 129.844 55.92 129.991C55.7775 130.138 55.5845 130.22 55.383 130.222H52.1683C52.0682 130.222 51.969 130.202 51.8764 130.163C51.7839 130.124 51.6998 130.066 51.629 129.993C51.5582 129.92 51.5022 129.834 51.4641 129.739C51.426 129.643 51.4067 129.541 51.4072 129.438V115.942H56.1441Z" fill="#263238"/>
<path opacity="0.2" d="M56.148 115.942H51.4072V121.548H56.148V115.942Z" fill="black"/>
<path d="M73.0141 114.551V116.183C73.0141 116.399 72.9306 116.607 72.782 116.76C72.6333 116.913 72.4316 116.999 72.2214 116.999H35.3572C35.147 116.999 34.9453 116.913 34.7967 116.76C34.648 116.607 34.5645 116.399 34.5645 116.183V114.551C34.5645 114.334 34.648 114.127 34.7967 113.974C34.9453 113.821 35.147 113.735 35.3572 113.735H72.2214C72.4316 113.735 72.6333 113.821 72.782 113.974C72.9306 114.127 73.0141 114.334 73.0141 114.551Z" fill="#263238"/>
<path d="M56.0489 115.383H34.533C34.533 115.383 27.6992 103.682 27.6992 84.3474V77.2444C27.6992 75.8377 28.2421 74.4886 29.2085 73.494C30.1749 72.4993 31.4856 71.9405 32.8523 71.9405H41.9692C43.31 71.9336 44.6001 72.4673 45.5632 73.4274C46.5264 74.3875 47.086 75.6976 47.1223 77.0771C47.3561 87.0565 48.7831 108.631 56.0489 115.383Z" fill="#263238"/>
<path opacity="0.2" d="M51.3159 115.383H35.5079C35.2081 115.384 34.9139 115.299 34.6573 115.14C34.4008 114.98 34.1918 114.751 34.0532 114.477C32.4993 111.389 27.7109 100.545 27.7109 84.3474V77.2443C27.7109 75.8377 28.2538 74.4886 29.2202 73.4939C30.1866 72.4993 31.4973 71.9405 32.864 71.9405H40.7482C42.0871 71.9398 43.3738 72.4756 44.3356 73.4343C45.2975 74.3931 45.859 75.6996 45.9012 77.077C46.139 85.9753 47.3005 104.143 52.727 112.731C52.9012 112.989 53.0021 113.292 53.0183 113.605C53.0345 113.919 52.9655 114.231 52.8189 114.507C52.6723 114.782 52.454 115.01 52.1885 115.165C51.923 115.32 51.6208 115.395 51.3159 115.383Z" fill="white"/>
<path opacity="0.2" d="M73.0137 114.551V116.183C73.0137 116.399 72.9302 116.607 72.7815 116.76C72.6328 116.913 72.4312 116.999 72.2209 116.999H55.6915C55.4048 116.998 55.1302 116.88 54.9275 116.671C54.7248 116.463 54.6104 116.18 54.6094 115.885V114.853C54.6094 114.557 54.7234 114.274 54.9263 114.065C55.1293 113.856 55.4045 113.739 55.6915 113.739H72.217C72.3211 113.738 72.4243 113.759 72.5206 113.799C72.617 113.84 72.7047 113.9 72.7787 113.975C72.8527 114.05 72.9115 114.14 72.9518 114.239C72.9922 114.338 73.0132 114.444 73.0137 114.551Z" fill="black"/>
</svg>
