<svg width="164" height="164" viewBox="0 0 164 164" fill="none" xmlns="http://www.w3.org/2000/svg">
<path d="M47.0834 3.18949H4.64941V73.4287H47.0834V3.18949Z" fill="#E0E0E0"/>
<path d="M45.6722 3.18949H3.23828V73.4287H45.6722V3.18949Z" fill="#EBEBEB"/>
<path d="M43.8644 4.61198H5.0459V72.0025H43.8644V4.61198Z" fill="white"/>
<path d="M36.3067 13.3692H12.4355V63.2453H36.3067V13.3692Z" fill="#EBEBEB"/>
<path d="M12.4361 45.5864C12.3805 40.9263 16.5702 36.3773 21.1822 35.7253C23.3826 35.4178 25.7201 35.8549 27.776 35.0103C31.4434 33.5063 32.614 28.6313 36.2962 27.1829L36.4666 63.2342H12.4361V45.5864Z" fill="#E0E0E0"/>
<path d="M158.053 0V38.6518H102.538L100.538 0.270421L158.053 0Z" fill="#E0E0E0"/>
<path d="M100.541 0.27042V38.5703H156.055V0.27042H100.541Z" fill="white"/>
<path d="M156.316 38.8333H100.275V0.0222244H156.316V38.8333ZM100.805 38.3072H155.79V0.522319H100.805V38.3072Z" fill="#E0E0E0"/>
<path d="M150.04 5.03058H106.55V33.8138H150.04V5.03058Z" fill="white"/>
<path d="M150.04 5.03058H149.825H149.206H146.82L137.856 5.06392L106.55 5.1269L106.676 5.00095C106.676 13.7952 106.676 23.523 106.676 33.7805L106.539 33.6434L150.028 33.6693L149.921 33.7805C149.943 25.0196 149.962 17.8515 149.977 12.8358C149.977 10.339 149.999 8.39048 150.006 7.04578C150.006 6.38639 150.006 5.87889 150.006 5.52327C150.006 5.17876 150.006 4.99724 150.006 4.99724C150.006 4.99724 150.006 5.16394 150.006 5.50104C150.006 5.83814 150.006 6.34935 150.006 6.9828C150.006 8.31639 150.006 10.2612 150.032 12.7506C150.032 17.7663 150.065 24.9751 150.091 33.7619V33.8694H149.98L106.491 33.899H106.354V33.7619C106.354 23.5193 106.354 13.7767 106.354 4.98243V4.85648H106.476L137.867 4.91945L146.798 4.95279H149.162H149.765C149.859 4.97197 149.95 4.99797 150.04 5.03058Z" fill="#E0E0E0"/>
<path d="M100.537 0.162994C100.881 0.32799 101.202 0.535859 101.493 0.78163C102.06 1.19282 102.834 1.77441 103.671 2.4412C104.509 3.108 105.238 3.74145 105.757 4.21561C106.055 4.45182 106.322 4.72576 106.55 5.03058C106.501 5.08985 105.164 3.98594 103.497 2.65606C101.83 1.32618 100.489 0.225969 100.537 0.162994Z" fill="#E0E0E0"/>
<path d="M156.053 0.270421C156.101 0.329692 154.793 1.44472 153.134 2.75978C151.474 4.07484 150.089 5.08985 150.04 5.03058C149.992 4.97131 151.3 3.85628 152.963 2.54122C154.626 1.22616 156.004 0.211151 156.053 0.270421Z" fill="#E0E0E0"/>
<path d="M156.007 38.5777L149.817 33.5582L156.007 38.5777Z" fill="white"/>
<path d="M149.817 33.5582C149.866 33.5026 151.299 34.5769 153 35.9624C154.7 37.3478 156.056 38.5184 156.008 38.5777C155.959 38.6369 154.526 37.559 152.829 36.1735C151.133 34.7881 149.773 33.6175 149.817 33.5582Z" fill="#E0E0E0"/>
<path d="M100.537 38.5703C100.493 38.511 101.786 37.4108 103.43 36.1105C105.075 34.8103 106.442 33.8064 106.49 33.8657C106.538 33.9249 105.242 35.0251 103.601 36.3254C101.96 37.6256 100.585 38.6295 100.537 38.5703Z" fill="#E0E0E0"/>
<path d="M115.381 13.9952V23.6341H142.745V13.9952L115.381 13.9952Z" fill="#E0E0E0"/>
<path d="M73.8545 128.409C73.8545 126.731 75.1399 125.516 76.8699 125.516C77.2866 125.501 77.7016 125.578 78.0856 125.74C78.4696 125.903 78.8133 126.148 79.0925 126.457L78.422 127.083C78.2333 126.872 78.0013 126.704 77.7418 126.59C77.4823 126.476 77.2014 126.419 76.918 126.424C76.6508 126.412 76.384 126.455 76.1337 126.549C75.8834 126.644 75.6548 126.788 75.4616 126.973C75.2684 127.158 75.1147 127.38 75.0097 127.626C74.9047 127.872 74.8505 128.136 74.8505 128.404C74.8505 128.671 74.9047 128.936 75.0097 129.182C75.1147 129.428 75.2684 129.65 75.4616 129.835C75.6548 130.02 75.8834 130.164 76.1337 130.259C76.384 130.353 76.6508 130.396 76.918 130.384C77.2025 130.389 77.4845 130.331 77.7443 130.215C78.0042 130.1 78.2355 129.928 78.422 129.713L79.0999 130.358C78.8204 130.667 78.4767 130.912 78.0927 131.074C77.7088 131.237 77.294 131.314 76.8773 131.299C75.1288 131.306 73.8545 130.091 73.8545 128.409Z" fill="#EBEBEB"/>
<path d="M68.1393 132.821H61.1602V125.842H68.1393V132.821ZM61.5306 132.451H67.7688V126.213H61.5306V132.451Z" fill="#EBEBEB"/>
<path d="M59.8299 134.274C59.6224 134.118 61.2894 131.614 63.8566 128.958C66.4237 126.302 68.8612 124.538 69.0427 124.738C69.2243 124.938 67.0905 127.006 64.5678 129.628C62.0451 132.251 60.0447 134.444 59.8299 134.274Z" fill="#E0E0E0"/>
<path d="M69.1393 134.122C68.9133 134.285 67.0093 131.969 64.494 129.284C61.9787 126.598 59.8005 124.538 59.9746 124.324C60.1487 124.109 62.6381 125.879 65.1978 128.624C67.7576 131.369 69.3505 133.988 69.1393 134.122Z" fill="#E0E0E0"/>
<path d="M21.4154 105.646L17.9889 105.401L17.1998 106.942L15.8848 106.85L19.4595 100.208L20.7116 100.297L23.3047 107.376L21.9711 107.283L21.4154 105.646ZM21.0672 104.616L19.9892 101.523L18.5075 104.431L21.0672 104.616Z" fill="#EBEBEB"/>
<path d="M10.2236 107.224L1.7998 106.628L2.39992 98.1889L10.82 98.789L10.2236 107.224ZM2.19618 106.283L9.87911 106.831L10.4237 99.1447L2.74072 98.6001L2.19618 106.283Z" fill="#EBEBEB"/>
<path d="M0.0113473 108.317C-0.181282 108.15 2.09693 105.279 5.44941 102.271C8.8019 99.2632 11.8914 97.2888 12.0395 97.4962C12.1877 97.7037 9.39831 100.008 6.1125 102.986C2.82669 105.965 0.21509 108.502 0.0113473 108.317Z" fill="#E0E0E0"/>
<path d="M11.3651 108.954C11.128 109.102 9.04612 106.083 6.20484 102.59C3.36356 99.0965 0.855682 96.4256 1.0409 96.2219C1.22612 96.0182 4.07111 98.4223 6.96795 101.982C9.86479 105.542 11.5836 108.824 11.3651 108.954Z" fill="#E0E0E0"/>
<path d="M163.535 69.002C163.857 70.1355 163.165 71.0505 161.453 71.5321L158.164 72.4619L156.312 65.8458L159.412 64.9679C160.998 64.5196 162.039 64.9679 162.335 65.9977C162.43 66.2929 162.439 66.6089 162.362 66.9092C162.284 67.2095 162.123 67.4817 161.898 67.6943C162.278 67.6961 162.647 67.8262 162.944 68.0636C163.241 68.3009 163.449 68.6315 163.535 69.002ZM157.793 66.4607L158.312 68.287L160.049 67.7943C160.901 67.5535 161.298 67.1127 161.127 66.5089C160.957 65.9051 160.386 65.7273 159.534 65.968L157.793 66.4607ZM162.265 69.2279C162.076 68.5685 161.49 68.4167 160.564 68.6797L158.582 69.2427L159.119 71.1505L161.105 70.5874C162.031 70.3244 162.45 69.891 162.265 69.2279Z" fill="#EBEBEB"/>
<path d="M143.905 77.3072L141.604 69.1835L149.728 66.883L152.029 75.0068L143.905 77.3072ZM142.053 69.4391L144.149 76.8479L151.558 74.7475L149.458 67.3387L142.053 69.4391Z" fill="#EBEBEB"/>
<path d="M142.798 79.5076C142.557 79.4113 143.724 75.9403 145.854 71.9692C147.984 67.9981 150.221 65.0938 150.429 65.242C150.636 65.3902 148.799 68.4982 146.724 72.4248C144.65 76.3515 143.05 79.6114 142.798 79.5076Z" fill="#E0E0E0"/>
<path d="M153.692 76.2441C153.518 76.4626 150.536 74.3326 146.676 72.0136C142.816 69.6947 139.549 68.0314 139.66 67.7758C139.771 67.5202 143.261 68.8167 147.173 71.1875C151.084 73.5584 153.855 76.0477 153.692 76.2441Z" fill="#E0E0E0"/>
<path d="M162.644 149.31C162.644 149.362 126.286 149.406 81.4513 149.406C36.6169 149.406 0.24707 149.343 0.24707 149.31C0.24707 149.276 36.5984 149.213 81.4513 149.213C126.304 149.213 162.644 149.236 162.644 149.31Z" fill="black"/>
<path d="M114.915 18.259H19.7822V114.766H114.915V18.259Z" fill="white"/>
<path d="M114.915 114.766C114.915 114.766 114.915 114.722 114.915 114.648C114.915 114.574 114.915 114.455 114.915 114.307C114.915 114.007 114.915 113.566 114.915 112.973C114.915 111.795 114.915 110.058 114.896 107.787C114.896 103.253 114.871 96.6072 114.852 88.1537C114.833 71.2727 114.804 47.1645 114.767 18.259L114.933 18.4257L19.8118 18.4516L20.0044 18.259C20.0044 53.625 20.0044 86.7534 19.9785 114.762L19.8118 114.599L88.7359 114.681L108.077 114.725L113.181 114.744H114.496H114.83H114.945H114.515H113.218L108.143 114.762L88.8434 114.807L19.8118 114.888H19.6451V114.722C19.6451 86.7127 19.6451 53.599 19.6191 18.2183V18.0256H19.8229L114.945 18.0516H115.115V18.2183C115.078 47.1682 115.048 71.3098 115.03 88.2315C115.008 96.6701 114.993 103.301 114.985 107.828C114.985 110.08 114.985 111.81 114.963 112.981C114.963 113.559 114.963 113.999 114.963 114.296V114.625C114.953 114.674 114.936 114.721 114.915 114.766Z" fill="#263238"/>
<path d="M27.2502 33.999V36.5588H26.7723V34.3991H26.2314V33.999H27.2502Z" fill="black"/>
<path d="M27.7422 36.2809C27.7422 36.2415 27.7499 36.2025 27.765 36.1661C27.7801 36.1297 27.8022 36.0966 27.8301 36.0688C27.8579 36.0409 27.891 36.0188 27.9274 36.0037C27.9638 35.9886 28.0028 35.9809 28.0422 35.9809C28.0816 35.9809 28.1207 35.9886 28.1571 36.0037C28.1935 36.0188 28.2266 36.0409 28.2544 36.0688C28.2823 36.0966 28.3044 36.1297 28.3195 36.1661C28.3345 36.2025 28.3423 36.2415 28.3423 36.2809C28.3423 36.3203 28.3345 36.3593 28.3195 36.3957C28.3044 36.4322 28.2823 36.4652 28.2544 36.4931C28.2266 36.521 28.1935 36.5431 28.1571 36.5581C28.1207 36.5732 28.0816 36.581 28.0422 36.581C28.0028 36.581 27.9638 36.5732 27.9274 36.5581C27.891 36.5431 27.8579 36.521 27.8301 36.4931C27.8022 36.4652 27.7801 36.4322 27.765 36.3957C27.7499 36.3593 27.7422 36.3203 27.7422 36.2809Z" fill="black"/>
<path d="M59.1479 23.6526C59.1353 23.3777 59.2054 23.1054 59.3489 22.8706C59.4925 22.6359 59.7031 22.4495 59.9535 22.3355C60.2039 22.2215 60.4828 22.185 60.7541 22.2309C61.0254 22.2767 61.2768 22.4027 61.4759 22.5927C61.675 22.7827 61.8126 23.0279 61.8711 23.2968C61.9296 23.5657 61.9062 23.8459 61.804 24.1014C61.7018 24.3569 61.5255 24.576 61.2977 24.7303C61.0699 24.8847 60.8011 24.9674 60.526 24.9677C60.3479 24.9768 60.1699 24.9494 60.0028 24.8874C59.8356 24.8253 59.6829 24.7298 59.5539 24.6067C59.425 24.4836 59.3224 24.3355 59.2526 24.1715C59.1828 24.0075 59.1472 23.8309 59.1479 23.6526ZM61.4261 23.6526C61.4261 23.4746 61.3733 23.3005 61.2744 23.1525C61.1755 23.0045 61.0349 22.8891 60.8704 22.821C60.706 22.7528 60.525 22.735 60.3503 22.7697C60.1757 22.8045 60.0153 22.8902 59.8894 23.0161C59.7636 23.142 59.6778 23.3024 59.6431 23.477C59.6084 23.6516 59.6262 23.8326 59.6943 23.9971C59.7624 24.1616 59.8778 24.3022 60.0259 24.4011C60.1739 24.5 60.3479 24.5528 60.526 24.5528C60.6448 24.5559 60.7631 24.5347 60.8735 24.4905C60.9839 24.4463 61.0841 24.38 61.168 24.2957C61.252 24.2115 61.3178 24.111 61.3615 24.0004C61.4053 23.8898 61.426 23.7715 61.4224 23.6526H61.4261Z" fill="black"/>
<path d="M64.6837 22.3746V24.9343H64.2947L62.8833 23.2007V24.9343H62.4092V22.3746H62.8018L64.2132 24.1009V22.3746H64.6837Z" fill="black"/>
<path d="M65.3721 22.3746H65.8462V24.5306H67.1872V24.9343H65.3721V22.3746Z" fill="black"/>
<path d="M67.5615 22.3746H68.0357V24.9343H67.5615V22.3746Z" fill="black"/>
<path d="M71.0032 22.3746V24.9343H70.6106L69.2029 23.2007V24.9343H68.7324V22.3746H69.1251L70.5328 24.1009V22.3746H71.0032Z" fill="black"/>
<path d="M73.6111 24.5343V24.9343H71.6885V22.3746H73.5407V22.771H72.1663V23.4378H73.4036V23.8267H72.1663V24.5343H73.6111Z" fill="black"/>
<path d="M75.6667 22.7747H74.8184V22.3746H76.9817V22.7747H76.1334V24.9343H75.6556L75.6667 22.7747Z" fill="black"/>
<path d="M79.2714 24.5343V24.9343H77.3525V22.3746H79.2047V22.771H77.8119V23.4378H79.0455V23.8267H77.8119V24.5343H79.2714Z" fill="black"/>
<path d="M79.5742 24.6639L79.7409 24.2935C79.9852 24.475 80.2812 24.5737 80.5855 24.575C80.9856 24.575 81.1523 24.4305 81.1523 24.2416C81.1523 23.6897 79.6298 24.0527 79.6298 23.1007C79.6298 22.6858 79.9595 22.3376 80.6633 22.3376C80.9628 22.332 81.2579 22.4103 81.5153 22.5635L81.3634 22.934C81.151 22.8049 80.9081 22.7346 80.6596 22.7302C80.2632 22.7302 80.1039 22.8858 80.1039 23.0784C80.1039 23.623 81.6191 23.2674 81.6191 24.2083C81.6191 24.6195 81.2857 24.9492 80.5855 24.9492C80.2265 24.9656 79.8718 24.8655 79.5742 24.6639Z" fill="black"/>
<path d="M82.5827 22.7747H81.7344V22.3746H83.9052V22.7747H83.0568V24.9343H82.5827V22.7747Z" fill="black"/>
<path d="M39.1037 45.2456H37.8219L37.57 45.8383H37.0811L38.2331 43.2786H38.6999L39.8557 45.8383H39.3593L39.1037 45.2456ZM38.9444 44.8752L38.4628 43.7638L37.9849 44.8752H38.9444Z" fill="black"/>
<path d="M26.2021 24.9306C26.777 24.9306 27.243 24.4646 27.243 23.8897C27.243 23.3148 26.777 22.8488 26.2021 22.8488C25.6272 22.8488 25.1611 23.3148 25.1611 23.8897C25.1611 24.4646 25.6272 24.9306 26.2021 24.9306Z" fill="black"/>
<path d="M29.3544 24.9306C29.9293 24.9306 30.3954 24.4646 30.3954 23.8897C30.3954 23.3148 29.9293 22.8488 29.3544 22.8488C28.7795 22.8488 28.3135 23.3148 28.3135 23.8897C28.3135 24.4646 28.7795 24.9306 29.3544 24.9306Z" fill="black"/>
<path d="M32.5068 24.9306C33.0817 24.9306 33.5477 24.4646 33.5477 23.8897C33.5477 23.3148 33.0817 22.8488 32.5068 22.8488C31.9319 22.8488 31.4658 23.3148 31.4658 23.8897C31.4658 24.4646 31.9319 24.9306 32.5068 24.9306Z" fill="black"/>
<path d="M114.915 29.0388C114.915 29.0907 93.7257 29.1351 67.5911 29.1351C41.4566 29.1351 20.2637 29.0907 20.2637 29.0388C20.2637 28.987 41.4492 28.9425 67.5911 28.9425C93.7331 28.9425 114.915 28.987 114.915 29.0388Z" fill="black"/>
<path d="M104.512 36.1957C104.512 36.2476 88.0165 36.2921 67.6719 36.2921C47.3273 36.2921 30.8242 36.2476 30.8242 36.1957C30.8242 36.1439 47.3199 36.0994 67.6719 36.0994C88.0239 36.0994 104.512 36.1402 104.512 36.1957Z" fill="black"/>
<path d="M59.2607 38.6999C59.2607 38.7518 52.9632 38.7962 45.1839 38.7962C37.4047 38.7962 31.085 38.7518 31.085 38.6999C31.085 38.6481 37.3825 38.6036 45.1839 38.6036C52.9854 38.6036 59.2607 38.6444 59.2607 38.6999Z" fill="black"/>
<path d="M35.1218 46.2421H31.7471V42.8674H35.1218V46.2421ZM32.1175 45.8716H34.7513V43.2378H32.1175V45.8716Z" fill="black"/>
<path d="M39.7013 51.5505C39.7013 51.9876 39.3568 52.2432 38.6974 52.2432H37.4268V49.6835H38.6233C39.2382 49.6835 39.5679 49.9428 39.5679 50.3503C39.5718 50.4657 39.5428 50.5798 39.4845 50.6795C39.4261 50.7791 39.3407 50.8602 39.2382 50.9133C39.376 50.9517 39.4967 51.0355 39.5808 51.1512C39.6649 51.2669 39.7073 51.4076 39.7013 51.5505ZM37.9009 50.0687V50.7726H38.5751C38.9011 50.7726 39.09 50.6577 39.09 50.4243C39.09 50.191 38.9011 50.0539 38.5751 50.0539L37.9009 50.0687ZM39.2197 51.5134C39.2197 51.2578 39.0271 51.143 38.6677 51.143H37.9009V51.8839H38.6677C39.0271 51.8839 39.2197 51.7579 39.2197 51.5134Z" fill="black"/>
<path d="M35.1218 52.6507H31.7471V49.2908H35.1218V52.6507ZM32.1175 52.2802H34.7513V49.6612H32.1175V52.2802Z" fill="black"/>
<path d="M37.2412 57.3701C37.2545 57.0995 37.3468 56.8387 37.5068 56.62C37.6667 56.4014 37.8873 56.2344 38.1412 56.1398C38.3951 56.0452 38.6711 56.0271 38.9352 56.0877C39.1992 56.1484 39.4397 56.2851 39.6268 56.4811L39.3194 56.77C39.2332 56.674 39.1274 56.5975 39.0092 56.5457C38.891 56.494 38.7631 56.4681 38.6341 56.4699C38.3953 56.4699 38.1664 56.5648 37.9976 56.7336C37.8287 56.9024 37.7339 57.1314 37.7339 57.3701C37.7339 57.6088 37.8287 57.8378 37.9976 58.0066C38.1664 58.1754 38.3953 58.2703 38.6341 58.2703C38.7635 58.2721 38.8917 58.2459 39.01 58.1935C39.1283 58.141 39.2338 58.0636 39.3194 57.9665L39.6268 58.2592C39.4397 58.4551 39.1992 58.5918 38.9352 58.6525C38.6711 58.7132 38.3951 58.6951 38.1412 58.6004C37.8873 58.5058 37.6667 58.3389 37.5068 58.1202C37.3468 57.9015 37.2545 57.6407 37.2412 57.3701Z" fill="black"/>
<path d="M35.1218 59.0556H31.7471V55.6809H35.1218V59.0556ZM32.1175 58.6852H34.7513V56.0513H32.1175V58.6852Z" fill="black"/>
<path d="M37.4268 62.497H38.5381C39.3679 62.497 39.9346 63.0082 39.9346 63.775C39.9346 64.5418 39.3679 65.0568 38.5381 65.0568H37.4268V62.497ZM38.5381 64.653C38.6579 64.6608 38.7781 64.6439 38.8911 64.6034C39.0042 64.5629 39.1078 64.4996 39.1954 64.4175C39.283 64.3354 39.3529 64.2362 39.4006 64.126C39.4484 64.0158 39.473 63.897 39.473 63.7769C39.473 63.6568 39.4484 63.538 39.4006 63.4278C39.3529 63.3176 39.283 63.2184 39.1954 63.1362C39.1078 63.0541 39.0042 62.9909 38.8911 62.9504C38.7781 62.9099 38.6579 62.893 38.5381 62.9008H37.9009V64.653H38.5381Z" fill="black"/>
<path d="M35.1218 65.4643H31.7471V62.0895H35.1218V65.4643ZM32.1175 65.0938H34.7513V62.46H32.1175V65.0938Z" fill="black"/>
<path d="M67.6694 44.5566C67.6694 44.6084 62.1128 44.6529 55.2374 44.6529C48.3621 44.6529 42.8018 44.6084 42.8018 44.5566C42.8018 44.5047 48.3584 44.4603 55.2374 44.4603C62.1165 44.4603 67.6694 44.501 67.6694 44.5566Z" fill="black"/>
<path d="M101.898 50.9615C101.898 51.0171 88.666 51.0578 72.3518 51.0578C56.0376 51.0578 42.8018 51.0171 42.8018 50.9615C42.8018 50.9059 56.0302 50.8652 72.3518 50.8652C88.6734 50.8652 101.898 50.9096 101.898 50.9615Z" fill="black"/>
<path d="M50.9329 63.775C50.9329 63.8269 49.114 63.8713 46.858 63.8713C44.6021 63.8713 42.7832 63.8269 42.7832 63.775C42.7832 63.7232 44.6021 63.6787 46.858 63.6787C49.114 63.6787 50.9329 63.738 50.9329 63.775Z" fill="black"/>
<path d="M72.3481 57.3701C72.3481 57.422 65.7357 57.4664 57.5749 57.4664C49.4141 57.4664 42.8018 57.422 42.8018 57.3701C42.8018 57.3183 49.4141 57.2738 57.5749 57.2738C65.7357 57.2738 72.3481 57.3146 72.3481 57.3701Z" fill="black"/>
<path d="M27.342 72.8953V73.2953H25.4528V72.9768L26.4715 72.0136C26.7197 71.7765 26.7641 71.6247 26.7641 71.4839C26.7641 71.2468 26.6011 71.1135 26.2863 71.1135C26.1728 71.1076 26.0597 71.1288 25.956 71.1751C25.8523 71.2215 25.7611 71.2918 25.6898 71.3802L25.3564 71.1246C25.4739 70.9829 25.6228 70.8706 25.7913 70.7966C25.9598 70.7227 26.1432 70.6891 26.327 70.6986C26.8827 70.6986 27.242 70.9801 27.242 71.4394C27.238 71.5974 27.1979 71.7523 27.1246 71.8923C27.0514 72.0323 26.9471 72.1536 26.8197 72.247L26.1344 72.899L27.342 72.8953Z" fill="black"/>
<path d="M27.6211 73.0175C27.6211 72.9379 27.6527 72.8616 27.709 72.8054C27.7652 72.7491 27.8416 72.7175 27.9211 72.7175C28.0007 72.7175 28.0771 72.7491 28.1333 72.8054C28.1896 72.8616 28.2212 72.9379 28.2212 73.0175C28.2212 73.0971 28.1896 73.1734 28.1333 73.2297C28.0771 73.286 28.0007 73.3176 27.9211 73.3176C27.8416 73.3176 27.7652 73.286 27.709 73.2297C27.6527 73.1734 27.6211 73.0971 27.6211 73.0175Z" fill="black"/>
<path d="M38.2082 81.9822H36.9301L36.6782 82.5749H36.1855L37.3376 80.0151H37.8081L38.9638 82.5749H38.4563L38.2082 81.9822ZM38.0526 81.6117L37.571 80.5004L37.0894 81.6117H38.0526Z" fill="black"/>
<path d="M103.617 72.9323C103.617 72.9842 87.1214 73.0286 66.7768 73.0286C46.4322 73.0286 29.9365 72.999 29.9365 72.9323C29.9365 72.8656 46.4285 72.836 66.7805 72.836C87.1325 72.836 103.617 72.8805 103.617 72.9323Z" fill="black"/>
<path d="M58.3669 75.4365C58.3669 75.4884 52.0694 75.5328 44.2679 75.5328C36.4664 75.5328 30.1689 75.4884 30.1689 75.4365C30.1689 75.3846 36.4664 75.3402 44.2679 75.3402C52.0694 75.3402 58.3669 75.3809 58.3669 75.4365Z" fill="black"/>
<path d="M34.2107 83.0009H30.8359V79.6262H34.2107V83.0009ZM31.2064 82.6304H33.8402V79.9966H31.2064V82.6304Z" fill="black"/>
<path d="M38.8048 88.2871C38.8048 88.7242 38.4603 88.9798 37.8046 88.9798H36.5303V86.42H37.7157C38.3306 86.42 38.6603 86.6793 38.6603 87.0868C38.6633 87.2021 38.634 87.3159 38.5757 87.4154C38.5175 87.5149 38.4326 87.5961 38.3306 87.6499C38.4708 87.6855 38.5945 87.7683 38.6808 87.8843C38.7672 88.0003 38.8109 88.1426 38.8048 88.2871ZM37.0081 86.8053V87.5128H37.6786C38.0083 87.5128 38.1935 87.3943 38.1935 87.1609C38.1935 86.9275 38.0083 86.7905 37.6786 86.7905L37.0081 86.8053ZM38.3269 88.25C38.3269 87.9944 38.1343 87.8796 37.775 87.8796H37.0081V88.6205H37.775C38.1343 88.6093 38.3269 88.4945 38.3269 88.2389V88.25Z" fill="black"/>
<path d="M34.2107 89.3873H30.8359V86.0126H34.2107V89.3873ZM31.2064 89.0168H33.8402V86.383H31.2064V89.0168Z" fill="black"/>
<path d="M36.3477 94.1141C36.346 93.9362 36.3807 93.7598 36.4496 93.5957C36.5186 93.4317 36.6204 93.2836 36.7488 93.1604C36.8772 93.0372 37.0295 92.9416 37.1962 92.8794C37.363 92.8173 37.5406 92.7899 37.7183 92.799C37.9079 92.7913 38.0968 92.8254 38.2716 92.8991C38.4464 92.9727 38.6028 93.084 38.7297 93.225L38.4259 93.514C38.3394 93.4183 38.2336 93.3421 38.1154 93.2904C37.9973 93.2387 37.8695 93.2126 37.7406 93.2139C37.5018 93.2139 37.2729 93.3088 37.1041 93.4776C36.9352 93.6464 36.8404 93.8754 36.8404 94.1141C36.8404 94.3528 36.9352 94.5818 37.1041 94.7506C37.2729 94.9194 37.5018 95.0143 37.7406 95.0143C37.8699 95.0159 37.9981 94.9895 38.1164 94.9371C38.2346 94.8847 38.3402 94.8074 38.4259 94.7105L38.7297 95.0032C38.543 95.1996 38.3028 95.3367 38.0388 95.3977C37.7748 95.4586 37.4987 95.4406 37.2449 95.3458C36.991 95.2511 36.7707 95.0838 36.6111 94.8648C36.4516 94.6458 36.36 94.3848 36.3477 94.1141Z" fill="black"/>
<path d="M34.2107 95.7922H30.8359V92.4175H34.2107V95.7922ZM31.2064 95.4217H33.8402V92.7879H31.2064V95.4217Z" fill="black"/>
<path d="M36.5303 99.2336H37.6416C38.4714 99.2336 39.0382 99.7448 39.0382 100.515C39.0382 101.286 38.4714 101.793 37.6416 101.793H36.5303V99.2336ZM37.6416 101.393C37.7637 101.404 37.8867 101.39 38.0029 101.351C38.1192 101.312 38.226 101.249 38.3165 101.167C38.4071 101.084 38.4794 100.983 38.5289 100.871C38.5784 100.759 38.604 100.638 38.604 100.515C38.604 100.393 38.5784 100.271 38.5289 100.159C38.4794 100.047 38.4071 99.9466 38.3165 99.864C38.226 99.7814 38.1192 99.7185 38.0029 99.6795C37.8867 99.6405 37.7637 99.6261 37.6416 99.6374H37.023V101.393H37.6416Z" fill="black"/>
<path d="M34.2107 102.201H30.8359V98.8261H34.2107V102.201ZM31.2064 101.83H33.8402V99.1965H31.2064V101.83Z" fill="black"/>
<path d="M66.7757 81.2932C66.7757 81.345 61.2191 81.3895 54.34 81.3895C47.4609 81.3895 41.9043 81.345 41.9043 81.2932C41.9043 81.2413 47.4609 81.1969 54.34 81.1969C61.2191 81.1969 66.7757 81.2413 66.7757 81.2932Z" fill="black"/>
<path d="M101.001 87.6981C101.001 87.7536 87.7722 87.7944 71.4543 87.7944C55.1364 87.7944 41.9043 87.7536 41.9043 87.6981C41.9043 87.6425 55.1327 87.6017 71.4543 87.6017C87.7759 87.6017 101.001 87.6462 101.001 87.6981Z" fill="black"/>
<path d="M50.0393 100.512C50.0393 100.567 48.2168 100.608 45.9645 100.608C43.7122 100.608 41.8896 100.567 41.8896 100.512C41.8896 100.456 43.7122 100.415 45.9645 100.415C48.2168 100.415 50.0393 100.46 50.0393 100.512Z" fill="black"/>
<path d="M71.4543 94.1141C71.4543 94.1659 64.8383 94.2104 56.6812 94.2104C48.5241 94.2104 41.9043 94.1659 41.9043 94.1141C41.9043 94.0622 48.5204 94.0178 56.6812 94.0178C64.842 94.0178 71.4543 94.0511 71.4543 94.1141Z" fill="black"/>
<path d="M95.3779 109.302H80.1269C79.5122 109.302 78.9035 109.181 78.3356 108.946C77.7677 108.71 77.2518 108.365 76.8173 107.93C76.3828 107.496 76.0382 106.979 75.8033 106.411C75.5684 105.843 75.4478 105.235 75.4482 104.62C75.4482 103.379 75.9412 102.189 76.8186 101.311C77.696 100.434 78.886 99.9411 80.1269 99.9411H95.3779C96.6188 99.9411 97.8088 100.434 98.6863 101.311C99.5637 102.189 100.057 103.379 100.057 104.62C100.057 105.235 99.9364 105.843 99.7015 106.411C99.4666 106.979 99.1221 107.496 98.6876 107.93C98.2531 108.365 97.7371 108.71 97.1692 108.946C96.6014 109.181 95.9927 109.302 95.3779 109.302Z" fill="#FF725E"/>
<path d="M83.9345 103.508V106.053H83.4493L82.1675 104.509V106.053H81.5859V103.508H82.0712L83.3344 105.053V103.508H83.9345Z" fill="white"/>
<path d="M86.5059 105.598V106.072H84.5352V103.527H86.4577V104.001H85.1316V104.553H86.3133V105.009H85.1316V105.598H86.5059Z" fill="white"/>
<path d="M88.5502 106.053L87.9353 105.172L87.3314 106.053H86.6572L87.5981 104.761L86.7054 103.508H87.3722L87.9575 104.335L88.5317 103.508H89.1688L88.2798 104.738L89.2318 106.053H88.5502Z" fill="white"/>
<path d="M89.9478 103.99H89.1328V103.508H91.3555V103.99H90.5405V106.053H89.9478V103.99Z" fill="white"/>
<path d="M94.5737 105.861C94.5427 105.86 94.5124 105.852 94.4853 105.838C94.4581 105.823 94.4351 105.801 94.4181 105.776C94.3913 105.735 94.3817 105.685 94.3914 105.637C94.4011 105.589 94.4293 105.547 94.4699 105.52L95.6516 104.731C95.6704 104.719 95.6858 104.703 95.6962 104.683C95.7066 104.664 95.7117 104.642 95.7109 104.62C95.7109 104.597 95.7051 104.575 95.6941 104.556C95.683 104.536 95.6671 104.52 95.6479 104.509L94.4774 103.816C94.436 103.79 94.4063 103.75 94.3947 103.703C94.3831 103.655 94.3905 103.606 94.4153 103.564C94.44 103.522 94.4802 103.492 94.5272 103.479C94.5741 103.467 94.6241 103.473 94.6663 103.497L95.8369 104.186C95.91 104.23 95.9709 104.292 96.0138 104.366C96.0568 104.439 96.0805 104.523 96.0827 104.608C96.0849 104.693 96.0656 104.778 96.0265 104.854C95.9874 104.93 95.9298 104.994 95.8591 105.042L94.6774 105.827C94.6468 105.848 94.6108 105.86 94.5737 105.861Z" fill="white"/>
<path d="M31.3288 52.5914C31.2176 52.4803 31.9326 51.5801 32.9291 50.5799C33.9256 49.5797 34.8257 48.8685 34.9406 48.9796C35.0554 49.0908 34.3367 49.9946 33.3403 50.9911C32.3438 51.9876 31.4436 52.7063 31.3288 52.5914Z" fill="#FF725E"/>
<path d="M35.5547 52.9433C35.4435 53.0582 34.4841 52.2802 33.4135 51.2097C32.3429 50.1391 31.5613 49.1834 31.6799 49.0685C31.7984 48.9537 32.7541 49.7316 33.821 50.8022C34.8879 51.8728 35.6695 52.8322 35.5547 52.9433Z" fill="#FF725E"/>
<path d="M30.5169 83.1639C30.4021 83.049 31.1208 82.1489 32.1172 81.1524C33.1137 80.1559 34.0139 79.4409 34.1287 79.5521C34.2436 79.6632 33.5249 80.5634 32.5247 81.5636C31.5245 82.5638 30.6281 83.275 30.5169 83.1639Z" fill="#FF725E"/>
<path d="M34.7519 83.5158C34.6371 83.6269 33.6814 82.8527 32.6108 81.7821C31.5402 80.7116 30.7586 79.7521 30.8771 79.641C30.9957 79.5299 31.9477 80.3041 33.0183 81.3746C34.0888 82.4452 34.8557 83.401 34.7519 83.5158Z" fill="#FF725E"/>
<path d="M102.364 158.4L76.3555 150.051C76.286 150.029 76.2132 150.02 76.1406 150.025L56.1368 151.506C52.6213 142.986 48.2168 132.336 46.2127 127.472C45.8788 126.675 45.3408 125.979 44.6528 125.456C43.9648 124.932 43.151 124.599 42.2935 124.49L20.6301 121.66C20.3725 121.629 20.1113 121.666 19.8724 121.767C19.6336 121.868 19.4256 122.031 19.2692 122.238C19.1128 122.445 19.0135 122.689 18.9812 122.947C18.949 123.204 18.9849 123.466 19.0854 123.705L31.284 152.151C31.4454 152.528 31.6836 152.868 31.9833 153.149C32.283 153.429 32.6378 153.645 33.025 153.781L57.8038 163.668C58.3701 163.894 58.9837 163.975 59.5893 163.905L61.1748 163.731C66.6647 163.157 93.7736 160.397 102.253 159.508C102.387 159.501 102.515 159.446 102.612 159.353C102.71 159.26 102.771 159.136 102.784 159.002C102.797 158.868 102.762 158.734 102.685 158.623C102.608 158.513 102.494 158.434 102.364 158.4Z" fill="#E0E0E0"/>
<path d="M102.365 158.4C102.452 158.428 102.53 158.476 102.595 158.541C102.659 158.605 102.707 158.684 102.735 158.771C102.769 158.88 102.77 158.997 102.738 159.107C102.705 159.217 102.641 159.315 102.554 159.389C102.437 159.48 102.294 159.529 102.146 159.53L101.657 159.582L95.5711 160.227L73.1817 162.557L65.7729 163.327L61.8277 163.735L59.8013 163.953C59.0996 164.063 58.3813 163.979 57.7232 163.712L41.1497 157.111L36.7229 155.344L34.4669 154.448L33.3297 153.996C33.1408 153.914 32.9592 153.848 32.7555 153.762C32.5616 153.677 32.3778 153.57 32.2072 153.444C31.8642 153.19 31.5767 152.868 31.3626 152.499C31.1552 152.129 31.0218 151.74 30.8514 151.358L29.8624 149.058C29.198 147.517 28.53 145.96 27.8583 144.387C25.1652 138.089 22.372 131.599 19.516 124.938L19.1233 124.023C18.9573 123.719 18.8718 123.377 18.8751 123.031C18.8964 122.677 19.0353 122.342 19.2695 122.076C19.5038 121.811 19.8201 121.632 20.1679 121.567C20.2531 121.549 20.342 121.567 20.4309 121.542L20.6865 121.56L21.1755 121.627L22.1498 121.753L24.0909 122.005L31.7516 123.008L39.2345 123.986L41.0867 124.227C41.6979 124.32 42.3092 124.361 42.9389 124.505C44.1557 124.819 45.2122 125.574 45.9024 126.624C46.2111 127.147 46.4703 127.698 46.6766 128.269C46.9039 128.822 47.1311 129.373 47.3583 129.921L48.703 133.184L51.3257 139.541C53.0371 143.698 54.6856 147.691 56.2525 151.492L56.171 151.44L75.6636 149.999L76.2045 149.958C76.302 149.957 76.3988 149.975 76.4897 150.01L76.7453 150.095L77.7233 150.421L79.694 151.054L83.4095 152.273L89.9663 154.388L99.1347 157.352L101.543 158.141C102.087 158.319 102.365 158.415 102.365 158.415C102.365 158.415 102.083 158.334 101.535 158.163L99.1199 157.4L89.9478 154.459L83.3873 152.362L79.6459 151.162L77.6751 150.532L76.6638 150.21C76.5048 150.145 76.3379 150.101 76.1674 150.08L75.6266 150.121L56.1377 151.603H56.0821L56.0562 151.547C54.4855 147.75 52.8371 143.768 51.1182 139.604L48.4918 133.247C48.0473 132.171 47.5978 131.083 47.1434 129.984C46.9174 129.436 46.6878 128.873 46.4618 128.332C46.2585 127.772 46.0043 127.233 45.7024 126.72C45.0408 125.712 44.0281 124.986 42.8611 124.683C42.2832 124.542 41.6609 124.498 41.0534 124.409L39.2012 124.168L31.7146 123.194L24.0538 122.193L22.109 121.942L21.1348 121.812C20.8229 121.749 20.5038 121.729 20.1864 121.753C19.8815 121.81 19.6046 121.968 19.3993 122.201C19.194 122.434 19.0722 122.728 19.0529 123.038C19.0506 123.356 19.131 123.669 19.2863 123.946L19.6901 124.861L28.0287 144.312C28.7029 145.883 29.3697 147.44 30.0291 148.984C30.3624 149.754 30.6884 150.521 31.0181 151.284C31.1848 151.655 31.3293 152.062 31.5219 152.395C31.7216 152.743 31.9916 153.044 32.3147 153.281C32.4749 153.399 32.6476 153.5 32.8296 153.581C33.0074 153.659 33.2 153.729 33.3927 153.807L34.5299 154.263L36.7822 155.163L41.2275 156.93L57.7936 163.549C58.4264 163.809 59.1184 163.89 59.7939 163.783L61.824 163.564L65.7691 163.164L73.178 162.423L95.5748 160.153L101.665 159.541L102.154 159.497C102.295 159.497 102.433 159.451 102.546 159.367C102.631 159.297 102.693 159.204 102.725 159.1C102.757 158.995 102.758 158.883 102.728 158.778C102.693 158.647 102.608 158.536 102.491 158.467C102.409 158.419 102.365 158.404 102.365 158.4Z" fill="#263238"/>
<path d="M68.8916 153.251L78.6453 157.333L90.7994 156.067L80.579 151.847L68.8916 153.251Z" fill="#F5F5F5"/>
<path d="M61.5379 160.967L80.5785 159.249L62.3973 152.04L56.5518 152.481L59.6412 159.934L61.5379 160.967Z" fill="#F5F5F5"/>
<path d="M100.479 158.389L100.35 158.411L99.9606 158.46L98.4789 158.611L92.9741 159.149L74.8225 160.842L60.5532 162.131H60.4939L60.4717 162.075L57.3118 154.366L56.445 152.21C56.3487 151.963 56.2746 151.774 56.2227 151.643C56.1956 151.578 56.1721 151.511 56.1523 151.443C56.1523 151.443 56.1857 151.506 56.245 151.632L56.4894 152.192L57.397 154.329C58.1749 156.181 59.2863 158.83 60.6199 162.016L60.5384 161.964L74.804 160.641L92.9741 159.004L98.4678 158.537L99.9495 158.419L100.338 158.393L100.479 158.389Z" fill="black"/>
<path d="M19.7158 122.69H19.8788L20.3604 122.745L22.2126 122.986L29.0065 123.912C31.8737 124.312 35.304 124.794 39.0787 125.353L41.983 125.802L42.7239 125.928C42.8461 125.946 42.9758 125.976 43.0943 126.005C43.1573 126.005 43.224 126.031 43.2869 126.05C43.5994 126.175 43.883 126.363 44.1204 126.602C44.2167 126.704 44.2933 126.823 44.3464 126.954L44.4909 127.324C45.2651 129.258 46.0652 131.262 46.8876 133.31C50.1623 141.516 53.1221 148.947 55.2707 154.333C56.3339 157.019 57.1933 159.197 57.7934 160.708C58.0823 161.449 58.3083 162.042 58.4676 162.449C58.5417 162.642 58.5973 162.79 58.638 162.901C58.659 162.952 58.6763 163.004 58.6899 163.057C58.6637 163.009 58.6402 162.959 58.6195 162.909L58.4306 162.46L57.723 160.738C57.1118 159.226 56.2412 157.059 55.1299 154.381L46.7283 133.381C45.906 131.332 45.1058 129.328 44.3316 127.394L44.1871 127.024C44.1425 126.915 44.0785 126.814 43.9982 126.728C43.8325 126.547 43.6322 126.403 43.4092 126.302C43.3537 126.275 43.2969 126.252 43.2388 126.231L43.061 126.187C42.9424 126.161 42.8239 126.135 42.6905 126.116L41.9497 125.987L39.0454 125.531L28.9842 124.049L22.1978 123.06L20.3456 122.786L19.8677 122.708L19.7158 122.69Z" fill="black"/>
<path d="M38.8632 139.719C39.7893 140.96 39.9745 142.386 39.2818 142.905C38.5891 143.423 37.2703 142.842 36.3442 141.601C35.4181 140.36 35.2329 138.937 35.9256 138.415C36.6183 137.893 37.9371 138.482 38.8632 139.719Z" fill="white"/>
<path d="M156.064 118.563C154.823 111.525 147.04 107.283 144.469 104.942L148.332 110.11C150.31 118.265 151.059 126.671 150.555 135.048C150.503 135.963 150.603 137.196 151.255 137.326C151.491 137.346 151.725 137.272 151.907 137.122C154.189 135.659 155.671 132.306 156.001 128.854C156.33 125.401 156.627 121.819 156.064 118.563Z" fill="#FF725E"/>
<path d="M150.367 110.68C149.996 109.973 150.148 107.717 148.144 110.073L148.014 109.191L135.631 99.6707L108.029 101.104C105.381 101.271 101.402 105.857 100.409 107.772C99.5942 114.896 99.4312 121.219 99.4312 121.219C99.4312 121.219 98.4829 129.139 99.4312 132.884C100.38 136.63 101.502 137.982 102.969 140.893C104.042 142.883 105.381 144.717 106.947 146.346L108.237 156.348L137.072 158.941L150.27 158.2C150.27 158.2 149.089 138.474 149.089 138.126C149.089 137.963 150.737 134.155 152.508 130.114C155.516 123.197 153.819 117.356 150.367 110.68Z" fill="#455A64"/>
<path d="M77.9531 146.557C78.0976 146.557 79.5386 136.818 80.4832 134.607C81.3723 132.521 100.409 107.769 100.409 107.769L104.892 122.216L102.969 129.943L92.5966 142.423L89.6665 151.469L77.9531 146.557Z" fill="#455A64"/>
<path d="M154.205 118.082C152.838 109.417 146.088 109.795 146.088 109.795L139.38 121.467V145.605L107.014 148.406L106.414 156.533C106.414 156.533 138.661 163.905 146.11 161.434C151.041 159.801 155.205 155.678 155.66 148.939C156.116 142.201 155.575 126.75 154.205 118.082Z" fill="#455A64"/>
<path d="M92.6296 142.408C92.5355 141.856 92.4119 141.31 92.2592 140.771C91.8532 139.477 91.1204 138.309 90.1315 137.38C89.1426 136.452 87.931 135.794 86.6137 135.47C86.0658 135.347 85.5119 135.253 84.9541 135.189C85.1067 135.17 85.2609 135.17 85.4135 135.189C85.8287 135.205 86.2416 135.26 86.647 135.352C87.9987 135.651 89.2444 136.31 90.2519 137.26C91.2595 138.209 91.9915 139.414 92.3703 140.745C92.487 141.144 92.5663 141.554 92.6074 141.968C92.633 142.113 92.6405 142.261 92.6296 142.408Z" fill="black"/>
<path d="M108.122 148.072C108.168 148.06 108.215 148.051 108.263 148.047L108.674 147.987L110.26 147.776L116.101 147.035L135.364 144.694L139.647 144.183L139.561 144.275C139.81 137.711 139.932 131.925 139.887 127.78C139.887 125.709 139.843 124.046 139.817 122.901C139.817 122.338 139.791 121.897 139.784 121.59V121.249C139.784 121.171 139.784 121.134 139.784 121.13C139.787 121.17 139.787 121.209 139.784 121.249C139.784 121.334 139.784 121.445 139.806 121.586C139.806 121.897 139.843 122.327 139.869 122.901C139.917 124.042 139.969 125.705 139.998 127.78C140.065 131.925 139.976 137.719 139.735 144.279V144.361H139.654L135.372 144.876L116.09 147.161L110.245 147.832L108.652 148.002L108.237 148.043L108.122 148.072Z" fill="black"/>
<path d="M156.101 148.072C156.106 148.122 156.106 148.171 156.101 148.221C156.101 148.324 156.101 148.469 156.078 148.65C156.045 149.203 155.982 149.753 155.89 150.299C155.744 151.164 155.532 152.018 155.256 152.851C154.878 153.952 154.37 155.004 153.745 155.985C152.983 157.18 152.022 158.235 150.903 159.104C149.618 160.102 148.132 160.811 146.547 161.182C145.694 161.387 144.827 161.532 143.954 161.616C143.045 161.697 142.133 161.732 141.22 161.719C139.307 161.681 137.399 161.503 135.512 161.186L124.58 159.389L119.812 158.597L115.66 157.83C113.13 157.356 111.077 156.996 109.655 156.781L108.014 156.541L107.588 156.481C107.539 156.477 107.49 156.467 107.443 156.452H107.588L108.018 156.496C108.388 156.537 108.951 156.6 109.666 156.7C111.092 156.893 113.148 157.233 115.686 157.689L119.831 158.43L124.602 159.204L135.534 160.99C137.415 161.31 139.316 161.492 141.224 161.534C142.15 161.534 143.054 161.508 143.939 161.438C144.803 161.358 145.659 161.217 146.503 161.016C148.067 160.654 149.535 159.959 150.807 158.978C151.915 158.125 152.87 157.089 153.63 155.915C154.256 154.945 154.767 153.906 155.152 152.818C155.435 151.993 155.657 151.149 155.815 150.291C155.938 149.584 156.012 149.028 156.038 148.65L156.082 148.221C156.085 148.171 156.091 148.121 156.101 148.072Z" fill="black"/>
<path d="M107.248 148.669C107.233 148.619 107.223 148.569 107.218 148.517C107.2 148.402 107.174 148.25 107.148 148.065C107.088 147.65 107.003 147.072 106.9 146.339V146.365L104.447 143.649C103.969 142.968 103.537 142.255 103.154 141.516C102.726 140.674 102.348 139.808 102.021 138.923C101.298 136.921 100.801 134.845 100.539 132.733C100.28 130.446 100.227 128.142 100.38 125.846C100.495 123.735 100.713 121.838 100.921 120.252C101.128 118.667 101.324 117.389 101.465 116.504L101.632 115.489C101.65 115.381 101.665 115.296 101.68 115.225C101.683 115.195 101.69 115.165 101.702 115.137C101.706 115.166 101.706 115.196 101.702 115.225C101.702 115.3 101.702 115.385 101.673 115.492C101.639 115.744 101.599 116.085 101.543 116.515C101.424 117.4 101.25 118.682 101.058 120.271C100.865 121.86 100.691 123.749 100.576 125.861C100.435 128.145 100.492 130.436 100.747 132.71C101.005 134.809 101.492 136.874 102.199 138.867C102.519 139.744 102.89 140.601 103.31 141.434C103.685 142.169 104.107 142.88 104.573 143.56L106.992 146.309L107.192 148.039C107.211 148.228 107.226 148.38 107.24 148.495C107.253 148.552 107.256 148.611 107.248 148.669Z" fill="black"/>
<path d="M144.31 149.569C144.066 149.298 143.842 149.01 143.639 148.706C143.236 148.161 142.669 147.42 142.006 146.631C141.343 145.842 140.717 145.15 140.254 144.661C139.988 144.407 139.74 144.135 139.513 143.846C139.814 144.055 140.092 144.296 140.342 144.564C140.979 145.179 141.581 145.828 142.147 146.509C142.716 147.186 143.248 147.892 143.743 148.624C143.963 148.919 144.153 149.236 144.31 149.569Z" fill="black"/>
<path d="M85.8729 147.746C85.5987 146.165 84.1577 144.931 84.1577 144.931C84.1577 144.931 83.4687 143.005 82.4389 142.497C81.409 141.99 80.5867 143.005 79.6902 142.731C78.7937 142.457 76.8711 142.386 76.2525 142.731C75.6339 143.075 74.8782 144.998 74.8782 144.998C74.2545 145.023 73.6444 145.187 73.0927 145.479C72.625 145.721 72.2203 146.068 71.911 146.494C71.6424 146.39 71.3485 146.369 71.068 146.435C70.7875 146.501 70.5338 146.651 70.3403 146.865C69.9645 147.304 69.6832 147.816 69.5142 148.369L69.0252 149.68C68.9311 149.88 68.8878 150.1 68.8993 150.321C68.937 150.503 69.0352 150.666 69.1779 150.784C69.3206 150.903 69.4992 150.969 69.6846 150.973C69.8729 150.974 70.0593 150.935 70.2317 150.859C70.404 150.783 70.5584 150.672 70.6848 150.532C70.9369 150.283 71.1594 150.006 71.3479 149.706L71.4701 150.565C71.4701 150.565 71.6739 151.925 72.7741 152.007C73.5335 152.066 74.3559 151.184 74.3559 151.184L76.2784 150.977L76.5526 152.899C76.6792 153.27 76.9213 153.59 77.2434 153.813C77.5654 154.035 77.9504 154.149 78.3418 154.137C79.0308 154.137 79.9199 152.97 79.9199 152.97L81.7091 153.655C81.7091 153.655 83.7688 155.1 84.7319 154.618C85.0012 154.482 85.2162 154.258 85.3414 153.983C85.4666 153.709 85.4947 153.399 85.4209 153.107C85.8322 152.641 86.1571 152.105 86.3804 151.525C86.6397 150.703 86.1618 149.328 85.8729 147.746Z" fill="#FFBE9D"/>
<path d="M71.425 150.236C71.3467 149.556 71.3704 148.868 71.4954 148.195C71.5596 147.514 71.7269 146.847 71.9918 146.217C72.0437 146.217 71.8399 147.117 71.6843 148.224C71.5287 149.332 71.4954 150.236 71.425 150.236Z" fill="#EB996E"/>
<path d="M74.4299 148.428C74.5467 148.895 74.6015 149.376 74.5929 149.858C74.6323 150.206 74.5969 150.558 74.4891 150.891C74.3817 151.151 74.2298 151.262 74.2187 151.232C74.2076 151.203 74.2965 151.088 74.3595 150.862C74.423 150.539 74.4367 150.208 74.4002 149.88C74.3438 149.397 74.3537 148.908 74.4299 148.428Z" fill="#EB996E"/>
<path d="M75.7114 147.609C75.7485 147.646 75.4965 147.98 75.1446 148.321C74.7927 148.661 74.4815 148.936 74.4408 148.899C74.4 148.861 74.6556 148.528 75.0076 148.187C75.3595 147.846 75.6744 147.572 75.7114 147.609Z" fill="#EB996E"/>
<path d="M75.9678 143.912C76.0094 144.259 76.0242 144.608 76.0122 144.957C76.0122 145.605 76.0382 146.494 76.09 147.476C76.1419 148.458 76.2197 149.347 76.2752 149.991C76.3279 150.337 76.3502 150.686 76.3419 151.036C76.2396 150.701 76.1726 150.355 76.1419 150.006C76.0493 149.365 75.953 148.476 75.8974 147.487C75.8418 146.498 75.8492 145.605 75.8752 144.957C75.8698 144.607 75.9008 144.256 75.9678 143.912Z" fill="#EB996E"/>
<path d="M83.1763 144.65C83.1763 144.65 83.0948 144.835 82.9651 145.168C82.7844 145.64 82.6408 146.126 82.5354 146.62C82.4687 146.939 82.3984 147.283 82.3206 147.65C82.247 148.052 82.1379 148.446 81.9946 148.828C81.8346 149.26 81.5653 149.643 81.2129 149.939C81.0205 150.106 80.7913 150.225 80.544 150.286C80.2967 150.348 80.0385 150.349 79.7905 150.291C79.5327 150.233 79.2995 150.096 79.1237 149.899C78.9613 149.703 78.8574 149.465 78.8236 149.213C78.771 148.763 78.7623 148.309 78.7977 147.858C78.8396 147.1 78.9563 146.348 79.1459 145.613C79.2731 145.117 79.4366 144.632 79.6349 144.161C79.7053 143.994 79.7608 143.868 79.8053 143.79C79.8242 143.745 79.8491 143.703 79.8794 143.664C79.8332 143.844 79.775 144.021 79.7053 144.194C79.5351 144.671 79.3929 145.157 79.2792 145.65C79.1108 146.38 79.0091 147.124 78.9755 147.872C78.9461 148.31 78.9572 148.749 79.0088 149.184C79.039 149.401 79.1287 149.607 79.2681 149.776C79.4191 149.942 79.6167 150.058 79.8349 150.11C80.0548 150.16 80.2835 150.158 80.5024 150.104C80.7214 150.049 80.9242 149.943 81.0944 149.795C81.4249 149.517 81.6797 149.16 81.8353 148.758C82.0681 148.044 82.2598 147.318 82.4095 146.583C82.5257 146.086 82.6895 145.601 82.8984 145.135C82.9561 145.007 83.0217 144.884 83.0948 144.764C83.1392 144.687 83.1689 144.646 83.1763 144.65Z" fill="#EB996E"/>
<path d="M83.9021 145.483C83.8501 145.894 83.6688 146.277 83.3845 146.578C83.1001 146.879 82.7275 147.082 82.3203 147.157C82.6448 146.943 82.9531 146.706 83.2427 146.446C83.4861 146.142 83.7065 145.82 83.9021 145.483Z" fill="#EB996E"/>
<path d="M79.9238 150.273C80.0453 150.787 80.0767 151.319 80.0164 151.844C79.9967 152.311 79.9309 152.775 79.8201 153.229V153.255C79.8062 153.262 79.7909 153.266 79.7752 153.266C79.7596 153.267 79.7441 153.264 79.7299 153.257C79.7156 153.251 79.703 153.241 79.693 153.229C79.6829 153.217 79.6757 153.203 79.6719 153.188C79.6719 153.151 79.6719 153.136 79.6719 153.136C79.6719 153.136 79.6719 153.155 79.6978 153.17C79.7237 153.185 79.7497 153.199 79.7608 153.17L79.7386 153.199C79.7386 152.947 79.7941 152.421 79.8275 151.814C79.8233 151.299 79.8555 150.784 79.9238 150.273Z" fill="#EB996E"/>
<path d="M84.283 148.739C84.1403 148.975 83.9712 149.194 83.7792 149.391C83.3547 149.885 82.9823 150.421 82.6679 150.992C82.3552 151.561 82.1778 152.195 82.1493 152.844C82.1493 153.344 82.2345 153.648 82.2012 153.655C82.0713 153.405 82.0063 153.126 82.0122 152.844C82.0011 152.164 82.1685 151.494 82.4975 150.899C82.8239 150.314 83.2276 149.776 83.6977 149.299C83.8683 149.088 84.0649 148.9 84.283 148.739Z" fill="#EB996E"/>
<path d="M83.5243 152.155C83.4085 151.738 83.4278 151.296 83.5796 150.891C83.7314 150.486 84.0078 150.14 84.3689 149.902C85.6618 148.984 89.5329 146.568 89.6144 146.568C89.6959 146.568 94.1597 145.087 96.0378 144.894C97.9159 144.701 106.136 148.784 106.136 148.784C106.136 148.784 108.044 151.532 107.736 154.17C107.429 156.807 105.71 156.959 105.71 156.959L103.324 156.378L100.865 155.907C100.865 155.907 95.4229 157.422 94.5672 157.145C93.7114 156.867 93.4151 155.937 94.3412 155.433C95.2673 154.929 97.9308 154.14 97.9308 154.14L99.9793 153.273L93.3114 154.225C93.3114 154.225 87.6733 155.337 87.0139 155.181C86.3545 155.026 86.2545 154.533 86.1989 154.07C86.1989 154.07 83.9281 155.181 83.2539 154.574C82.5797 153.966 82.2834 152.644 83.5243 152.155Z" fill="#FFBE9D"/>
<path d="M97.9157 150.532C97.7504 150.559 97.5827 150.568 97.4156 150.558C97.097 150.558 96.634 150.558 96.0635 150.595C95.3981 150.625 94.737 150.718 94.089 150.873C93.7071 150.97 93.335 151.103 92.9777 151.269C92.6073 151.44 92.2368 151.64 91.8664 151.862C91.4885 152.078 91.0947 152.265 90.6884 152.421C90.3084 152.562 89.9106 152.648 89.5067 152.677C88.8411 152.677 88.1776 152.752 87.5285 152.899C87.1049 153.034 86.7309 153.292 86.4543 153.64C86.3606 153.775 86.2776 153.918 86.2061 154.066C86.2061 154.066 86.2061 154.018 86.2283 153.937C86.2666 153.817 86.3215 153.704 86.3913 153.599C86.6582 153.215 87.0411 152.925 87.4841 152.773C88.1398 152.602 88.8141 152.511 89.4919 152.503C90.2983 152.409 91.0732 152.134 91.759 151.699C92.1294 151.488 92.4998 151.273 92.8925 151.099C93.2582 150.932 93.639 150.801 94.0298 150.706C94.6893 150.552 95.3639 150.471 96.0413 150.465C96.6191 150.465 97.0822 150.465 97.4045 150.488C97.5759 150.487 97.747 150.501 97.9157 150.532Z" fill="#EB996E"/>
<path d="M95.9012 147.721C95.8629 147.746 95.8219 147.767 95.7789 147.783C95.7012 147.821 95.5789 147.869 95.4085 147.924C94.9539 148.064 94.4896 148.171 94.0194 148.243C93.4304 148.347 92.7191 148.424 91.9634 148.613C91.1491 148.859 90.367 149.201 89.6333 149.632C88.2663 150.393 86.839 151.039 85.3659 151.566C84.8028 151.766 84.3398 151.914 84.0175 152.01C83.854 152.069 83.6853 152.113 83.5137 152.14C83.6672 152.058 83.8285 151.991 83.9952 151.94L85.3177 151.436C86.7694 150.876 88.1805 150.217 89.5407 149.462C90.2881 149.024 91.087 148.68 91.919 148.439C92.6058 148.284 93.3009 148.168 94.0008 148.091C94.4671 148.032 94.9296 147.947 95.3863 147.835C95.5557 147.788 95.7276 147.749 95.9012 147.721Z" fill="#EB996E"/>
<path d="M101.313 149.31C101.264 149.165 101.228 149.016 101.206 148.865C101.117 148.519 100.946 148.199 100.708 147.932C100.469 147.666 100.17 147.461 99.835 147.335C99.6876 147.296 99.5439 147.244 99.4053 147.18C99.4053 147.157 99.5905 147.135 99.8794 147.206C100.255 147.307 100.593 147.514 100.854 147.802C101.112 148.092 101.281 148.451 101.339 148.836C101.378 148.993 101.369 149.158 101.313 149.31Z" fill="#EB996E"/>
<path d="M104.395 153.47C104.388 153.261 104.369 153.054 104.339 152.847C104.213 152.366 103.928 151.94 103.532 151.64C103.123 151.343 102.672 151.11 102.194 150.947C101.986 150.892 101.787 150.808 101.602 150.699C101.818 150.702 102.032 150.742 102.235 150.817C102.746 150.949 103.228 151.176 103.654 151.488C104.086 151.814 104.378 152.292 104.472 152.825C104.526 153.042 104.499 153.272 104.395 153.47Z" fill="#EB996E"/>
<path d="M86.2205 154.062C86.1262 154.146 86.0168 154.212 85.8982 154.255C85.5887 154.401 85.2694 154.525 84.9425 154.626C84.7174 154.704 84.4872 154.767 84.2535 154.814C83.9716 154.852 83.6849 154.822 83.4163 154.729C83.2646 154.674 83.1262 154.587 83.01 154.475C82.8939 154.362 82.8026 154.227 82.7421 154.077C82.5888 153.773 82.5271 153.431 82.5642 153.092C82.6028 152.836 82.7348 152.604 82.9347 152.44C83.105 152.29 83.2959 152.165 83.5015 152.07L83.4533 152.181C83.3025 151.722 83.337 151.222 83.5496 150.788C83.726 150.462 83.9637 150.174 84.2497 149.939C84.4331 149.786 84.6289 149.649 84.835 149.528C84.9059 149.477 84.9848 149.438 85.0684 149.413C85.0869 149.439 84.7684 149.625 84.3275 150.025C84.0673 150.262 83.8515 150.545 83.6904 150.858C83.5077 151.258 83.4865 151.713 83.6311 152.129L83.6533 152.199L83.583 152.236C83.2347 152.418 82.8161 152.684 82.7754 153.122C82.7444 153.423 82.7983 153.727 82.931 154C82.9801 154.128 83.0556 154.244 83.1526 154.341C83.2496 154.438 83.3659 154.513 83.494 154.563C83.7308 154.649 83.9839 154.682 84.2349 154.659C84.4624 154.618 84.6874 154.565 84.9091 154.5C85.3203 154.385 85.65 154.27 85.8723 154.188C85.9836 154.134 86.1003 154.092 86.2205 154.062Z" fill="#EB996E"/>
<path d="M114.922 79.1261C114.118 71.1023 112.418 63.1156 112.77 55.0474L106.172 59.1667C106.502 62.3599 103.631 64.8345 101.968 67.5757C100.972 69.2504 100.389 71.1373 100.264 73.0815C100.14 75.0256 100.479 76.9716 101.253 78.7593C101.846 80.0929 102.686 81.3524 102.905 82.7971C103.275 85.2346 101.768 87.7129 102.323 90.117C102.961 92.8842 106.346 94.403 109.077 93.6251C111.807 92.8472 113.763 90.2911 114.566 87.5832C115.37 84.8753 115.204 81.9525 114.922 79.1261Z" fill="#263238"/>
<path d="M106.529 57.8109C106.894 55.8531 107.773 54.0276 109.076 52.5214C110.378 51.0152 112.058 49.8825 113.943 49.2394C115.828 48.5963 117.85 48.4659 119.802 48.8616C121.754 49.2573 123.565 50.1648 125.051 51.4912C126.255 52.5692 127.24 53.9139 128.633 54.7326C130.207 55.655 130.411 55.3438 132.145 55.9032C133.878 56.4625 137.275 60.9893 137.331 62.8119L138.679 70.7393C138.724 72.61 136.39 73.8139 134.582 73.3324C132.774 72.8508 131.5 71.2542 130.463 69.691C129.426 68.1277 128.44 66.4348 126.844 65.4531C124.195 63.8269 120.794 64.6567 117.794 65.4531C114.793 66.2496 111.307 66.9349 108.811 65.0827C106.677 63.4713 106.04 60.4336 106.529 57.8109Z" fill="#263238"/>
<path d="M105.572 69.2946C105.572 64.0788 108.643 57.496 113.852 57.7331L130.262 60.8448C131.026 60.8786 131.749 61.1982 132.289 61.7403C132.828 62.2823 133.144 63.0072 133.174 63.7713L133.793 102.853H133.904C133.904 102.853 128.203 117.189 117.312 114.499C115.152 113.966 116.749 108.591 116.178 106.235L116.071 106.257C116.048 105.972 116.03 105.709 116.008 105.438C115.689 103.675 115.556 101.884 115.611 100.093C115.385 96.948 115.308 95.6477 115.308 95.6885C115.308 95.7292 108.603 94.9846 106.706 86.4089C105.765 82.1637 105.554 75.092 105.572 69.2946Z" fill="#FFBE9D"/>
<path d="M108.47 76.1181C108.484 76.4076 108.611 76.6801 108.824 76.8773C109.036 77.0746 109.317 77.181 109.607 77.1738C109.749 77.1768 109.89 77.1513 110.022 77.0987C110.154 77.0461 110.275 76.9676 110.376 76.8678C110.477 76.768 110.557 76.6489 110.612 76.5176C110.666 76.3863 110.693 76.2454 110.692 76.1033C110.678 75.8137 110.551 75.5413 110.339 75.344C110.126 75.1468 109.845 75.0404 109.555 75.0475C109.413 75.0445 109.272 75.0701 109.14 75.1226C109.008 75.1752 108.887 75.2537 108.786 75.3535C108.685 75.4533 108.605 75.5724 108.551 75.7037C108.496 75.8351 108.469 75.976 108.47 76.1181Z" fill="#263238"/>
<path d="M107.325 72.8767C107.469 73.0138 108.273 72.3396 109.47 72.2729C110.666 72.2062 111.577 72.7471 111.692 72.5952C111.755 72.5248 111.596 72.2729 111.2 72.0173C110.66 71.6891 110.033 71.5364 109.403 71.5802C108.787 71.6242 108.201 71.8614 107.729 72.2581C107.358 72.547 107.251 72.8175 107.325 72.8767Z" fill="#263238"/>
<path d="M119.25 75.5143C119.264 75.8038 119.391 76.0763 119.604 76.2735C119.816 76.4707 120.097 76.5771 120.387 76.57C120.529 76.573 120.671 76.5474 120.803 76.4949C120.935 76.4423 121.055 76.3638 121.156 76.264C121.257 76.1642 121.337 76.0451 121.392 75.9138C121.446 75.7825 121.474 75.6416 121.473 75.4994C121.458 75.2079 121.33 74.9338 121.115 74.7362C120.9 74.5387 120.616 74.4336 120.324 74.4437C120.183 74.4422 120.043 74.4689 119.912 74.5221C119.782 74.5753 119.663 74.6541 119.563 74.7537C119.463 74.8534 119.384 74.972 119.33 75.1025C119.276 75.2331 119.249 75.3731 119.25 75.5143Z" fill="#263238"/>
<path d="M119.086 72.3952C119.231 72.5285 120.035 71.858 121.231 71.7876C122.428 71.7173 123.339 72.2655 123.454 72.1099C123.513 72.0395 123.361 71.7876 122.961 71.532C122.421 71.2054 121.794 71.0528 121.164 71.0949C120.543 71.1324 119.95 71.3643 119.468 71.758C119.123 72.0618 119.012 72.3322 119.086 72.3952Z" fill="#263238"/>
<path d="M115.282 81.5191C115.282 81.4487 114.541 81.3672 113.319 81.2857C113.011 81.2857 112.718 81.2265 112.655 81.0227C112.611 80.7086 112.662 80.3882 112.804 80.104C113.048 79.3632 113.3 78.5593 113.567 77.7295C114.622 74.3437 115.363 71.5691 115.226 71.5283C115.089 71.4876 114.115 74.1955 113.07 77.5776L112.348 79.9707C112.177 80.349 112.147 80.776 112.263 81.1746C112.313 81.2804 112.387 81.3731 112.479 81.4457C112.571 81.5183 112.678 81.5688 112.793 81.5932C112.964 81.6291 113.14 81.6427 113.315 81.634C114.53 81.6266 115.282 81.5858 115.282 81.5191Z" fill="#263238"/>
<path d="M115.309 95.7107C119.389 95.5258 123.339 94.2127 126.718 91.9174C126.718 91.9174 124.155 98.1223 115.442 97.8444L115.309 95.7107Z" fill="#EB996E"/>
<path d="M115.959 84.3678C116.169 84.0675 116.452 83.8259 116.781 83.6657C117.111 83.5056 117.476 83.4323 117.841 83.4528C118.106 83.4594 118.367 83.5199 118.608 83.6307C118.849 83.7416 119.064 83.9003 119.242 84.0974C119.414 84.2868 119.523 84.5244 119.556 84.7782C119.588 85.0319 119.542 85.2896 119.423 85.5162C119.244 85.7423 119.002 85.91 118.728 85.9977C118.453 86.0855 118.159 86.0894 117.882 86.0088C117.305 85.8432 116.767 85.5636 116.3 85.1865C116.157 85.1002 116.031 84.987 115.93 84.8531C115.882 84.7899 115.854 84.7139 115.849 84.6347C115.845 84.5556 115.864 84.4769 115.904 84.4085" fill="#EB996E"/>
<path d="M118.842 82.134C118.646 82.134 118.72 83.4306 117.668 84.416C116.616 85.4013 115.223 85.3458 115.223 85.5273C115.223 85.6088 115.545 85.7607 116.13 85.7421C116.891 85.7077 117.615 85.406 118.175 84.8901C118.712 84.3942 119.035 83.7086 119.075 82.9786C119.101 82.4341 118.934 82.1192 118.842 82.134Z" fill="#263238"/>
<path d="M118.512 67.8647C118.65 68.1833 119.835 67.9573 121.246 68.0425C122.658 68.1277 123.817 68.4389 123.984 68.1351C124.058 67.9906 123.843 67.698 123.369 67.3942C122.735 67.0451 122.03 66.845 121.307 66.8091C120.585 66.7731 119.863 66.9023 119.198 67.1868C118.698 67.4424 118.472 67.7128 118.512 67.8647Z" fill="#263238"/>
<path d="M107.555 69.3909C107.781 69.6502 108.589 69.3205 109.578 69.2464C110.567 69.1723 111.43 69.3205 111.593 69.0242C111.671 68.8797 111.523 68.6167 111.137 68.3833C110.627 68.1034 110.045 67.982 109.466 68.0348C108.886 68.0876 108.336 68.3121 107.885 68.6797C107.551 68.9797 107.455 69.2649 107.555 69.3909Z" fill="#263238"/>
<path d="M114.001 55.5031L114.675 54.5177C119.713 54.7788 124.691 55.7234 129.474 57.3257C131.386 57.9665 133.327 58.7556 134.697 60.2336C136.587 62.2636 137.05 65.1975 137.42 67.9462C138.835 78.4037 140.139 89.1872 137.457 99.3966C136.583 98.1667 134.99 97.6888 133.493 97.4925C131.997 97.2962 130.437 97.3036 129.048 96.6998C128.294 96.3543 127.62 95.8548 127.07 95.2335C126.52 94.6121 126.106 93.8825 125.855 93.0917C125.36 91.4957 125.443 89.7764 126.088 88.2352C126.788 86.5201 128.118 84.8235 127.655 83.049C127.17 81.1709 124.921 80.2189 124.292 78.3852C123.206 75.2142 127.552 72.0358 126.437 68.876C126.022 67.7091 124.933 66.9089 123.792 66.4274C122.651 65.9458 121.421 65.7124 120.269 65.2642C118.353 64.4706 116.726 63.1103 115.606 61.3655C114.485 59.6208 113.925 57.5752 114.001 55.5031Z" fill="#263238"/>
<path d="M139.627 60.6707C134.241 53.1212 130.592 52.2062 125.525 51.9246L132.563 67.7054C133.619 70.2466 135.071 73.3287 135.297 76.0662C135.563 79.315 134.437 82.034 132.93 84.9198C131.122 88.3871 129.136 91.6914 126.028 94.0622C122.92 96.4331 116 99.4151 112.407 97.8778L117.419 100.682L129.392 100.726L143.339 100.782C143.339 100.782 144.969 99.3521 146.403 95.6625C150 86.42 145.636 69.0908 139.627 60.6707Z" fill="#FF725E"/>
<path d="M149.558 109.843C149.558 109.843 146.558 103.686 142.642 100.3C138.727 96.9146 136.322 96.948 130.736 97.4221C125.15 97.8963 117.334 98.7779 115.482 98.3075L115.307 95.7144C114.389 95.6218 110.621 93.7881 109.888 92.6805C108.488 94.1141 107.876 95.644 108.195 97.2702L107.28 97.6148C105.93 98.1086 104.809 99.0821 104.132 100.35C103.454 101.617 103.266 103.09 103.605 104.486C103.953 105.82 104.794 106.639 106.484 106.931C113.189 108.091 131.114 103.245 136.511 103.227C141.909 103.208 149.558 109.843 149.558 109.843Z" fill="#FF725E"/>
<path d="M105.876 106.861C106.033 106.856 106.191 106.865 106.346 106.887C106.65 106.917 107.087 106.965 107.676 107.005C109.31 107.133 110.951 107.16 112.588 107.087C115.014 106.962 117.426 106.635 119.797 106.109C121.138 105.816 122.535 105.461 123.968 105.046L128.391 103.679C131.425 102.756 134.467 102.127 137.249 102.401C139.7 102.625 142.072 103.384 144.198 104.623C145.625 105.46 146.916 106.511 148.025 107.739C148.326 108.071 148.608 108.419 148.869 108.784C148.966 108.9 149.054 109.024 149.132 109.154C149.015 109.05 148.911 108.933 148.821 108.806C148.632 108.565 148.332 108.228 147.936 107.806C145.109 104.845 141.301 103.014 137.223 102.656C134.496 102.405 131.503 103.027 128.48 103.946C126.965 104.401 125.495 104.887 124.053 105.305C122.612 105.724 121.209 106.072 119.856 106.357C117.468 106.875 115.038 107.183 112.596 107.276C110.95 107.331 109.302 107.27 107.665 107.094C107.087 107.035 106.639 106.968 106.339 106.92C106.183 106.914 106.028 106.894 105.876 106.861Z" fill="#263238"/>
<path d="M149.88 107.82C143.116 99.0261 130.147 95.6662 119.96 100.067L109.217 102.345C106.383 102.834 101.838 103.757 101.623 106.383C101.427 109.165 102.032 111.944 103.368 114.392C105.865 118.741 104.509 124.568 107.006 128.917C108.184 130.973 109.387 133.058 111.106 134.692C112.825 136.326 115.159 137.47 117.515 137.215C120.138 136.933 122.286 135.018 123.953 132.973C127.543 128.569 129.784 123.22 133.144 118.641C136.504 114.062 140.467 110.691 147.528 110.258C148.81 110.176 152.466 111.884 152.466 111.884C152.57 111.365 150.203 108.232 149.88 107.82Z" fill="#FF725E"/>
<g opacity="0.3">
<path d="M135.423 102.59C130.751 102.59 126.162 104.835 121.635 105.835C103.424 109.843 103.424 102.975 103.424 102.975C102.854 106.202 105.884 107.683 109.073 108.424C115.163 109.832 121.668 110.588 126.062 109.184C129.603 108.072 133.3 107.246 136.875 106.22C140.45 105.194 145.599 105.587 148.307 108.128C145.884 104.146 140.094 102.579 135.423 102.59Z" fill="black"/>
</g>
<g opacity="0.3">
<path d="M111.755 102.097C111.973 102.574 112.291 102.999 112.687 103.342C113.083 103.685 113.549 103.939 114.052 104.086C115.061 104.377 116.117 104.468 117.16 104.353C120.968 104.094 124.628 102.823 128.233 101.564C125.351 101.464 122.561 102.468 119.735 103.045C116.908 103.623 113.723 103.66 111.426 101.934" fill="black"/>
</g>
<path d="M150.797 110.639C150.797 110.639 150.764 110.614 150.712 110.558L150.486 110.299C150.29 110.065 149.989 109.739 149.593 109.324C148.477 108.151 147.128 107.223 145.633 106.602C144.59 106.208 143.494 105.971 142.381 105.898C141.105 105.794 139.821 105.835 138.554 106.02C135.865 106.39 133.023 107.335 130.008 108.195C126.993 109.054 124.114 109.95 121.377 110.095C118.963 110.199 116.546 110.026 114.172 109.58C112.149 109.21 110.538 108.78 109.423 108.502L108.141 108.176L107.811 108.087L107.696 108.05C107.736 108.044 107.776 108.044 107.815 108.05L108.152 108.12L109.441 108.413C110.552 108.669 112.175 109.072 114.198 109.428C116.561 109.855 118.966 110.014 121.366 109.902C124.073 109.75 126.955 108.895 129.956 107.994C132.957 107.094 135.816 106.187 138.528 105.827C139.809 105.647 141.107 105.612 142.395 105.724C143.778 105.803 145.13 106.156 146.375 106.763C147.619 107.37 148.731 108.218 149.645 109.258C150.038 109.684 150.33 110.017 150.515 110.258L150.727 110.528L150.797 110.639Z" fill="black"/>
<path d="M143.995 101.578C143.967 101.56 143.941 101.539 143.917 101.515L143.702 101.319C143.521 101.141 143.236 100.893 142.865 100.578C141.798 99.716 140.629 98.9894 139.383 98.4149C137.534 97.5679 135.569 97.0034 133.552 96.7405C131.081 96.4337 128.58 96.4399 126.11 96.759C123.638 97.0859 121.185 97.5434 118.761 98.1297C117.69 98.3812 116.587 98.4687 115.49 98.389C114.525 98.3168 113.598 97.9811 112.811 97.4184C112.18 96.9388 111.64 96.349 111.219 95.6773C110.9 95.1762 110.624 94.6496 110.392 94.103C110.204 93.6547 110.078 93.2954 109.996 93.0509L109.911 92.7731C109.899 92.7423 109.891 92.7098 109.889 92.6768C109.889 92.6768 109.907 92.7064 109.929 92.7657C109.952 92.8249 109.992 92.9287 110.033 93.0398C110.126 93.2769 110.263 93.6288 110.463 94.0733C110.705 94.6097 110.988 95.1262 111.311 95.6181C111.733 96.2711 112.269 96.8432 112.893 97.3073C113.665 97.8464 114.569 98.1653 115.508 98.2297C116.588 98.2998 117.672 98.2074 118.724 97.9555C121.151 97.3571 123.609 96.8945 126.088 96.5701C128.574 96.2493 131.092 96.2493 133.578 96.5701C135.61 96.8456 137.587 97.4289 139.442 98.3001C140.692 98.8857 141.859 99.6329 142.913 100.523C143.199 100.765 143.473 101.023 143.732 101.293L143.932 101.501C143.977 101.553 143.999 101.575 143.995 101.578Z" fill="black"/>
<path d="M141.808 101.397H141.716L141.442 101.352L140.386 101.178C139.092 100.979 137.789 100.847 136.482 100.782C134.541 100.687 132.596 100.748 130.666 100.967C128.304 101.284 125.963 101.743 123.657 102.342C121.197 102.934 118.804 103.453 116.585 103.42C115.538 103.426 114.494 103.302 113.477 103.049C112.591 102.798 111.771 102.354 111.077 101.749C110.081 100.878 109.272 99.8147 108.699 98.6223C108.481 98.1907 108.308 97.7375 108.184 97.2702C108.201 97.2965 108.215 97.3252 108.224 97.3554L108.324 97.6148C108.417 97.8444 108.558 98.1741 108.765 98.5853C109.357 99.7525 110.173 100.792 111.166 101.645C111.849 102.228 112.652 102.654 113.518 102.894C114.522 103.138 115.552 103.256 116.585 103.245C118.778 103.245 121.153 102.753 123.624 102.156C125.939 101.553 128.29 101.096 130.662 100.786C132.602 100.577 134.556 100.528 136.504 100.641C137.815 100.717 139.122 100.87 140.416 101.097C140.875 101.182 141.227 101.252 141.468 101.308L141.738 101.371C141.783 101.382 141.808 101.393 141.808 101.397Z" fill="black"/>
<path d="M142.15 84.7716C142.117 84.9819 142.07 85.1898 142.01 85.3939C141.952 85.6374 141.88 85.8773 141.795 86.1126C141.698 86.3904 141.606 86.709 141.458 87.0461C141.31 87.3832 141.165 87.761 140.969 88.1574C140.772 88.5538 140.554 88.9501 140.313 89.3761C139.231 91.197 137.824 92.8031 136.16 94.1141C135.771 94.4104 135.42 94.6957 135.049 94.9254C134.679 95.155 134.345 95.3736 134.023 95.5551C133.701 95.7366 133.404 95.8848 133.145 96.0144C132.923 96.1307 132.694 96.2334 132.46 96.3219C132.267 96.4108 132.067 96.4851 131.863 96.5442C132.044 96.4327 132.234 96.336 132.43 96.2552C132.615 96.17 132.841 96.0626 133.097 95.9181C133.352 95.7737 133.649 95.6366 133.956 95.4366C134.264 95.2365 134.612 95.0439 134.96 94.792C135.308 94.5401 135.675 94.2697 136.071 93.977C137.703 92.6605 139.094 91.0713 140.183 89.2798C140.424 88.8612 140.661 88.4686 140.846 88.0833C141.032 87.6981 141.217 87.3424 141.354 87.0016C141.491 86.6608 141.61 86.3571 141.724 86.0866C141.839 85.8162 141.906 85.5754 141.965 85.3828C142.009 85.1742 142.071 84.9697 142.15 84.7716Z" fill="black"/>
<path d="M141.59 106.854C141.49 106.853 141.389 106.845 141.29 106.828L140.92 106.779C140.779 106.761 140.612 106.779 140.431 106.754C139.383 106.728 138.339 106.89 137.349 107.231C136.665 107.466 136.001 107.751 135.359 108.083C134.625 108.47 133.912 108.896 133.222 109.358C131.762 110.332 130.236 111.525 128.599 112.729L120.242 118.934L117.689 120.786L116.989 121.267C116.911 121.331 116.827 121.385 116.737 121.43C116.808 121.361 116.883 121.296 116.963 121.238L117.641 120.712L120.156 118.804L128.491 112.573C130.129 111.373 131.655 110.18 133.133 109.21C133.83 108.748 134.551 108.323 135.293 107.939C135.945 107.61 136.621 107.33 137.315 107.102C138.322 106.768 139.382 106.625 140.442 106.679C140.627 106.679 140.794 106.698 140.934 106.72L141.305 106.787C141.402 106.801 141.497 106.823 141.59 106.854Z" fill="black"/>
<path d="M153.545 118.211C153.473 118.043 153.419 117.868 153.382 117.689C153.293 117.352 153.167 116.859 152.989 116.259C152.789 115.555 152.536 114.868 152.23 114.203C151.859 113.394 151.351 112.655 150.73 112.017C150.112 111.378 149.338 110.909 148.485 110.658C147.783 110.47 147.053 110.406 146.329 110.469C145.659 110.544 144.993 110.658 144.336 110.81C144.376 110.783 144.42 110.763 144.466 110.751C144.554 110.717 144.684 110.673 144.836 110.625C145.32 110.481 145.816 110.384 146.318 110.336C147.062 110.249 147.815 110.3 148.54 110.488C149.427 110.739 150.232 111.219 150.874 111.88C151.512 112.534 152.029 113.295 152.4 114.129C152.704 114.805 152.952 115.505 153.141 116.222C153.301 116.83 153.408 117.333 153.475 117.674C153.514 117.851 153.537 118.03 153.545 118.211Z" fill="black"/>
<path d="M146.972 49.0732C154.256 48.7348 159.886 42.5559 159.548 35.2722C159.209 27.9885 153.031 22.3583 145.747 22.6967C138.463 23.0351 132.833 29.214 133.171 36.4977C133.51 43.7813 139.689 49.4116 146.972 49.0732Z" fill="white"/>
<path d="M139.015 51.143C139.137 51.1086 139.261 51.0802 139.386 51.0578C139.742 51.0136 140.104 51.0823 140.419 51.2541C140.636 51.3671 140.826 51.5265 140.975 51.7209C141.14 51.9469 141.236 52.2157 141.253 52.4951C141.287 52.8164 141.223 53.1407 141.068 53.4242C140.913 53.7078 140.674 53.937 140.385 54.0811C140.096 54.2251 139.769 54.2771 139.45 54.23C139.13 54.1829 138.832 54.039 138.597 53.8176C138.384 53.6363 138.228 53.3987 138.145 53.1323C138.076 52.8914 138.062 52.6383 138.104 52.3914C138.158 52.0359 138.321 51.706 138.571 51.4468C138.749 51.2653 138.878 51.2023 138.871 51.1912C138.838 51.2012 138.807 51.2162 138.778 51.2356C138.741 51.2549 138.705 51.2772 138.671 51.3023C138.624 51.3367 138.58 51.3738 138.537 51.4134C138.309 51.6319 138.143 51.9075 138.057 52.2117C137.971 52.5159 137.968 52.8376 138.048 53.1434C138.13 53.4314 138.295 53.689 138.523 53.8843C138.77 54.1042 139.074 54.2505 139.4 54.3066C139.752 54.3807 140.118 54.3339 140.439 54.1739C140.761 54.0139 141.019 53.7499 141.171 53.4249C141.322 53.1301 141.389 52.7994 141.364 52.4692C141.344 52.1698 141.237 51.8828 141.056 51.6431C140.898 51.4368 140.694 51.2705 140.46 51.1578C140.127 50.9859 139.747 50.9273 139.378 50.9911C139.322 50.9995 139.266 51.0131 139.212 51.0319C139.169 51.0426 139.128 51.0575 139.089 51.0763C139.045 51.1171 139.012 51.143 139.015 51.143Z" fill="#263238"/>
<path d="M135.367 43.3971L135.259 43.2082L134.933 42.6673C134.863 42.5451 134.781 42.4117 134.693 42.2672C134.604 42.1228 134.537 41.945 134.448 41.7597C134.359 41.5745 134.267 41.3893 134.167 41.167C134.112 41.0598 134.066 40.9483 134.029 40.8336C133.989 40.7151 133.944 40.5966 133.9 40.4632C133.451 39.2616 133.188 37.9988 133.118 36.718C133.016 35.0218 133.24 33.3216 133.778 31.7097L134.011 31.0355C134.104 30.8095 134.211 30.591 134.311 30.365C134.359 30.2539 134.411 30.1427 134.463 30.0279C134.51 29.9121 134.567 29.8005 134.633 29.6945L135.004 29.0314C135.067 28.9203 135.13 28.8091 135.196 28.698L135.426 28.3794L135.889 27.7349C136.048 27.5237 136.237 27.3274 136.415 27.1199L136.686 26.8125C136.73 26.7643 136.774 26.7087 136.823 26.6606L136.974 26.5198C137.372 26.1205 137.796 25.7492 138.245 25.4085C138.475 25.2418 138.697 25.0381 138.941 24.8936L139.682 24.4379C139.808 24.3639 139.931 24.2787 140.053 24.212L140.457 24.0193C140.727 23.8934 140.994 23.7526 141.272 23.6489C141.843 23.4217 142.428 23.2311 143.024 23.0784L143.476 22.9636L143.705 22.908L143.939 22.8747L144.876 22.7339C145.195 22.7006 145.513 22.6932 145.835 22.6747C145.995 22.6747 146.158 22.6487 146.321 22.6747L146.806 22.6969C147.463 22.7209 148.118 22.789 148.766 22.9006L149.74 23.134L149.984 23.1933C150.066 23.2155 150.144 23.2451 150.225 23.2711L150.703 23.4378L151.185 23.6008L151.651 23.8082L152.118 24.0231L152.351 24.1268C152.429 24.1675 152.5 24.212 152.577 24.2564L153.474 24.7713L154.326 25.3789C156.612 27.0923 158.277 29.5049 159.068 32.2505C159.156 32.5876 159.242 32.9284 159.327 33.2618L159.482 34.288L159.519 34.5436V34.7992L159.545 35.3104L159.571 35.8216L159.549 36.3291L159.527 36.8366V37.0885L159.494 37.3367C159.445 37.6701 159.401 37.9998 159.356 38.3295C159.225 38.9751 159.051 39.6112 158.834 40.2335L158.679 40.6929C158.627 40.8485 158.549 40.9892 158.486 41.1374C158.349 41.4301 158.23 41.7264 158.082 42.0079C157.934 42.2895 157.767 42.5599 157.612 42.834L157.493 43.0378C157.449 43.1044 157.401 43.1674 157.356 43.2304L157.086 43.6008C156.728 44.0999 156.338 44.575 155.919 45.0233C155.708 45.2419 155.482 45.4382 155.267 45.6457L154.937 45.9494C154.83 46.0494 154.704 46.1346 154.589 46.2236L153.892 46.757C153.655 46.9237 153.4 47.0645 153.152 47.2163C152.677 47.5124 152.181 47.7748 151.67 48.0017L151.485 48.0906L151.292 48.1647L150.922 48.3017C150.662 48.3906 150.414 48.4981 150.158 48.5721L149.388 48.7685L149.017 48.8648L148.647 48.9241L147.906 49.0389C147.784 49.0604 147.66 49.0728 147.536 49.0759H147.165C146.921 49.0759 146.676 49.1093 146.424 49.113L145.709 49.0834C144.012 48.9998 142.347 48.5898 140.805 47.8757C140.634 47.7979 140.464 47.7275 140.301 47.6498L139.842 47.383L139.397 47.1311C139.323 47.0867 139.249 47.0496 139.182 47.0052L138.986 46.8644L138.245 46.331C138.012 46.1532 137.812 45.9605 137.608 45.7901L137.319 45.5382C137.226 45.4612 137.138 45.3783 137.056 45.29L136.556 44.8455C136.419 44.6973 136.285 44.564 136.185 44.4343L135.9 44.0639L135.53 43.5638C135.445 43.4527 135.396 43.3971 135.396 43.3971L135.522 43.5712C135.608 43.6897 135.733 43.8564 135.893 44.0787L136.171 44.4491C136.282 44.5825 136.415 44.7159 136.541 44.864L136.986 45.3493C137.067 45.4397 137.155 45.5239 137.249 45.6012L137.538 45.8568C137.738 46.0272 137.938 46.2273 138.171 46.4014L138.912 46.9422L139.108 47.083C139.179 47.1311 139.253 47.1682 139.323 47.2126L139.768 47.4682L140.231 47.7387L140.734 47.9683C142.283 48.6932 143.957 49.1108 145.665 49.1982L146.384 49.2315C146.624 49.2315 146.873 49.2093 147.125 49.1982L147.495 49.176C147.619 49.1755 147.743 49.1643 147.865 49.1426L148.625 49.0278L148.995 48.9685L149.366 48.8722L150.144 48.6759C150.399 48.6018 150.651 48.4981 150.91 48.4091L151.299 48.2684C151.362 48.2425 151.429 48.2239 151.492 48.1943L151.681 48.1054C152.201 47.877 152.705 47.6134 153.189 47.3164C153.433 47.1645 153.689 47.0237 153.93 46.857L154.633 46.3199C154.752 46.2273 154.874 46.1458 155.004 46.0457L155.333 45.7383C155.548 45.5308 155.782 45.3308 155.993 45.1122C156.416 44.6603 156.81 44.1814 157.171 43.6786C157.26 43.549 157.352 43.423 157.445 43.3082C157.489 43.2452 157.538 43.1822 157.582 43.1156L157.701 42.9081L158.178 42.0783C158.327 41.7931 158.449 41.493 158.586 41.2004C158.649 41.0485 158.73 40.904 158.782 40.7521L158.938 40.2854C159.157 39.6587 159.333 39.0175 159.464 38.3665C159.512 38.0368 159.56 37.6997 159.605 37.3663L159.642 37.1144V36.8588L159.664 36.3513L159.686 35.8364L159.66 35.3215L159.631 34.8066V34.5436L159.59 34.288L159.434 33.2544C159.349 32.9136 159.264 32.5728 159.175 32.232C158.393 29.4541 156.722 27.0091 154.418 25.2714L153.559 24.6565L152.651 24.1379C152.577 24.0934 152.503 24.049 152.426 24.0082L152.188 23.9008L151.718 23.686L151.248 23.4785L150.762 23.3118L150.277 23.1451L150.036 23.0636L149.788 23.008C149.462 22.9266 149.132 22.8488 148.806 22.7747C148.153 22.66 147.492 22.5907 146.828 22.5672L146.339 22.545C146.176 22.545 146.013 22.545 145.85 22.545C145.524 22.5672 145.202 22.5709 144.883 22.6043L143.935 22.7487L143.702 22.7858C143.624 22.7858 143.546 22.8228 143.472 22.8413L143.013 22.9599C142.413 23.1116 141.824 23.3034 141.249 23.5341C140.968 23.6526 140.697 23.7971 140.423 23.923L140.019 24.1194C139.886 24.186 139.764 24.2712 139.649 24.349L138.908 24.8084C138.664 24.9714 138.438 25.1603 138.208 25.3307C137.756 25.6715 137.328 26.0428 136.926 26.442L136.774 26.5865C136.726 26.6347 136.682 26.6902 136.637 26.7421C136.593 26.7939 136.456 26.9495 136.363 27.0496C136.185 27.2607 135.993 27.457 135.837 27.6682L135.37 28.3202L135.141 28.6424C135.074 28.7536 135.011 28.8684 134.948 28.9795L134.578 29.6463C134.513 29.7541 134.458 29.8668 134.411 29.9834L134.255 30.3242C134.155 30.5502 134.048 30.7725 133.959 30.9985C133.87 31.2244 133.803 31.4541 133.726 31.6801C133.188 33.3022 132.969 35.0129 133.081 36.718C133.155 38.0051 133.426 39.2732 133.885 40.478L134.018 40.8485C134.055 40.9631 134.101 41.0746 134.155 41.1819L134.444 41.7746C134.537 41.9561 134.611 42.1265 134.696 42.2784L134.941 42.6747L135.278 43.2119C135.322 43.3341 135.367 43.3971 135.367 43.3971Z" fill="#263238"/>
<path d="M139.693 36.218L141.649 34.262L145.42 37.6145L152.822 30.491L154.637 32.4469L145.143 41.3856L139.693 36.218Z" fill="#FF725E"/>
</svg>
