<svg width="155" height="155" viewBox="0 0 155 155" fill="none" xmlns="http://www.w3.org/2000/svg">
<path d="M155 136.212H0V136.316H155V136.212Z" fill="#EBEBEB"/>
<path d="M139.469 140.172H111.29V140.276H139.469V140.172Z" fill="#EBEBEB"/>
<path d="M102.679 139.045H94.9629V139.149H102.679V139.045Z" fill="#EBEBEB"/>
<path d="M120.314 144.037H108.352V144.141H120.314V144.037Z" fill="#EBEBEB"/>
<path d="M23.2811 143.338H16.2627V143.442H23.2811V143.338Z" fill="#EBEBEB"/>
<path d="M34.3759 143.338H26.04V143.442H34.3759V143.338Z" fill="#EBEBEB"/>
<path d="M69.7968 141.583H55.2764V141.687H69.7968V141.583Z" fill="#EBEBEB"/>
<path d="M73.4696 117.656H13.6117C13.1428 117.655 12.6934 117.404 12.3621 116.959C12.0308 116.514 11.8447 115.91 11.8447 115.281V2.35482C11.8488 1.7291 12.0367 1.13082 12.3675 0.689916C12.6984 0.249013 13.1455 0.0011024 13.6117 3.05176e-05H73.4696C73.9391 3.05176e-05 74.3893 0.250315 74.7213 0.695825C75.0532 1.14133 75.2397 1.74557 75.2397 2.37562V115.281C75.2397 115.911 75.0532 116.515 74.7213 116.96C74.3893 117.406 73.9391 117.656 73.4696 117.656ZM13.6117 0.0832389C13.1634 0.084341 12.7336 0.324153 12.4169 0.750038C12.1001 1.17592 11.9222 1.75308 11.9222 2.35482V115.281C11.9222 115.882 12.1001 116.46 12.4169 116.885C12.7336 117.311 13.1634 117.551 13.6117 117.552H73.4696C73.9183 117.551 74.3483 117.311 74.6656 116.886C74.9828 116.46 75.1614 115.883 75.1622 115.281V2.35482C75.1614 1.7527 74.9828 1.17555 74.6656 0.749784C74.3483 0.324018 73.9183 0.0843387 73.4696 0.0832389H13.6117Z" fill="#EBEBEB"/>
<path d="M140.526 117.656H80.6646C80.1954 117.655 79.7457 117.405 79.4139 116.959C79.0821 116.514 78.8954 115.91 78.8945 115.281V2.35482C78.8994 1.72873 79.088 1.13044 79.4193 0.689656C79.7507 0.248868 80.1981 0.00109071 80.6646 3.05176e-05H140.526C140.991 0.0021958 141.438 0.25059 141.768 0.691376C142.098 1.13216 142.285 1.72982 142.29 2.35482V115.281C142.29 115.909 142.104 116.512 141.773 116.958C141.443 117.403 140.994 117.654 140.526 117.656ZM80.6646 0.0832389C80.216 0.0843387 79.7859 0.324018 79.4687 0.749784C79.1514 1.17555 78.9729 1.7527 78.972 2.35482V115.281C78.9729 115.883 79.1514 116.46 79.4687 116.886C79.7859 117.311 80.216 117.551 80.6646 117.552H140.526C140.974 117.551 141.404 117.311 141.722 116.886C142.039 116.46 142.217 115.883 142.218 115.281V2.35482C142.217 1.7527 142.039 1.17555 141.722 0.749784C141.404 0.324018 140.974 0.0843387 140.526 0.0832389H80.6646Z" fill="#EBEBEB"/>
<path d="M16.2596 136.208H53.3232L53.3232 26.2023H16.2596L16.2596 136.208Z" fill="#F0F0F0"/>
<path d="M16.2625 136.208H51.5684L51.5684 26.2023H16.2625L16.2625 136.208Z" fill="#F5F5F5"/>
<path d="M49.709 133.715L49.709 28.7027L18.1231 28.7027L18.1231 133.715H49.709Z" fill="#F0F0F0"/>
<path d="M28.3279 78.2156H21.8892C21.67 78.2145 21.4599 78.0971 21.3049 77.8891C21.1498 77.681 21.0623 77.3991 21.0615 77.1048C21.0623 76.8105 21.1498 76.5286 21.3049 76.3205C21.4599 76.1125 21.67 75.9951 21.8892 75.994H28.3279C28.5472 75.9951 28.7572 76.1125 28.9123 76.3205C29.0673 76.5286 29.1548 76.8105 29.1556 77.1048C29.1548 77.3991 29.0673 77.681 28.9123 77.8891C28.7572 78.0971 28.5472 78.2145 28.3279 78.2156Z" fill="white"/>
<path d="M18.6064 133.715L18.6064 28.7027H18.1228L18.1228 133.715H18.6064Z" fill="#F0F0F0"/>
<path d="M70.689 134.123H76.207V102.005H70.689V134.123Z" fill="#F0F0F0"/>
<path d="M47.9347 136.162H75.1465V134.127H47.9347V136.162Z" fill="#F0F0F0"/>
<path d="M70.6892 102.009H46.875V134.127H70.6892V102.009Z" fill="#F5F5F5"/>
<path d="M68.5162 105.961H49.042V116.496H68.5162V105.961Z" fill="#F0F0F0"/>
<path d="M68.5162 119.637H49.042V130.171H68.5162V119.637Z" fill="#F0F0F0"/>
<path d="M56.5929 106.848H60.967C61.109 106.846 61.245 106.77 61.3454 106.636C61.4458 106.501 61.5025 106.318 61.5033 106.128C61.5033 105.937 61.4469 105.753 61.3465 105.617C61.246 105.482 61.1096 105.405 60.967 105.404H56.5929C56.4504 105.405 56.314 105.482 56.2135 105.617C56.113 105.753 56.0566 105.937 56.0566 106.128C56.0575 106.318 56.1142 106.501 56.2146 106.636C56.315 106.77 56.451 106.846 56.5929 106.848Z" fill="#F5F5F5"/>
<path d="M56.5929 120.527H60.967C61.1074 120.526 61.242 120.451 61.3421 120.319C61.4423 120.187 61.5001 120.008 61.5033 119.82C61.5025 119.629 61.4458 119.447 61.3454 119.312C61.245 119.177 61.109 119.101 60.967 119.1H56.5929C56.451 119.101 56.315 119.177 56.2146 119.312C56.1142 119.447 56.0575 119.629 56.0566 119.82C56.0599 120.008 56.1177 120.187 56.2178 120.319C56.318 120.451 56.4525 120.526 56.5929 120.527Z" fill="#F5F5F5"/>
<path d="M60.5957 101.377C60.4874 101.375 60.3838 101.317 60.3073 101.215C60.2307 101.112 60.1873 100.973 60.1865 100.827V84.14C60.1865 83.9944 60.2296 83.8547 60.3064 83.7517C60.3831 83.6487 60.4872 83.5909 60.5957 83.5909C60.704 83.5919 60.8076 83.6501 60.8842 83.7529C60.9607 83.8557 61.0041 83.9947 61.0049 84.14V100.827C61.0041 100.973 60.9607 101.112 60.8842 101.215C60.8076 101.317 60.704 101.375 60.5957 101.377Z" fill="#F5F5F5"/>
<path d="M64.4246 100.728H56.7676V102.021H64.4246V100.728Z" fill="#F0F0F0"/>
<path d="M62.7163 91.3916C62.6626 91.3916 62.611 91.3633 62.5727 91.3127C62.5345 91.2621 62.5125 91.1933 62.5117 91.1212V82.7921C62.5125 82.7196 62.5343 82.6503 62.5725 82.5991C62.6107 82.5478 62.6623 82.5185 62.7163 82.5175C62.7703 82.5185 62.8219 82.5478 62.8601 82.5991C62.8983 82.6503 62.9201 82.7196 62.9209 82.7921V91.1129C62.9213 91.1493 62.9163 91.1854 62.9062 91.2192C62.8961 91.253 62.8811 91.2838 62.8621 91.3097C62.8431 91.3357 62.8204 91.3563 62.7953 91.3703C62.7703 91.3844 62.7435 91.3916 62.7163 91.3916Z" fill="#F0F0F0"/>
<path d="M54.6406 85.6628C54.6406 85.6628 54.7925 77.7996 60.5957 77.7996C66.3989 77.7996 66.5477 85.6544 66.5477 85.6544L54.6406 85.6628Z" fill="#F0F0F0"/>
<path d="M104.876 96.7711C105.04 96.7711 105.208 96.7711 105.375 96.7919C107.09 96.9581 108.702 97.9503 109.915 99.5855C111.127 101.221 111.859 103.389 111.975 105.691C112.024 106.737 111.946 107.786 111.746 108.799C110.968 112.86 110.593 117.041 110.63 121.234V133.441C110.63 133.652 110.599 133.862 110.539 134.057C110.479 134.252 110.39 134.43 110.279 134.579C110.167 134.728 110.035 134.847 109.889 134.927C109.744 135.007 109.587 135.048 109.43 135.047H80.5596V96.7711H104.876Z" fill="#F0F0F0"/>
<path d="M73.4453 106.319C73.4484 104.962 73.6671 103.621 74.0868 102.386C74.5066 101.152 75.1178 100.051 75.8795 99.1587C76.6413 98.2661 77.5362 97.6017 78.5044 97.2101C79.4727 96.8184 80.4921 96.7084 81.4945 96.8874C82.497 97.0664 83.4594 97.5302 84.3177 98.248C85.176 98.9658 85.9103 99.921 86.4717 101.05C87.0331 102.179 87.4086 103.455 87.5732 104.794C87.7378 106.134 87.6878 107.504 87.4263 108.815C86.6517 112.877 86.2775 117.058 86.3134 121.251V133.457C86.3134 133.668 86.2824 133.877 86.2223 134.071C86.1621 134.266 86.0739 134.443 85.9627 134.592C85.8516 134.74 85.7197 134.858 85.5745 134.939C85.4293 135.019 85.2738 135.06 85.1168 135.059H75.9997C75.843 135.059 75.6878 135.018 75.543 134.937C75.3982 134.857 75.2666 134.739 75.1558 134.59C75.045 134.441 74.957 134.265 74.8971 134.07C74.8371 133.876 74.8062 133.668 74.8062 133.457V120.519C74.8325 116.586 74.4613 112.668 73.7026 108.869C73.5317 108.039 73.4451 107.181 73.4453 106.319Z" fill="#F5F5F5"/>
<path d="M90.3622 135.047H116.281V111.807H90.3622V135.047Z" fill="#F0F0F0"/>
<path d="M137.701 117.065H103.009V81.4233C103.009 79.5078 103.576 77.6707 104.585 76.3162C105.595 74.9618 106.963 74.2008 108.391 74.2008H132.32C133.747 74.2008 135.116 74.9618 136.125 76.3162C137.134 77.6707 137.701 79.5078 137.701 81.4233V117.065Z" fill="#E0E0E0"/>
<path d="M130.922 117.065H96.2298V81.0738C96.2298 79.2499 96.7697 77.5006 97.7306 76.2109C98.6916 74.9212 99.995 74.1967 101.354 74.1967H125.785C127.144 74.1967 128.448 74.9212 129.409 76.2109C130.37 77.5006 130.909 79.2499 130.909 81.0738V117.065H130.922Z" fill="#F5F5F5"/>
<path d="M114.589 119.15L90.6968 119.15C90.2858 119.15 89.8915 118.931 89.6008 118.541C89.3101 118.15 89.1468 117.621 89.1468 117.07V111.798C89.1468 111.247 89.3101 110.718 89.6008 110.327C89.8915 109.937 90.2858 109.718 90.6968 109.718H114.589C114.713 109.718 114.832 109.784 114.92 109.902C115.007 110.02 115.057 110.18 115.057 110.346V118.526C115.056 118.692 115.006 118.85 114.918 118.967C114.831 119.084 114.712 119.15 114.589 119.15Z" fill="#E0E0E0"/>
<path d="M140.259 96.7711C140.423 96.7711 140.588 96.7711 140.758 96.7919C142.472 96.9591 144.084 97.9517 145.296 99.5868C146.508 101.222 147.239 103.39 147.355 105.691C147.407 106.737 147.329 107.787 147.125 108.799C146.348 112.862 145.973 117.044 146.009 121.238V133.445C146.009 133.656 145.978 133.864 145.918 134.059C145.858 134.254 145.77 134.43 145.659 134.579C145.548 134.728 145.416 134.846 145.271 134.926C145.125 135.006 144.97 135.047 144.813 135.047H115.939V96.7711H140.259Z" fill="#F0F0F0"/>
<path d="M108.828 106.319C108.816 103.831 109.528 101.434 110.813 99.6406C112.098 97.8468 113.854 96.7973 115.707 96.7159C117.56 96.6345 119.364 97.5277 120.733 99.205C122.103 100.882 122.93 103.211 123.039 105.695C123.088 106.741 123.01 107.79 122.809 108.803C122.032 112.864 121.657 117.045 121.693 121.238V133.445C121.693 133.87 121.568 134.277 121.344 134.578C121.12 134.878 120.816 135.047 120.5 135.047H111.38C111.223 135.047 111.068 135.005 110.923 134.925C110.778 134.844 110.646 134.726 110.536 134.578C110.425 134.429 110.337 134.252 110.277 134.058C110.217 133.864 110.186 133.655 110.186 133.445V120.519C110.212 116.587 109.842 112.668 109.086 108.869C108.915 108.039 108.828 107.181 108.828 106.319Z" fill="#F5F5F5"/>
<path d="M81.0651 136.212H139.751C139.865 136.212 139.978 136.181 140.083 136.123C140.188 136.064 140.284 135.978 140.364 135.87C140.444 135.762 140.508 135.634 140.551 135.492C140.594 135.351 140.617 135.2 140.616 135.047H80.2002C80.1998 135.2 80.2219 135.351 80.2651 135.492C80.3084 135.634 80.3721 135.762 80.4524 135.87C80.5328 135.978 80.6283 136.064 80.7334 136.123C80.8385 136.181 80.9513 136.212 81.0651 136.212Z" fill="#E0E0E0"/>
<path d="M115.822 46.9585H134.698V19.3293L115.822 19.3293V46.9585Z" fill="#E0E0E0"/>
<path d="M114.697 46.9585H134.062V19.3293L114.697 19.3293V46.9585Z" fill="#F5F5F5"/>
<path d="M132.438 44.7826V21.5052H116.314V44.7826H132.438Z" fill="white"/>
<path d="M124.378 27.259L128.786 37.5102H119.97L124.378 27.259Z" fill="#F5F5F5"/>
<path d="M89.3419 63.0884H108.218V35.4591H89.3419V63.0884Z" fill="#E0E0E0"/>
<path d="M88.2163 63.0884H107.582V35.4591H88.2163V63.0884Z" fill="#F5F5F5"/>
<path d="M105.958 60.9125V37.635H89.8349V60.9125H105.958Z" fill="white"/>
<path d="M95.9267 53.4238L94.014 48.9763C93.815 48.5121 93.7105 47.9858 93.7109 47.4503C93.7114 46.9147 93.8168 46.3887 94.0165 45.9251C94.2162 45.4615 94.5033 45.0765 94.8489 44.8088C95.1946 44.5411 95.5865 44.4 95.9856 44.3999H99.8203C100.219 44.4006 100.611 44.5418 100.957 44.8096C101.302 45.0773 101.589 45.462 101.789 45.9254C101.989 46.3887 102.095 46.9144 102.096 47.4498C102.097 47.9852 101.993 48.5116 101.795 48.9763L99.8823 53.4238C99.6829 53.8915 99.395 54.2803 99.0477 54.5506C98.7004 54.821 98.306 54.9634 97.9045 54.9634C97.503 54.9634 97.1086 54.821 96.7613 54.5506C96.414 54.2803 96.1261 53.8915 95.9267 53.4238Z" fill="#F5F5F5"/>
<path d="M77.5004 155C110.696 155 137.606 152.891 137.606 150.29C137.606 147.689 110.696 145.581 77.5004 145.581C44.3049 145.581 17.3945 147.689 17.3945 150.29C17.3945 152.891 44.3049 155 77.5004 155Z" fill="#F5F5F5"/>
<path d="M98.1155 18.4306H26.6543L31.357 149.042H102.818L98.1155 18.4306Z" fill="#CA6035"/>
<path opacity="0.2" d="M98.1155 18.4306H26.6543L31.357 149.042H102.818L98.1155 18.4306Z" fill="black"/>
<path d="M98.7757 18.4306H27.3145L32.0203 149.042H103.481L98.7757 18.4306Z" fill="#CA6035"/>
<path opacity="0.2" d="M95.0031 22.824H30.582L35.0832 143.139L91.1002 143.039L100.41 131.964L95.0031 22.824Z" fill="black"/>
<path d="M95.496 22.8199C96.183 58.8516 98.3511 94.805 101.991 130.516C96.8859 135.231 91.807 139.946 86.754 144.661H38.5738C34.0263 104.31 31.3572 63.6171 30.582 22.8199H95.496Z" fill="white"/>
<path d="M101.99 130.516C96.8857 135.231 91.8069 139.946 86.7539 144.661C87.8575 138.421 89.0076 132.18 90.2042 125.94L101.99 130.516Z" fill="#EBEBEB"/>
<path d="M48.0504 33.8283C48.1723 38.2328 48.3149 42.64 48.4782 47.05H38.6295C38.4641 42.64 38.3215 38.2328 38.2017 33.8283H48.0504ZM49.0548 32.4345H37.126C37.2644 37.7682 37.437 43.1046 37.6437 48.4438H49.5756C49.3689 43.1074 49.1963 37.771 49.0579 32.4345H49.0548Z" fill="#CA6035"/>
<path d="M88.2946 38.7916H54.5604C54.5294 37.7973 54.5015 36.7988 54.4736 35.8045H88.2047C88.2326 36.7988 88.2636 37.7973 88.2946 38.7916Z" fill="#E0E0E0"/>
<path d="M81.1679 45.0739H54.7683C54.7342 44.0754 54.697 43.081 54.666 42.0867H81.0625C81.0976 43.0824 81.1328 44.0781 81.1679 45.0739Z" fill="#E0E0E0"/>
<path d="M49.0179 59.7226C49.2246 64.1327 49.455 68.5427 49.7092 72.9527H39.8574C39.6032 68.5427 39.3728 64.1327 39.1661 59.7226H49.0179ZM49.9913 58.3289H38.0625C38.3064 63.6681 38.5843 69.0073 38.8964 74.3465H50.8407C50.5307 69.01 50.2517 63.6709 50.0037 58.3289H49.9913Z" fill="#CA6035"/>
<path d="M68.0136 64.6902H55.6136C55.564 63.6917 55.5113 62.6973 55.4648 61.6988H67.8648C67.9113 62.6973 67.9609 63.6917 68.0136 64.6902Z" fill="#E0E0E0"/>
<path d="M79.7542 64.6902H70.6371C70.5875 63.6917 70.5348 62.6973 70.4883 61.6988H79.6054C79.6519 62.6973 79.7015 63.6917 79.7542 64.6902Z" fill="#E0E0E0"/>
<path d="M85.4766 70.9765H55.9553C55.8995 69.978 55.8468 68.9837 55.791 67.9852H85.3123C85.3681 68.9837 85.4208 69.978 85.4766 70.9765Z" fill="#E0E0E0"/>
<path d="M50.497 85.6295C50.7925 90.0395 51.1108 94.4495 51.4518 98.8596H41.6C41.259 94.4495 40.9407 90.0395 40.6452 85.6295H50.497ZM51.4456 84.2357H39.5137C39.865 89.5777 40.2494 94.9183 40.6669 100.257H52.5988C52.1854 94.9155 51.801 89.5749 51.4456 84.2357Z" fill="#CA6035"/>
<path d="M91.1709 93.8962H57.4336L57.6568 96.8833H91.3941L91.1709 93.8962Z" fill="#E0E0E0"/>
<path d="M83.3898 87.6098H56.9902C57.0584 88.6042 57.1266 89.6027 57.1979 90.597H83.5944C83.5262 89.6027 83.4549 88.6166 83.3898 87.6098Z" fill="#E0E0E0"/>
<path d="M52.4897 111.536C52.8741 115.946 53.2802 120.355 53.708 124.762H43.8562C43.4284 120.358 43.0223 115.949 42.6379 111.536H52.4897ZM53.4197 110.143H41.4785C41.9332 115.485 42.424 120.822 42.951 126.156H54.8705C54.3476 120.822 53.8568 115.485 53.398 110.143H53.4197Z" fill="#CA6035"/>
<path d="M93.0283 116.491H59.291C59.2011 115.493 59.1112 114.499 59.0244 113.5H92.7586C92.8485 114.511 92.9353 115.505 93.0283 116.491Z" fill="#E0E0E0"/>
<path d="M75.2342 122.786H59.8768C59.7807 121.792 59.6877 120.793 59.5947 119.799H74.9521C75.0451 120.793 75.1381 121.792 75.2342 122.786Z" fill="#E0E0E0"/>
<path d="M84.4042 122.786H77.7733C77.6772 121.792 77.5842 120.793 77.4912 119.799H84.1221C84.2151 120.793 84.3205 121.792 84.4042 122.786Z" fill="#E0E0E0"/>
<path d="M43.7106 45.1612L43.2735 44.2293C42.3187 42.1907 40.3719 40.3726 39.6992 39.8401L40.2014 38.646C41.5212 39.7216 42.7004 41.0807 43.692 42.6691C45.1924 39.9274 47.412 37.0942 50.45 34.0488L51.0917 35.1721C47.8491 38.4297 45.5799 41.4127 44.1477 44.2834L43.7106 45.1612Z" fill="#CA6035"/>
<path d="M44.8891 71.0639L44.4334 70.132C43.4414 68.0934 41.4574 66.2711 40.7754 65.7386L41.2497 64.5445C42.5946 65.6205 43.8015 66.9804 44.824 68.5718C46.2686 65.8259 48.4293 62.9927 51.4084 59.9431C51.6285 60.3176 51.8517 60.692 52.0718 61.0706C48.8943 64.3324 46.684 67.3112 45.3107 70.186C45.1681 70.4773 45.0286 70.7727 44.8891 71.0639Z" fill="#CA6035"/>
<path d="M46.5992 97.0373L46.1249 96.1054C45.0895 94.0668 43.0683 92.2445 42.377 91.7162C42.5258 91.3001 42.687 90.9173 42.8296 90.5221C44.1955 91.5998 45.4276 92.9572 46.4814 94.5452C47.8733 91.7994 49.9782 88.9703 52.8922 85.9165L53.5804 87.044C50.4804 90.3058 48.3104 93.2846 46.9991 96.1595L46.5992 97.0373Z" fill="#CA6035"/>
<path d="M77.8506 137.485C76.0216 137.485 74.9676 136.578 74.0376 135.779C73.1076 134.98 72.3078 134.29 70.764 134.29C69.2202 134.29 68.532 135.013 67.8035 135.779C67.075 136.545 66.1822 137.485 64.3532 137.485C62.5242 137.485 61.4702 136.578 60.5433 135.779C59.6164 134.98 58.8166 134.29 57.2697 134.29C55.7228 134.29 55.0377 135.013 54.3092 135.779C53.5807 136.545 52.6879 137.485 50.862 137.485C49.0361 137.485 47.979 136.578 47.049 135.779C46.119 134.98 45.3223 134.29 43.7754 134.29C43.7351 133.874 43.6917 133.491 43.6514 133.091C45.4804 133.091 46.5313 133.998 47.4613 134.797C48.3913 135.596 49.188 136.287 50.7318 136.287C52.2756 136.287 52.9638 135.563 53.6923 134.797C54.4208 134.032 55.3167 133.091 57.1457 133.091C58.9747 133.091 60.0225 133.998 60.9525 134.797C61.8825 135.596 62.6823 136.287 64.2261 136.287C65.7699 136.287 66.4581 135.563 67.1866 134.797C67.9151 134.032 68.811 133.091 70.64 133.091C72.469 133.091 73.5199 133.998 74.4499 134.797C75.3799 135.596 76.1766 136.287 77.7235 136.287C77.7638 136.686 77.8103 137.085 77.8506 137.485Z" fill="#EBEBEB"/>
<path d="M80.4738 21.6633C79.426 17.9189 77.0049 15.4601 74.4009 15.4601H69.0937C68.6986 15.4555 68.3132 15.2953 67.9853 14.9995C67.6575 14.7037 67.4015 14.2852 67.2492 13.7959C66.874 12.6001 66.2466 11.5776 65.4442 10.8539C64.6417 10.1303 63.6992 9.73718 62.7325 9.7229C61.7973 9.71017 60.8835 10.0983 60.1241 10.8309C59.3647 11.5635 58.7993 12.6022 58.5103 13.7959C58.3925 14.2843 58.1614 14.7094 57.8507 15.0088C57.54 15.3082 57.166 15.4664 56.7836 15.4601H51.4795C48.8724 15.4601 46.628 17.9314 45.853 21.6633L45.543 23.1485H80.883L80.4738 21.6633Z" fill="#263238"/>
<path d="M80.6618 24.613H45.8798C45.5864 24.6084 45.3053 24.4547 45.093 24.183C44.8807 23.9112 44.7531 23.5416 44.7359 23.1485C44.7283 22.9597 44.7495 22.7708 44.7984 22.5934C44.8472 22.416 44.9226 22.2539 45.0199 22.1171C45.1172 21.9803 45.2343 21.8716 45.3641 21.7979C45.4938 21.7241 45.6335 21.6868 45.7744 21.6882H80.5564C80.8492 21.6927 81.1299 21.8458 81.3421 22.1167C81.5543 22.3876 81.6823 22.7562 81.7003 23.1485C81.7083 23.3377 81.6874 23.5271 81.6387 23.705C81.5901 23.8829 81.5148 24.0455 81.4174 24.1827C81.3201 24.32 81.2028 24.429 81.0729 24.503C80.9429 24.577 80.803 24.6144 80.6618 24.613Z" fill="#CA6035"/>
<path opacity="0.2" d="M80.6618 24.613H45.8798C45.5864 24.6084 45.3053 24.4547 45.093 24.183C44.8807 23.9112 44.7531 23.5416 44.7359 23.1485C44.7283 22.9597 44.7495 22.7708 44.7984 22.5934C44.8472 22.416 44.9226 22.2539 45.0199 22.1171C45.1172 21.9803 45.2343 21.8716 45.3641 21.7979C45.4938 21.7241 45.6335 21.6868 45.7744 21.6882H80.5564C80.8492 21.6927 81.1299 21.8458 81.3421 22.1167C81.5543 22.3876 81.6823 22.7562 81.7003 23.1485C81.7083 23.3377 81.6874 23.5271 81.6387 23.705C81.5901 23.8829 81.5148 24.0455 81.4174 24.1827C81.3201 24.32 81.2028 24.429 81.0729 24.503C80.9429 24.577 80.803 24.6144 80.6618 24.613Z" fill="black"/>
<path d="M111.885 147.79H109.613L109.387 140.73H111.659L111.885 147.79Z" fill="#FFC3BD"/>
<path d="M125.522 147.79H123.25L122.109 140.73H124.379L125.522 147.79Z" fill="#FFC3BD"/>
<path d="M123.089 147.436H125.641C125.686 147.436 125.729 147.457 125.764 147.494C125.799 147.532 125.824 147.585 125.833 147.644L126.282 150.357C126.293 150.423 126.292 150.491 126.28 150.556C126.268 150.621 126.245 150.682 126.213 150.734C126.181 150.786 126.141 150.828 126.096 150.856C126.05 150.884 126.001 150.899 125.951 150.898C125.061 150.877 124.627 150.806 123.505 150.806C122.814 150.806 121.391 150.902 120.439 150.902C119.487 150.902 119.36 149.654 119.751 149.525C121.502 149.009 122.159 148.302 122.721 147.624C122.822 147.503 122.954 147.436 123.089 147.436Z" fill="#263238"/>
<path d="M109.629 147.436H112.109C112.154 147.436 112.198 147.457 112.233 147.494C112.268 147.532 112.292 147.585 112.301 147.644L112.751 150.357C112.762 150.421 112.762 150.487 112.752 150.55C112.742 150.614 112.721 150.674 112.691 150.726C112.662 150.778 112.624 150.82 112.581 150.85C112.537 150.879 112.49 150.896 112.441 150.898C111.545 150.877 110.252 150.806 109.127 150.806C107.813 150.806 106.678 150.902 105.134 150.902C104.204 150.902 103.944 149.654 104.334 149.525C106.111 149.001 107.562 148.947 109.096 147.674C109.255 147.532 109.439 147.45 109.629 147.436Z" fill="#263238"/>
<path d="M114.081 36.5783C113.771 38.8083 113.591 41.5708 114.754 43.0602C114.754 43.0602 114.087 45.3234 111 45.3234C108.179 45.3234 109.592 43.0602 109.592 43.0602C111.452 42.4653 111.347 39.3907 111.025 37.6517L114.081 36.5783Z" fill="#FFC3BD"/>
<path d="M108.705 43.3722C108.767 42.8189 109.492 42.174 110.317 41.9327C111.142 41.6914 114.31 41.1547 115.277 41.6914C116.244 42.2281 115.11 43.8174 115.11 43.8174L108.705 43.3722Z" fill="#CA6035"/>
<path opacity="0.4" d="M108.705 43.3722C108.767 42.8189 109.492 42.174 110.317 41.9327C111.142 41.6914 114.31 41.1547 115.277 41.6914C116.244 42.2281 115.11 43.8174 115.11 43.8174L108.705 43.3722Z" fill="white"/>
<path opacity="0.2" d="M109.387 140.734L109.505 144.37H111.777L111.659 140.734H109.387Z" fill="black"/>
<path opacity="0.2" d="M124.382 140.734H122.109L122.698 144.37H124.971L124.382 140.734Z" fill="black"/>
<path d="M119.46 45.8061L116.723 48.2607C116.723 48.2607 120.653 57.6424 120.325 59.1443C119.875 61.1912 119.249 65.6637 118.397 67.9352C118.508 68.4262 119.076 69.5453 119.392 69.7367C121.562 67.5234 123.753 60.5838 123.673 58.6409C123.484 54.235 119.46 45.8061 119.46 45.8061Z" fill="#FFC3BD"/>
<path d="M118.397 67.9436L116.227 67.7189L117.364 70.9266C117.364 70.9266 119.258 71.0389 119.575 69.096L118.397 67.9436Z" fill="#B55B52"/>
<path d="M129.122 83.5867L128.939 84.0485L127.712 87.1646L84.1318 56.2404L85.5392 52.6624L129.122 83.5867Z" fill="#CA6035"/>
<path d="M131.94 76.4433L131.041 78.7232L130.532 80.0129L86.9492 49.0886L88.3566 45.5107L131.94 76.4433Z" fill="#CA6035"/>
<path d="M86.9641 49.0781L85.5537 52.6516L129.119 83.6214L130.529 80.0479L86.9641 49.0781Z" fill="#CA6035"/>
<path opacity="0.2" d="M86.9641 49.0781L85.5537 52.6516L129.119 83.6214L130.529 80.0479L86.9641 49.0781Z" fill="black"/>
<path d="M82.2523 45.9849L80.9844 49.2051L84.1309 56.2403L88.3562 45.5148L82.2523 45.9849Z" fill="#CA6035"/>
<path opacity="0.8" d="M82.2523 45.9849L80.9844 49.2051L84.1309 56.2403L88.3562 45.5148L82.2523 45.9849Z" fill="white"/>
<path d="M79.6367 46.1888L80.9852 49.2051L82.2531 45.985L79.6367 46.1888Z" fill="#CA6035"/>
<path d="M114.48 69.1792L115.615 72.0166L117.373 70.9266L116.235 67.7189L114.48 69.1792Z" fill="#B55B52"/>
<path d="M118.808 43.7508C120.956 44.1669 123.417 54.1518 123.417 54.1518L118.904 57.5717C118.904 57.5717 116.917 52.8371 115.94 49.3008C114.911 45.6022 116.504 43.3015 118.808 43.7508Z" fill="#263238"/>
<path opacity="0.2" d="M117.559 47.1748C116.582 45.9766 117.18 51.1064 117.645 54.389C117.884 55.0297 118.11 55.6121 118.303 56.0989C119.391 53.5194 118.904 48.8265 117.559 47.1748Z" fill="black"/>
<path d="M106.086 43.9089C106.086 43.9089 103.404 53.1117 105.949 70.2526H118.111C118.194 67.7564 117.023 55.5414 118.821 43.7508C117.477 43.4028 116.119 43.1721 114.753 43.0602C113.034 42.927 111.311 42.927 109.592 43.0602C108.408 43.219 107.236 43.5028 106.086 43.9089Z" fill="#263238"/>
<path d="M107.955 48.1858L104.892 46.5591C104.892 46.5591 101.364 56.2237 100.242 56.7105C98.7325 57.3761 95.6325 59.2067 93.7539 59.5645C93.5183 59.9806 93.1525 61.2287 93.2114 61.6863C95.7999 62.8221 101.309 61.3161 102.449 60.1262C105.066 57.4136 107.955 48.1858 107.955 48.1858Z" fill="#FFC3BD"/>
<path opacity="0.2" d="M108.3 47.0875C107.794 45.5232 106.827 44.87 105.82 45.0988C105.429 47.0167 104.769 51.2312 104.89 57.58L105.612 58.046C105.612 58.046 109.164 49.7626 108.3 47.0875Z" fill="black"/>
<path d="M108.783 45.9933C109.546 48.7225 105.683 56.7521 105.683 56.7521L101.139 53.4238C101.821 50.9263 102.702 48.5343 103.764 46.2887C105.361 43.0893 107.943 43.0019 108.783 45.9933Z" fill="#263238"/>
<path d="M93.8653 59.5562L91.1621 60.3259L92.5323 63.6833C93.2879 63.1789 93.9744 62.5065 94.5628 61.6946L93.8653 59.5562Z" fill="#FFC3BD"/>
<path d="M89.8848 61.0872L90.9636 63.0925L92.5322 63.6999L91.162 60.3425L89.8848 61.0872Z" fill="#FFC3BD"/>
<path d="M108.928 33.3706C108.928 33.6161 108.813 33.7867 108.693 33.7867C108.572 33.7867 108.485 33.5703 108.497 33.3249C108.51 33.0794 108.612 32.9088 108.733 32.9088C108.854 32.9088 108.941 33.1252 108.928 33.3706Z" fill="#263238"/>
<path d="M109.089 33.3914C108.839 34.1244 108.514 34.8076 108.125 35.4217C108.245 35.5517 108.384 35.6447 108.534 35.6943C108.683 35.7439 108.839 35.7489 108.99 35.7088L109.089 33.3914Z" fill="#ED847E"/>
<path d="M108.696 32.5219C108.679 32.5172 108.663 32.5088 108.649 32.4969C108.637 32.4868 108.627 32.4735 108.618 32.4579C108.61 32.4423 108.605 32.4246 108.602 32.4059C108.599 32.3873 108.599 32.3681 108.602 32.3494C108.604 32.3307 108.61 32.313 108.618 32.2972C108.708 32.1024 108.831 31.939 108.977 31.8204C109.123 31.7018 109.288 31.6313 109.458 31.6149C109.486 31.6169 109.513 31.6329 109.533 31.6598C109.553 31.6867 109.565 31.7226 109.567 31.7605C109.567 31.7992 109.555 31.8362 109.535 31.8635C109.514 31.8908 109.487 31.9062 109.458 31.9062C109.326 31.9227 109.198 31.9806 109.086 32.0753C108.973 32.1699 108.879 32.2987 108.81 32.4512C108.799 32.4775 108.782 32.4985 108.761 32.5112C108.741 32.5239 108.718 32.5276 108.696 32.5219Z" fill="#263238"/>
<path d="M115.091 33.1584C114.825 36.1622 114.781 37.9346 113.582 39.399C111.774 41.5957 109.062 40.0023 108.653 36.9486C108.287 34.2027 108.786 29.7552 111.037 28.7234C111.532 28.4935 112.063 28.4372 112.579 28.5599C113.095 28.6826 113.579 28.9802 113.985 29.4245C114.391 29.8688 114.706 30.445 114.9 31.0985C115.093 31.752 115.159 32.4611 115.091 33.1584Z" fill="#FFC3BD"/>
<path d="M110.581 33.7451C109.796 33.9531 108.544 31.6149 109.567 29.6304C109.049 29.2851 107.36 30.6497 106.724 29.3766C106.089 28.1035 107.853 27.4254 107.515 26.3479C108.711 26.6765 106.74 28.6818 107.877 28.4863C109.015 28.2908 110.326 25.47 111.597 26.6266C113.845 28.6527 116.908 25.2745 115.658 29.5056C117.19 29.0896 118.238 31.5192 116.778 33.2042C113.867 36.5533 115.659 36.9943 113.814 37.1649C112.89 37.2564 110.742 35.7795 110.581 33.7451Z" fill="#263238"/>
<path d="M111.744 34.5314C111.637 34.8317 111.486 35.1001 111.3 35.3209C111.114 35.5417 110.897 35.7103 110.662 35.8169C110.042 36.104 109.686 35.3593 109.831 34.5397C109.962 33.7991 110.451 32.759 111.093 32.8339C111.234 32.8524 111.369 32.918 111.486 33.0246C111.603 33.1313 111.698 33.2757 111.763 33.4445C111.828 33.6134 111.86 33.8014 111.857 33.9912C111.853 34.1811 111.815 34.3668 111.744 34.5314Z" fill="#FFC3BD"/>
<path d="M110.258 70.2526C110.258 70.2526 112.837 93.5508 114.251 102.288C115.801 111.857 121.638 143.68 121.638 143.68H125.798C125.798 143.68 121.951 112.618 121.064 103.153C120.107 92.8852 118.098 70.2651 118.098 70.2651L110.258 70.2526Z" fill="#CA6035"/>
<path opacity="0.2" d="M110.258 70.2526C110.258 70.2526 112.837 93.5508 114.251 102.288C115.801 111.857 121.638 143.68 121.638 143.68H125.798C125.798 143.68 121.951 112.618 121.064 103.153C120.107 92.8852 118.098 70.2651 118.098 70.2651L110.258 70.2526Z" fill="white"/>
<path opacity="0.2" d="M113.322 78.3987C113.13 78.0326 112.956 77.9078 112.795 77.9826H112.761C112.724 78.0042 112.69 78.0322 112.658 78.0659C112.626 78.1018 112.595 78.1423 112.569 78.1865L112.519 78.2697L112.454 78.407C112.4 78.5281 112.353 78.6547 112.314 78.7856C112.29 78.8647 112.265 78.9479 112.243 79.0311C112.221 79.1143 112.187 79.2433 112.162 79.3597C112.138 79.4762 112.091 79.6759 112.057 79.8465C112.057 79.8923 112.042 79.9339 112.032 79.9796C112.023 80.0254 111.998 80.171 111.983 80.2667C111.967 80.3624 111.955 80.4331 111.942 80.5163C111.914 80.6786 111.89 80.8492 111.865 81.0239C111.84 81.1986 111.812 81.4025 111.787 81.598C111.787 81.6646 111.772 81.7312 111.763 81.8019C111.732 82.0515 111.704 82.3053 111.676 82.5674C112.364 88.367 113.182 95.0153 113.846 99.6542C113.877 99.5044 113.911 99.3463 113.939 99.1757C114.074 98.4018 114.178 97.6185 114.249 96.8293C114.835 90.8508 114.565 80.7826 113.322 78.3987Z" fill="black"/>
<path d="M105.949 70.2526C105.949 70.2526 105.639 93.0433 105.884 102.342C106.142 112.011 108.659 143.667 108.659 143.667H112.506C112.506 143.667 112.645 112.572 112.816 103.078C113.002 92.7271 113.932 70.2526 113.932 70.2526H105.949Z" fill="#CA6035"/>
<path opacity="0.2" d="M105.949 70.2526C105.949 70.2526 105.639 93.0433 105.884 102.342C106.142 112.011 108.659 143.667 108.659 143.667H112.506C112.506 143.667 112.645 112.572 112.816 103.078C113.002 92.7271 113.932 70.2526 113.932 70.2526H105.949Z" fill="white"/>
<path d="M112.761 142.086C112.776 142.086 112.761 143.771 112.761 143.771H108.325L108.139 141.878L112.761 142.086Z" fill="#263238"/>
<path d="M125.799 142.211C125.818 142.211 126.007 143.771 126.007 143.771H121.434L121.031 141.982L125.799 142.211Z" fill="#263238"/>
<path d="M122.339 147.969C122.185 147.986 122.03 147.932 121.902 147.815C121.86 147.77 121.828 147.711 121.808 147.643C121.789 147.576 121.783 147.504 121.79 147.432C121.791 147.391 121.799 147.35 121.815 147.314C121.831 147.278 121.853 147.249 121.88 147.228C122.131 147.058 122.866 147.644 122.95 147.728C122.958 147.736 122.965 147.748 122.969 147.761C122.973 147.774 122.973 147.789 122.971 147.803C122.97 147.817 122.965 147.83 122.958 147.84C122.951 147.85 122.941 147.858 122.931 147.861C122.737 147.926 122.539 147.962 122.339 147.969ZM122.001 147.341C121.978 147.334 121.953 147.334 121.93 147.341C121.919 147.349 121.91 147.361 121.904 147.376C121.898 147.391 121.895 147.407 121.896 147.424C121.891 147.472 121.895 147.522 121.908 147.568C121.921 147.613 121.942 147.654 121.97 147.686C122.223 147.844 122.512 147.865 122.776 147.744C122.54 147.544 122.276 147.407 122.001 147.341Z" fill="#CA6035"/>
<path d="M122.919 147.865C122.911 147.868 122.902 147.868 122.894 147.865C122.658 147.694 122.206 147.033 122.252 146.688C122.26 146.635 122.282 146.587 122.313 146.553C122.344 146.519 122.383 146.5 122.423 146.5C122.464 146.492 122.505 146.496 122.545 146.512C122.585 146.528 122.621 146.555 122.652 146.592C122.916 146.879 122.962 147.761 122.962 147.798C122.962 147.811 122.96 147.824 122.955 147.835C122.951 147.847 122.945 147.857 122.937 147.865C122.931 147.866 122.925 147.866 122.919 147.865ZM122.46 146.617H122.451C122.379 146.617 122.373 146.671 122.37 146.692C122.342 146.891 122.631 147.395 122.866 147.632C122.85 147.285 122.756 146.953 122.596 146.679C122.577 146.656 122.553 146.64 122.528 146.63C122.503 146.621 122.477 146.619 122.451 146.625L122.46 146.617Z" fill="#CA6035"/>
<path d="M108.684 147.969C108.489 147.993 108.295 147.927 108.132 147.782C108.096 147.738 108.069 147.684 108.052 147.623C108.034 147.562 108.028 147.497 108.033 147.432C108.033 147.393 108.041 147.354 108.056 147.32C108.072 147.287 108.094 147.259 108.12 147.241C108.396 147.033 109.31 147.657 109.412 147.728C109.423 147.734 109.431 147.745 109.436 147.758C109.441 147.772 109.443 147.788 109.44 147.803C109.439 147.817 109.434 147.831 109.426 147.842C109.418 147.852 109.408 147.859 109.397 147.861C109.162 147.928 108.924 147.964 108.684 147.969ZM108.272 147.341C108.238 147.339 108.204 147.347 108.172 147.366C108.162 147.374 108.153 147.385 108.147 147.399C108.141 147.413 108.138 147.429 108.138 147.445C108.134 147.487 108.138 147.53 108.149 147.57C108.16 147.61 108.179 147.646 108.203 147.674C108.343 147.84 108.718 147.869 109.22 147.757C108.924 147.548 108.603 147.407 108.272 147.341Z" fill="#CA6035"/>
<path d="M109.387 147.865H109.365C109.089 147.699 108.547 147.033 108.59 146.696C108.59 146.617 108.643 146.513 108.789 146.496C108.844 146.485 108.9 146.49 108.954 146.511C109.007 146.532 109.057 146.568 109.099 146.617C109.387 146.937 109.446 147.757 109.449 147.794C109.45 147.806 109.449 147.819 109.445 147.83C109.441 147.841 109.435 147.85 109.427 147.857C109.415 147.866 109.401 147.869 109.387 147.865ZM108.832 146.617H108.81C108.714 146.617 108.708 146.679 108.705 146.7C108.68 146.904 109.049 147.424 109.325 147.649C109.298 147.299 109.19 146.97 109.015 146.708C108.962 146.655 108.898 146.626 108.832 146.625V146.617Z" fill="#CA6035"/>
</svg>
